<svg width="44" height="38" viewBox="0 0 44 38" fill="none" xmlns="http://www.w3.org/2000/svg">
<path d="M20.213 2.98289V3.94041C21.5416 3.85043 22.253 3.95819 22.3268 3.97023C22.5374 4.00461 22.7364 4.0898 22.9066 4.21843C23.0768 4.34706 23.2131 4.51525 23.3037 4.70843L25.1708 8.68777C25.4042 8.74155 25.6183 8.85838 25.7898 9.0255C26.015 9.24498 26.2846 9.41686 26.5901 9.49137C27.2001 9.64004 27.8053 9.47057 28.233 9.05463C28.6745 8.62563 29.3479 8.51658 29.8681 8.84555C30.6121 9.31545 30.6919 10.3111 30.1085 10.8946C29.2854 11.718 28.1907 12.1716 27.0262 12.1716C26.9515 12.1715 26.8769 12.1696 26.8023 12.1658L29.3123 17.5158C29.4178 17.7406 29.5184 17.9677 29.614 18.1969C32.4403 17.3057 35.6548 17.9676 37.901 20.1883C38.4032 20.6844 38.4589 21.4948 37.9896 22.0225C37.8664 22.1617 37.715 22.2731 37.5455 22.3493C37.376 22.4255 37.1922 22.4648 37.0064 22.4646C36.6704 22.4646 36.334 22.3364 36.0778 22.0799C34.5554 20.5579 32.3698 20.0949 30.4429 20.6888C31.1737 23.6026 31.125 26.6098 30.3707 29.4296C30.7279 29.5477 31.0895 29.6523 31.4546 29.7431C31.8809 29.8491 32.3266 29.8496 32.7531 29.7444C39.3216 28.1197 43.9992 22.2125 43.9992 15.3687V2.98289C43.9992 2.36955 43.6205 1.81973 43.0465 1.60385C41.2375 0.924172 37.7412 0 32.1066 0C26.4715 0 22.9749 0.924515 21.1656 1.60428C20.5915 1.81981 20.2129 2.36964 20.2129 2.98298L20.213 2.98289ZM34.734 9.03719C35.2471 8.52423 36.0785 8.52423 36.5918 9.03719C36.7522 9.19849 36.943 9.32638 37.1531 9.41346C37.3633 9.50054 37.5886 9.54507 37.8161 9.54448C38.0436 9.54507 38.269 9.50054 38.4792 9.41347C38.6894 9.32639 38.8802 9.1985 39.0407 9.03719C39.5536 8.52397 40.3854 8.52397 40.8984 9.03719C41.4114 9.55015 41.4114 10.3817 40.8984 10.8946C40.0749 11.718 38.9806 12.1716 37.8161 12.1716C36.6519 12.1716 35.5572 11.718 34.7337 10.8946C34.2211 10.3817 34.2211 9.55015 34.734 9.03719Z" fill="url(#paint0_linear_1079_6878)"/>
<path d="M26.9349 18.6312L21.6461 7.35861C21.4027 6.83955 20.8635 6.52708 20.2919 6.5704C18.3821 6.71477 14.8 7.34813 9.64035 9.7689C4.53876 12.1623 1.7659 14.4843 0.416853 15.8681C-0.0111153 16.3072 -0.1206 16.9658 0.139877 17.5211L5.40054 28.7342C8.30729 34.9298 15.0517 38.291 21.6887 36.9718C22.1176 36.8866 22.5193 36.6981 22.8589 36.4226C28.1159 32.162 29.8417 24.827 26.9349 18.6312ZM16.3062 17.7909C17.1229 15.5304 19.6265 14.3555 21.887 15.1726C22.5692 15.419 22.9223 16.1719 22.676 16.8544C22.4296 17.5364 21.6766 17.8899 20.9942 17.6433C20.0961 17.3189 19.1015 17.7856 18.777 18.6835C18.5836 19.2187 18.0793 19.5513 17.5415 19.5513C17.3932 19.5513 17.2425 19.5262 17.0951 19.4728C16.4129 19.2261 16.0595 18.4731 16.3062 17.791V17.7909ZM11.2262 22.2261C11.0124 22.1482 10.7852 22.1135 10.5579 22.124C10.3306 22.1345 10.1076 22.1899 9.90186 22.2872C9.69565 22.3832 9.51054 22.5192 9.35726 22.6873C9.20398 22.8554 9.08557 23.0522 9.00888 23.2664C8.81553 23.8015 8.31099 24.1342 7.77319 24.1342C7.62512 24.1342 7.47447 24.1087 7.32709 24.0557C6.64457 23.8093 6.29146 23.0562 6.53784 22.3739C6.93367 21.2788 7.73194 20.4033 8.78596 19.9088C9.84042 19.4144 11.0238 19.3597 12.1188 19.7554C12.8011 20.0018 13.1543 20.7548 12.908 21.4372C12.6612 22.1194 11.9082 22.4725 11.2262 22.2261ZM15.6368 30.8125C14.6843 30.8123 13.739 30.6461 12.8435 30.3214C12.1611 30.075 11.808 29.322 12.0543 28.6396C12.301 27.9574 13.0536 27.6039 13.7361 27.8507C16.6489 28.9031 19.8749 27.3894 20.9274 24.4769C21.1738 23.7945 21.9267 23.4414 22.6092 23.6878C23.2913 23.9344 23.6445 24.6874 23.3981 25.3699C22.1865 28.7224 19.0122 30.8125 15.6368 30.8125Z" fill="url(#paint1_linear_1079_6878)"/>
<defs>
<linearGradient id="paint0_linear_1079_6878" x1="20.2129" y1="0" x2="49.289" y2="23.1906" gradientUnits="userSpaceOnUse">
<stop stop-color="#F49062"/>
<stop offset="1" stop-color="#FD371F"/>
</linearGradient>
<linearGradient id="paint1_linear_1079_6878" x1="0" y1="6.56641" x2="30.5925" y2="34.8156" gradientUnits="userSpaceOnUse">
<stop stop-color="#F49062"/>
<stop offset="1" stop-color="#FD371F"/>
</linearGradient>
</defs>
</svg>
