<svg width="84" height="43" viewBox="0 0 84 43" fill="none" xmlns="http://www.w3.org/2000/svg">
<g clip-path="url(#clip0_552_7283)">
<path d="M83.0545 42.1249C83.0545 41.2496 83.0268 40.3744 82.9715 39.5008L70.8102 40.2707C70.8493 40.888 70.8688 41.5064 70.8688 42.1249H83.0545Z" fill="#D9D9D9"/>
<path d="M83.0545 42.1249C83.0545 41.2496 83.0268 40.3744 82.9715 39.5008L70.8102 40.2707C70.8493 40.888 70.8688 41.5064 70.8688 42.1249H83.0545Z" fill="#D9D9D9"/>
<path d="M82.8914 38.453C82.814 37.5811 82.709 36.7118 82.5767 35.8465L70.531 37.6886C70.6245 38.3 70.6987 38.9142 70.7534 39.5303L82.8914 38.453Z" fill="#D9D9D9"/>
<path d="M82.4089 34.8096C82.2548 33.9479 82.0734 33.0913 81.8651 32.2411L70.0294 35.1408C70.1766 35.7416 70.3048 36.3469 70.4137 36.9557L82.4089 34.8096Z" fill="#D9D9D9"/>
<path d="M81.6019 31.2237C81.3722 30.3791 81.1158 29.5419 80.8331 28.7134L69.3002 32.6481C69.4999 33.2335 69.681 33.8251 69.8434 34.4219L81.6019 31.2237Z" fill="#D9D9D9"/>
<path d="M80.4842 27.7233C80.1807 26.9022 79.8513 26.091 79.4965 25.2907L68.3565 30.2296C68.6072 30.7951 68.84 31.3683 69.0544 31.9485L80.4842 27.7233Z" fill="#D9D9D9"/>
<path d="M79.0595 24.3347C78.6846 23.5437 78.2848 22.7647 77.8607 21.999L67.2009 27.9034C67.5006 28.4445 67.7832 28.9949 68.0481 29.5538L79.0595 24.3347Z" fill="#D9D9D9"/>
<path d="M77.3414 21.0861C76.898 20.3313 76.4309 19.5908 75.9407 18.8655L65.8447 25.6892C66.191 26.2016 66.5211 26.7249 66.8344 27.2582L77.3414 21.0861Z" fill="#D9D9D9"/>
<path d="M75.3429 18.0013C74.8345 17.2887 74.3037 16.5923 73.7514 15.9132L64.2981 23.6027C64.6885 24.0826 65.0635 24.5746 65.4227 25.0781L75.3429 18.0013Z" fill="#D9D9D9"/>
<path d="M73.079 15.1056C72.5097 14.4407 71.9194 13.794 71.3092 13.1665L62.5728 21.6616C63.004 22.105 63.421 22.562 63.8234 23.0318L73.079 15.1056Z" fill="#D9D9D9"/>
<path d="M70.5666 12.4217C69.9407 11.8098 69.2956 11.2178 68.6322 10.6466L60.681 19.8808C61.1498 20.2844 61.6056 20.7027 62.0479 21.1351L70.5666 12.4217Z" fill="#D9D9D9"/>
<path d="M67.8297 9.97016C67.1521 9.41596 66.4572 8.88331 65.746 8.37303L58.6423 18.274C59.1449 18.6346 59.6359 19.0109 60.1147 19.4025L67.8297 9.97016Z" fill="#D9D9D9"/>
<path d="M64.8843 7.77034C64.1604 7.2782 63.4211 6.80908 62.6676 6.36367L56.467 16.8539C56.9995 17.1686 57.5218 17.5001 58.0334 17.8478L64.8843 7.77034Z" fill="#D9D9D9"/>
<path d="M61.7554 5.83918C60.9908 5.41298 60.2129 5.01105 59.4229 4.634L54.174 15.6313C54.7323 15.8977 55.2819 16.1817 55.8222 16.4829L61.7554 5.83918Z" fill="#D9D9D9"/>
<path d="M58.4709 4.19188C57.6717 3.83493 56.8613 3.50334 56.0411 3.19761L51.785 14.6159C52.3645 14.8319 52.9371 15.0662 53.5019 15.3184L58.4709 4.19188Z" fill="#D9D9D9"/>
<path d="M55.0539 2.84184C54.2262 2.55696 53.3897 2.29831 52.5457 2.06628L49.3157 13.8161C49.9121 13.9801 50.5032 14.1628 51.088 14.3641L55.0539 2.84184Z" fill="#D9D9D9"/>
<path d="M51.5278 1.79939C50.6782 1.58879 49.8221 1.4051 48.9608 1.2486L46.7822 13.238C47.3908 13.3486 47.9957 13.4784 48.5961 13.6272L51.5278 1.79939Z" fill="#D9D9D9"/>
<path d="M47.926 1.07277C47.0611 0.938108 46.1921 0.830824 45.3204 0.751079L44.2102 12.8861C44.8262 12.9425 45.4402 13.0183 46.0514 13.1134L47.926 1.07277Z" fill="#D9D9D9"/>
<path d="M44.2719 0.667393C43.3984 0.609725 42.5234 0.579683 41.648 0.577316L41.615 12.763C42.2336 12.7647 42.8519 12.7859 43.4691 12.8266L44.2719 0.667393Z" fill="#D9D9D9"/>
<path d="M40.598 0.586461C39.7229 0.606237 38.8486 0.653673 37.9764 0.728701L39.0209 12.8696C39.6371 12.8166 40.2549 12.783 40.8733 12.7691L40.598 0.586461Z" fill="#D9D9D9"/>
<path d="M36.93 0.830695C36.0601 0.92776 35.1934 1.0523 34.3313 1.20414L36.445 13.2051C37.0542 13.0978 37.6666 13.0098 38.2813 12.9413L36.93 0.830695Z" fill="#D9D9D9"/>
<path d="M33.2981 1.39811C32.4401 1.57171 31.5879 1.77238 30.7426 1.99984L33.9089 13.767C34.5062 13.6063 35.1084 13.4645 35.7147 13.3418L33.2981 1.39811Z" fill="#D9D9D9"/>
<path d="M29.7303 2.28481C28.891 2.53357 28.0598 2.8088 27.238 3.11009L31.4322 14.5512C32.0129 14.3383 32.6003 14.1439 33.1933 13.9681L29.7303 2.28481Z" fill="#D9D9D9"/>
<path d="M26.2542 3.48283C25.4402 3.80482 24.6366 4.15245 23.8446 4.52522L29.0339 15.5508C29.5936 15.2874 30.1614 15.0417 30.7365 14.8142L26.2542 3.48283Z" fill="#D9D9D9"/>
<path d="M22.8986 4.98401C22.1162 5.37669 21.3465 5.79401 20.5906 6.23534L26.7343 16.759C27.2684 16.4471 27.8123 16.1522 28.3651 15.8747L22.8986 4.98401Z" fill="#D9D9D9"/>
<path d="M19.6906 6.77545C18.946 7.23576 18.2162 7.7195 17.5022 8.22593L24.5522 18.1652C25.0567 17.8073 25.5724 17.4655 26.0985 17.1403L19.6906 6.77545Z" fill="#D9D9D9"/>
<path d="M16.6515 8.84397C15.9505 9.3683 15.2664 9.91466 14.5999 10.4822L22.501 19.7593C22.9719 19.3583 23.4554 18.9722 23.9507 18.6017L16.6515 8.84397Z" fill="#FF8447"/>
<path d="M13.808 11.1726C13.1562 11.7569 12.523 12.3616 11.9093 12.9859L20.5996 21.5281C21.0332 21.087 21.4807 20.6597 21.9413 20.2469L13.808 11.1726Z" fill="#FF8447"/>
<path d="M11.178 13.7443C10.5804 14.3839 10.0031 15.0422 9.44706 15.7183L18.8585 23.4588C19.2514 22.9811 19.6593 22.5159 20.0816 22.064L11.178 13.7443Z" fill="#FF8447"/>
<path d="M8.7895 16.5378C8.25075 17.2277 7.73394 17.9345 7.23985 18.6571L17.2988 25.5353C17.6479 25.0247 18.0131 24.5253 18.3938 24.0378L8.7895 16.5378Z" fill="#FF8447"/>
<path d="M6.65688 19.5315C6.18123 20.2663 5.72893 21.016 5.30065 21.7794L15.9283 27.7414C16.2309 27.202 16.5505 26.6722 16.8866 26.153L6.65688 19.5315Z" fill="#FF8447"/>
<path d="M4.79596 22.7019C4.38713 23.4759 4.00288 24.2627 3.64377 25.061L14.7568 30.0601C15.0106 29.496 15.2821 28.9401 15.571 28.3932L4.79596 22.7019Z" fill="#FF8447"/>
<path d="M3.2216 26.0248C2.88281 26.832 2.56961 27.6496 2.28248 28.4765L13.794 32.4736C13.9969 31.8893 14.2182 31.3115 14.4576 30.7412L3.2216 26.0248Z" fill="#FF8447"/>
<path d="M1.94929 29.4736C1.68318 30.3076 1.44349 31.1497 1.2306 31.9987L13.0504 34.9625C13.2008 34.3625 13.3702 33.7675 13.5582 33.1782L1.94929 29.4736Z" fill="#FF8447"/>
<path d="M0.988836 33.0214C0.797487 33.8756 0.633188 34.7356 0.496188 35.6001L12.5317 37.5073C12.6285 36.8964 12.7446 36.2887 12.8798 35.6851L0.988836 33.0214Z" fill="#FF8447"/>
<path d="M0.344004 36.6405C0.228918 37.5083 0.141293 38.3794 0.0812623 39.2527L12.2383 40.0884C12.2807 39.4714 12.3426 38.8558 12.4239 38.2426L0.344004 36.6405Z" fill="#FF8447"/>
<path d="M0.0219721 40.3024C-0.0159484 41.1769 -0.0262134 42.0524 -0.0088046 42.9276L12.1745 42.6853C12.1622 42.0668 12.1694 41.4482 12.1962 40.8303L0.0219721 40.3024Z" fill="#FF8447"/>
</g>
<defs>
<clipPath id="clip0_552_7283">
<rect width="83.0682" height="43" fill="white"/>
</clipPath>
</defs>
</svg>
