<svg width="105" height="54" viewBox="0 0 105 54" fill="none" xmlns="http://www.w3.org/2000/svg">
<g clip-path="url(#clip0_552_7365)">
<path d="M104.838 52.9008C104.838 51.8015 104.803 50.7025 104.734 49.6054L89.4611 50.5723C89.5102 51.3475 89.5347 52.124 89.5347 52.9008H104.838Z" fill="#D9D9D9"/>
<path d="M104.838 52.9008C104.838 51.8015 104.803 50.7025 104.734 49.6054L89.4611 50.5723C89.5102 51.3475 89.5347 52.124 89.5347 52.9008H104.838Z" fill="#D9D9D9"/>
<path d="M104.634 48.2896C104.537 47.1947 104.405 46.103 104.239 45.0164L89.1119 47.3296C89.2293 48.0974 89.3225 48.8688 89.3911 49.6425L104.634 48.2896Z" fill="#D9D9D9"/>
<path d="M104.026 43.7144C103.833 42.6323 103.605 41.5566 103.343 40.4889L88.4798 44.1304C88.6646 44.8849 88.8256 45.645 88.9624 46.4096L104.026 43.7144Z" fill="#D9D9D9"/>
<path d="M103.015 39.2111C102.726 38.1504 102.404 37.099 102.049 36.0586L87.566 40.9999C87.8168 41.735 88.0443 42.4779 88.2482 43.2275L103.015 39.2111Z" fill="#D9D9D9"/>
<path d="M101.61 34.8152C101.229 33.7841 100.815 32.7653 100.369 31.7604L86.3796 37.9627C86.6944 38.6728 86.9867 39.3927 87.2561 40.1212L101.61 34.8152Z" fill="#D9D9D9"/>
<path d="M99.8203 30.5601C99.3495 29.5667 98.8474 28.5885 98.3148 27.6269L84.9281 35.0417C85.3045 35.7212 85.6593 36.4124 85.992 37.1143L99.8203 30.5601Z" fill="#D9D9D9"/>
<path d="M97.6627 26.4801C97.1059 25.5323 96.5193 24.6023 95.9037 23.6915L83.225 32.2608C83.66 32.9043 84.0745 33.5615 84.4679 34.2312L97.6627 26.4801Z" fill="#D9D9D9"/>
<path d="M95.1544 22.6063C94.516 21.7114 93.8494 20.8369 93.1557 19.9841L81.2843 29.6407C81.7744 30.2433 82.2454 30.8612 82.6965 31.4935L95.1544 22.6063Z" fill="#D9D9D9"/>
<path d="M92.3102 18.9701C91.5952 18.1351 90.8539 17.323 90.0876 16.5348L79.1163 27.2031C79.6578 27.76 80.1815 28.3339 80.6868 28.9238L92.3102 18.9701Z" fill="#D9D9D9"/>
<path d="M89.156 15.5994C88.37 14.8309 87.5599 14.0875 86.7268 13.3702L76.7416 24.9666C77.3302 25.4734 77.9027 25.9988 78.4581 26.5418L89.156 15.5994Z" fill="#D9D9D9"/>
<path d="M85.7188 12.5204C84.8679 11.8245 83.9952 11.1556 83.102 10.5147L74.1811 22.9485C74.8122 23.4013 75.4289 23.874 76.0301 24.3658L85.7188 12.5204Z" fill="#D9D9D9"/>
<path d="M82.0205 9.75763C81.1114 9.1396 80.183 8.55047 79.2366 7.99111L71.4499 21.1649C72.1185 21.5601 72.7746 21.9764 73.4169 22.4131L82.0205 9.75763Z" fill="#D9D9D9"/>
<path d="M78.0934 7.33285C77.1332 6.79761 76.1564 6.29286 75.1643 5.81936L68.5727 19.6299C69.2737 19.9645 69.9639 20.3212 70.6424 20.6994L78.0934 7.33285Z" fill="#D9D9D9"/>
<path d="M73.9665 5.26452C72.9628 4.81627 71.9451 4.39986 70.9151 4.01591L65.5702 18.3551C66.298 18.6264 67.0171 18.9207 67.7264 19.2374L73.9665 5.26452Z" fill="#D9D9D9"/>
<path d="M69.6746 3.56901C68.6352 3.21124 67.5847 2.88643 66.5247 2.59505L62.4684 17.3507C63.2174 17.5565 63.9597 17.7861 64.6942 18.0389L69.6746 3.56901Z" fill="#D9D9D9"/>
<path d="M65.2462 2.25958C64.1792 1.99511 63.1041 1.76443 62.0225 1.5679L59.2866 16.6243C60.0509 16.7632 60.8105 16.9262 61.5645 17.1131L65.2462 2.25958Z" fill="#D9D9D9"/>
<path d="M60.7228 1.34695C59.6366 1.17784 58.5454 1.04311 57.4507 0.942965L56.0565 16.1823C56.8301 16.2531 57.6012 16.3483 58.3687 16.4678L60.7228 1.34695Z" fill="#D9D9D9"/>
<path d="M56.1351 0.83785C55.0382 0.765429 53.9393 0.727703 52.84 0.724727L52.7986 16.0277C53.5753 16.0298 54.3518 16.0564 55.1269 16.1076L56.1351 0.83785Z" fill="#D9D9D9"/>
<path d="M51.5195 0.736124C50.4205 0.760958 49.3226 0.82053 48.2273 0.914748L49.5389 16.1614C50.3128 16.0948 51.0887 16.0528 51.8652 16.0352L51.5195 0.736124Z" fill="#D9D9D9"/>
<path d="M46.9144 1.04334C45.8219 1.16523 44.7335 1.32163 43.6509 1.51231L46.3053 16.5833C47.0703 16.4486 47.8393 16.3381 48.6113 16.2519L46.9144 1.04334Z" fill="#D9D9D9"/>
<path d="M42.3534 1.75557C41.2759 1.97357 40.2056 2.22558 39.1441 2.51122L43.1205 17.2886C43.8706 17.0867 44.6268 16.9087 45.3882 16.7546L42.3534 1.75557Z" fill="#D9D9D9"/>
<path d="M37.8723 2.86902C36.8184 3.18142 35.7746 3.52706 34.7425 3.90543L40.0097 18.2734C40.739 18.006 41.4765 17.7618 42.2213 17.541L37.8723 2.86902Z" fill="#D9D9D9"/>
<path d="M33.5072 4.37397C32.485 4.77832 31.4759 5.21489 30.4812 5.68302L36.998 19.5291C37.7008 19.1983 38.4139 18.8898 39.1362 18.6041L33.5072 4.37397Z" fill="#D9D9D9"/>
<path d="M29.2933 6.25902C28.3108 6.75216 27.3442 7.27623 26.3949 7.83046L34.1102 21.0462C34.781 20.6545 35.464 20.2842 36.1583 19.9358L29.2933 6.25902Z" fill="#D9D9D9"/>
<path d="M25.2643 8.50857C24.3293 9.08664 23.4128 9.69412 22.5162 10.3301L31.3697 22.812C32.0032 22.3626 32.6508 21.9333 33.3115 21.5249L25.2643 8.50857Z" fill="#D9D9D9"/>
<path d="M21.4484 11.1062C20.5682 11.7647 19.709 12.4508 18.8721 13.1636L28.7944 24.8139C29.3857 24.3102 29.9928 23.8254 30.6148 23.3601L21.4484 11.1062Z" fill="#FF8447"/>
<path d="M17.8748 14.0309C17.0562 14.7646 16.261 15.524 15.4904 16.308L26.4038 27.0355C26.9484 26.4815 27.5102 25.9449 28.0887 25.4265L17.8748 14.0309Z" fill="#FF8447"/>
<path d="M14.5755 17.2599C13.825 18.0631 13.1 18.8898 12.4018 19.7388L24.2208 29.4595C24.7142 28.8596 25.2265 28.2754 25.7568 27.7079L14.5755 17.2599Z" fill="#FF8447"/>
<path d="M11.5747 20.7679C10.8981 21.6343 10.2491 22.5219 9.62861 23.4293L22.2607 32.0671C22.6992 31.4259 23.1578 30.7987 23.6359 30.1865L11.5747 20.7679Z" fill="#FF8447"/>
<path d="M8.89601 24.5279C8.29868 25.4507 7.73067 26.3922 7.19283 27.3509L20.5391 34.8381C20.9192 34.1606 21.3205 33.4954 21.7426 32.8433L8.89601 24.5279Z" fill="#FF8447"/>
<path d="M6.56008 28.5097C6.04667 29.4817 5.56412 30.4698 5.11314 31.4723L19.0691 37.7502C19.3878 37.0418 19.7287 36.3437 20.0915 35.6569L6.56008 28.5097Z" fill="#FF8447"/>
<path d="M4.58384 32.6825C4.15838 33.6961 3.76506 34.7229 3.40448 35.7614L17.8608 40.7809C18.1156 40.0472 18.3935 39.3216 18.6941 38.6054L4.58384 32.6825Z" fill="#FF8447"/>
<path d="M2.98597 37.0134C2.65178 38.0606 2.35078 39.1182 2.08342 40.1845L16.9269 43.9064C17.1158 43.1529 17.3285 42.4057 17.5646 41.6657L2.98597 37.0134Z" fill="#FF8447"/>
<path d="M1.7785 41.4686C1.5382 42.5413 1.33187 43.6213 1.15982 44.707L16.2742 47.1021C16.3958 46.3349 16.5416 45.5718 16.7114 44.8138L1.7785 41.4686Z" fill="#FF8447"/>
<path d="M0.968342 46.0136C0.823816 47.1034 0.713776 48.1974 0.638386 49.2941L15.9053 50.3436C15.9586 49.5686 16.0364 48.7956 16.1385 48.0256L0.968342 46.0136Z" fill="#FF8447"/>
<path d="M0.564703 50.612C0.517082 51.7102 0.504192 52.8097 0.526051 53.9088L15.826 53.6045C15.8106 52.8279 15.8197 52.051 15.8533 51.2749L0.564703 50.612Z" fill="#FF8447"/>
<path d="M39.0792 48V36.3636H43.3406C44.1663 36.3636 44.85 36.5 45.3917 36.7727C45.9334 37.0417 46.3387 37.4072 46.6076 37.8693C46.8765 38.3277 47.011 38.8447 47.011 39.4205C47.011 39.9053 46.922 40.3144 46.744 40.6477C46.5659 40.9773 46.3273 41.2424 46.0281 41.4432C45.7326 41.6402 45.4068 41.7841 45.0508 41.875V41.9886C45.4371 42.0076 45.814 42.1326 46.1815 42.3636C46.5527 42.5909 46.8595 42.9148 47.1019 43.3352C47.3443 43.7557 47.4656 44.267 47.4656 44.8693C47.4656 45.464 47.3254 45.9981 47.0451 46.4716C46.7686 46.9413 46.3406 47.3144 45.761 47.5909C45.1815 47.8636 44.4409 48 43.5394 48H39.0792ZM40.8349 46.4943H43.369C44.2099 46.4943 44.8121 46.3314 45.1758 46.0057C45.5394 45.6799 45.7212 45.2727 45.7212 44.7841C45.7212 44.4167 45.6284 44.0795 45.4428 43.7727C45.2572 43.4659 44.9921 43.2216 44.6474 43.0398C44.3065 42.858 43.9012 42.767 43.4315 42.767H40.8349V46.4943ZM40.8349 41.3977H43.1871C43.5811 41.3977 43.9353 41.322 44.2496 41.1705C44.5678 41.0189 44.8197 40.8068 45.0053 40.5341C45.1947 40.2576 45.2894 39.9318 45.2894 39.5568C45.2894 39.0758 45.1209 38.6723 44.7837 38.3466C44.4466 38.0208 43.9296 37.858 43.2326 37.858H40.8349V41.3977ZM51.7753 48.1932C51.2223 48.1932 50.7223 48.0909 50.2753 47.8864C49.8284 47.678 49.4742 47.3769 49.2128 46.983C48.9553 46.589 48.8265 46.1061 48.8265 45.5341C48.8265 45.0417 48.9212 44.6364 49.1106 44.3182C49.3 44 49.5557 43.7481 49.8776 43.5625C50.1996 43.3769 50.5594 43.2367 50.9572 43.142C51.3549 43.0473 51.7602 42.9754 52.1731 42.9261C52.6958 42.8655 53.12 42.8163 53.4458 42.7784C53.7716 42.7367 54.0083 42.6705 54.156 42.5795C54.3038 42.4886 54.3776 42.3409 54.3776 42.1364V42.0966C54.3776 41.6004 54.2375 41.2159 53.9572 40.9432C53.6807 40.6705 53.2678 40.5341 52.7185 40.5341C52.1466 40.5341 51.6958 40.661 51.3663 40.9148C51.0405 41.1648 50.8151 41.4432 50.6901 41.75L49.0935 41.3864C49.2829 40.8561 49.5594 40.428 49.9231 40.1023C50.2905 39.7727 50.7128 39.5341 51.1901 39.3864C51.6674 39.2348 52.1693 39.1591 52.6958 39.1591C53.0443 39.1591 53.4136 39.2008 53.8038 39.2841C54.1977 39.3636 54.5651 39.5114 54.906 39.7273C55.2507 39.9432 55.5329 40.2519 55.7526 40.6534C55.9723 41.0511 56.0822 41.5682 56.0822 42.2045V48H54.4231V46.8068H54.3549C54.245 47.0265 54.0803 47.2424 53.8606 47.4545C53.6409 47.6667 53.3587 47.8428 53.014 47.983C52.6693 48.1231 52.2564 48.1932 51.7753 48.1932ZM52.1447 46.8295C52.6144 46.8295 53.0159 46.7367 53.3492 46.5511C53.6863 46.3655 53.942 46.1231 54.1163 45.8239C54.2943 45.5208 54.3833 45.197 54.3833 44.8523V43.7273C54.3227 43.7879 54.2053 43.8447 54.031 43.8977C53.8606 43.947 53.6655 43.9905 53.4458 44.0284C53.2261 44.0625 53.0121 44.0947 52.8038 44.125C52.5954 44.1515 52.4212 44.1742 52.281 44.1932C51.9515 44.2348 51.6503 44.3049 51.3776 44.4034C51.1087 44.5019 50.8928 44.6439 50.7299 44.8295C50.5708 45.0114 50.4913 45.2538 50.4913 45.5568C50.4913 45.9773 50.6466 46.2955 50.9572 46.5114C51.2678 46.7235 51.6636 46.8295 52.1447 46.8295ZM61.436 48.1705C60.7315 48.1705 60.1027 47.9905 59.5496 47.6307C59.0004 47.267 58.5686 46.75 58.2542 46.0795C57.9436 45.4053 57.7883 44.5966 57.7883 43.6534C57.7883 42.7102 57.9455 41.9034 58.2599 41.233C58.578 40.5625 59.0136 40.0492 59.5667 39.6932C60.1197 39.3371 60.7466 39.1591 61.4474 39.1591C61.989 39.1591 62.4246 39.25 62.7542 39.4318C63.0875 39.6098 63.3451 39.8182 63.5269 40.0568C63.7125 40.2955 63.8565 40.5057 63.9587 40.6875H64.061V36.3636H65.7599V48H64.1008V46.642H63.9587C63.8565 46.8277 63.7087 47.0398 63.5155 47.2784C63.3261 47.517 63.0648 47.7254 62.7315 47.9034C62.3981 48.0814 61.9663 48.1705 61.436 48.1705ZM61.811 46.7216C62.2996 46.7216 62.7125 46.5928 63.0496 46.3352C63.3905 46.0739 63.6481 45.7121 63.8224 45.25C64.0004 44.7879 64.0894 44.25 64.0894 43.6364C64.0894 43.0303 64.0023 42.5 63.828 42.0455C63.6538 41.5909 63.3981 41.2367 63.061 40.983C62.7239 40.7292 62.3072 40.6023 61.811 40.6023C61.2996 40.6023 60.8735 40.7348 60.5326 41C60.1917 41.2652 59.9341 41.6269 59.7599 42.0852C59.5894 42.5436 59.5042 43.0606 59.5042 43.6364C59.5042 44.2197 59.5913 44.7443 59.7655 45.2102C59.9398 45.6761 60.1974 46.0455 60.5383 46.3182C60.883 46.5871 61.3072 46.7216 61.811 46.7216Z" fill="#0E121B"/>
</g>
<defs>
<clipPath id="clip0_552_7365">
<rect width="104.318" height="54" fill="white" transform="translate(0.537109)"/>
</clipPath>
</defs>
</svg>
