<svg width="44" height="44" viewBox="0 0 44 44" fill="none" xmlns="http://www.w3.org/2000/svg">
<g clip-path="url(#clip0_1079_4281)">
<path d="M23.8883 3.42818L3.74 0.366509C2.805 0.219842 1.85167 0.476509 1.13667 1.08151C0.421667 1.70484 0 2.60318 0 3.53818V42.1665C0 43.1748 0.825 43.9998 1.83333 43.9998H7.79167V34.3748C7.79167 32.5965 9.22167 31.1665 11 31.1665H15.5833C17.3617 31.1665 18.7917 32.5965 18.7917 34.3748V43.9998H26.5833V6.59984C26.5833 5.02318 25.4467 3.68484 23.8883 3.42818ZM10.0833 27.0415H7.33333C6.96866 27.0415 6.61892 26.8966 6.36106 26.6388C6.1032 26.3809 5.95833 26.0312 5.95833 25.6665C5.95833 25.3018 6.1032 24.9521 6.36106 24.6942C6.61892 24.4364 6.96866 24.2915 7.33333 24.2915H10.0833C10.448 24.2915 10.7977 24.4364 11.0556 24.6942C11.3135 24.9521 11.4583 25.3018 11.4583 25.6665C11.4583 26.0312 11.3135 26.3809 11.0556 26.6388C10.7977 26.8966 10.448 27.0415 10.0833 27.0415ZM10.0833 21.5415H7.33333C6.96866 21.5415 6.61892 21.3966 6.36106 21.1388C6.1032 20.8809 5.95833 20.5312 5.95833 20.1665C5.95833 19.8018 6.1032 19.4521 6.36106 19.1942C6.61892 18.9364 6.96866 18.7915 7.33333 18.7915H10.0833C10.448 18.7915 10.7977 18.9364 11.0556 19.1942C11.3135 19.4521 11.4583 19.8018 11.4583 20.1665C11.4583 20.5312 11.3135 20.8809 11.0556 21.1388C10.7977 21.3966 10.448 21.5415 10.0833 21.5415ZM10.0833 16.0415H7.33333C6.96866 16.0415 6.61892 15.8966 6.36106 15.6388C6.1032 15.3809 5.95833 15.0312 5.95833 14.6665C5.95833 14.3018 6.1032 13.9521 6.36106 13.6942C6.61892 13.4364 6.96866 13.2915 7.33333 13.2915H10.0833C10.448 13.2915 10.7977 13.4364 11.0556 13.6942C11.3135 13.9521 11.4583 14.3018 11.4583 14.6665C11.4583 15.0312 11.3135 15.3809 11.0556 15.6388C10.7977 15.8966 10.448 16.0415 10.0833 16.0415ZM10.0833 10.5415H7.33333C6.96866 10.5415 6.61892 10.3966 6.36106 10.1388C6.1032 9.88092 5.95833 9.53118 5.95833 9.16651C5.95833 8.80184 6.1032 8.4521 6.36106 8.19424C6.61892 7.93637 6.96866 7.79151 7.33333 7.79151H10.0833C10.448 7.79151 10.7977 7.93637 11.0556 8.19424C11.3135 8.4521 11.4583 8.80184 11.4583 9.16651C11.4583 9.53118 11.3135 9.88092 11.0556 10.1388C10.7977 10.3966 10.448 10.5415 10.0833 10.5415ZM19.25 27.0415H16.5C16.1353 27.0415 15.7856 26.8966 15.5277 26.6388C15.2699 26.3809 15.125 26.0312 15.125 25.6665C15.125 25.3018 15.2699 24.9521 15.5277 24.6942C15.7856 24.4364 16.1353 24.2915 16.5 24.2915H19.25C19.6147 24.2915 19.9644 24.4364 20.2223 24.6942C20.4801 24.9521 20.625 25.3018 20.625 25.6665C20.625 26.0312 20.4801 26.3809 20.2223 26.6388C19.9644 26.8966 19.6147 27.0415 19.25 27.0415ZM19.25 21.5415H16.5C16.1353 21.5415 15.7856 21.3966 15.5277 21.1388C15.2699 20.8809 15.125 20.5312 15.125 20.1665C15.125 19.8018 15.2699 19.4521 15.5277 19.1942C15.7856 18.9364 16.1353 18.7915 16.5 18.7915H19.25C19.6147 18.7915 19.9644 18.9364 20.2223 19.1942C20.4801 19.4521 20.625 19.8018 20.625 20.1665C20.625 20.5312 20.4801 20.8809 20.2223 21.1388C19.9644 21.3966 19.6147 21.5415 19.25 21.5415ZM19.25 16.0415H16.5C16.1353 16.0415 15.7856 15.8966 15.5277 15.6388C15.2699 15.3809 15.125 15.0312 15.125 14.6665C15.125 14.3018 15.2699 13.9521 15.5277 13.6942C15.7856 13.4364 16.1353 13.2915 16.5 13.2915H19.25C19.6147 13.2915 19.9644 13.4364 20.2223 13.6942C20.4801 13.9521 20.625 14.3018 20.625 14.6665C20.625 15.0312 20.4801 15.3809 20.2223 15.6388C19.9644 15.8966 19.6147 16.0415 19.25 16.0415ZM19.25 10.5415H16.5C16.1353 10.5415 15.7856 10.3966 15.5277 10.1388C15.2699 9.88092 15.125 9.53118 15.125 9.16651C15.125 8.80184 15.2699 8.4521 15.5277 8.19424C15.7856 7.93637 16.1353 7.79151 16.5 7.79151H19.25C19.6147 7.79151 19.9644 7.93637 20.2223 8.19424C20.4801 8.4521 20.625 8.80184 20.625 9.16651C20.625 9.53118 20.4801 9.88092 20.2223 10.1388C19.9644 10.3966 19.6147 10.5415 19.25 10.5415ZM41.47 19.8768L28.4167 17.1433V43.9998H40.7917C42.5608 43.9998 44 42.5607 44 40.7915V23.0118C44 21.4975 42.9678 20.2087 41.47 19.8768ZM37.125 38.4998H34.375C34.0103 38.4998 33.6606 38.355 33.4027 38.0971C33.1449 37.8393 33 37.4895 33 37.1248C33 36.7602 33.1449 36.4104 33.4027 36.1526C33.6606 35.8947 34.0103 35.7498 34.375 35.7498H37.125C37.4897 35.7498 37.8394 35.8947 38.0973 36.1526C38.3551 36.4104 38.5 36.7602 38.5 37.1248C38.5 37.4895 38.3551 37.8393 38.0973 38.0971C37.8394 38.355 37.4897 38.4998 37.125 38.4998ZM37.125 32.9998H34.375C34.0103 32.9998 33.6606 32.855 33.4027 32.5971C33.1449 32.3393 33 31.9895 33 31.6248C33 31.2602 33.1449 30.9104 33.4027 30.6526C33.6606 30.3947 34.0103 30.2498 34.375 30.2498H37.125C37.4897 30.2498 37.8394 30.3947 38.0973 30.6526C38.3551 30.9104 38.5 31.2602 38.5 31.6248C38.5 31.9895 38.3551 32.3393 38.0973 32.5971C37.8394 32.855 37.4897 32.9998 37.125 32.9998ZM37.125 27.4998H34.375C34.0103 27.4998 33.6606 27.355 33.4027 27.0971C33.1449 26.8393 33 26.4895 33 26.1248C33 25.7602 33.1449 25.4104 33.4027 25.1526C33.6606 24.8947 34.0103 24.7498 34.375 24.7498H37.125C37.4897 24.7498 37.8394 24.8947 38.0973 25.1526C38.3551 25.4104 38.5 25.7602 38.5 26.1248C38.5 26.4895 38.3551 26.8393 38.0973 27.0971C37.8394 27.355 37.4897 27.4998 37.125 27.4998Z" fill="url(#paint0_linear_1079_4281)"/>
</g>
<defs>
<linearGradient id="paint0_linear_1079_4281" x1="0" y1="0.326172" x2="43.6725" y2="44.325" gradientUnits="userSpaceOnUse">
<stop stop-color="#72EDF2"/>
<stop offset="1" stop-color="#5151E5"/>
</linearGradient>
<clipPath id="clip0_1079_4281">
<rect width="44" height="44" fill="white"/>
</clipPath>
</defs>
</svg>
