<svg width="16" height="16" viewBox="0 0 16 16" fill="none" xmlns="http://www.w3.org/2000/svg">
<path d="M1.33398 8.00033C1.33398 5.48617 1.33398 4.22909 2.11503 3.44804C2.89608 2.66699 4.15316 2.66699 6.66732 2.66699H9.33398C11.8481 2.66699 13.1052 2.66699 13.8863 3.44804C14.6673 4.22909 14.6673 5.48617 14.6673 8.00033V9.33366C14.6673 11.8478 14.6673 13.1049 13.8863 13.8859C13.1052 14.667 11.8481 14.667 9.33398 14.667H6.66732C4.15316 14.667 2.89608 14.667 2.11503 13.8859C1.33398 13.1049 1.33398 11.8478 1.33398 9.33366V8.00033Z" stroke="#A4A7AE"/>
<path d="M4.66602 2.66699V1.66699" stroke="#A4A7AE" stroke-linecap="round"/>
<path d="M11.334 2.66699V1.66699" stroke="#A4A7AE" stroke-linecap="round"/>
<path d="M1.66602 6H14.3327" stroke="#A4A7AE" stroke-linecap="round"/>
<path d="M11.9993 11.3333C11.9993 11.7015 11.7009 12 11.3327 12C10.9645 12 10.666 11.7015 10.666 11.3333C10.666 10.9651 10.9645 10.6667 11.3327 10.6667C11.7009 10.6667 11.9993 10.9651 11.9993 11.3333Z" fill="#A4A7AE"/>
<path d="M11.9993 8.66667C11.9993 9.03486 11.7009 9.33333 11.3327 9.33333C10.9645 9.33333 10.666 9.03486 10.666 8.66667C10.666 8.29848 10.9645 8 11.3327 8C11.7009 8 11.9993 8.29848 11.9993 8.66667Z" fill="#A4A7AE"/>
<path d="M8.66732 11.3333C8.66732 11.7015 8.36884 12 8.00065 12C7.63246 12 7.33398 11.7015 7.33398 11.3333C7.33398 10.9651 7.63246 10.6667 8.00065 10.6667C8.36884 10.6667 8.66732 10.9651 8.66732 11.3333Z" fill="#A4A7AE"/>
<path d="M8.66732 8.66667C8.66732 9.03486 8.36884 9.33333 8.00065 9.33333C7.63246 9.33333 7.33398 9.03486 7.33398 8.66667C7.33398 8.29848 7.63246 8 8.00065 8C8.36884 8 8.66732 8.29848 8.66732 8.66667Z" fill="#A4A7AE"/>
<path d="M5.33333 11.3333C5.33333 11.7015 5.03486 12 4.66667 12C4.29848 12 4 11.7015 4 11.3333C4 10.9651 4.29848 10.6667 4.66667 10.6667C5.03486 10.6667 5.33333 10.9651 5.33333 11.3333Z" fill="#A4A7AE"/>
<path d="M5.33333 8.66667C5.33333 9.03486 5.03486 9.33333 4.66667 9.33333C4.29848 9.33333 4 9.03486 4 8.66667C4 8.29848 4.29848 8 4.66667 8C5.03486 8 5.33333 8.29848 5.33333 8.66667Z" fill="#A4A7AE"/>
</svg>
