<svg width="20" height="20" viewBox="0 0 20 20" fill="none" xmlns="http://www.w3.org/2000/svg">
<path d="M1.66602 10.0002C1.66602 6.85747 1.66602 5.28612 2.64233 4.30981C3.61864 3.3335 5.18999 3.3335 8.33268 3.3335H11.666C14.8087 3.3335 16.3801 3.3335 17.3564 4.30981C18.3327 5.28612 18.3327 6.85747 18.3327 10.0002V11.6668C18.3327 14.8095 18.3327 16.3809 17.3564 17.3572C16.3801 18.3335 14.8087 18.3335 11.666 18.3335H8.33268C5.18999 18.3335 3.61864 18.3335 2.64233 17.3572C1.66602 16.3809 1.66602 14.8095 1.66602 11.6668V10.0002Z" stroke="#FF6700" stroke-width="1.5"/>
<path d="M5.83398 3.3335V2.0835" stroke="#FF6700" stroke-width="1.5" stroke-linecap="round"/>
<path d="M14.166 3.3335V2.0835" stroke="#FF6700" stroke-width="1.5" stroke-linecap="round"/>
<path d="M2.08398 7.5H17.9173" stroke="#FF6700" stroke-width="1.5" stroke-linecap="round"/>
<path d="M15.0007 14.1667C15.0007 14.6269 14.6276 15 14.1673 15C13.7071 15 13.334 14.6269 13.334 14.1667C13.334 13.7064 13.7071 13.3333 14.1673 13.3333C14.6276 13.3333 15.0007 13.7064 15.0007 14.1667Z" fill="#FF6700"/>
<path d="M15.0007 10.8333C15.0007 11.2936 14.6276 11.6667 14.1673 11.6667C13.7071 11.6667 13.334 11.2936 13.334 10.8333C13.334 10.3731 13.7071 10 14.1673 10C14.6276 10 15.0007 10.3731 15.0007 10.8333Z" fill="#FF6700"/>
<path d="M10.8327 14.1667C10.8327 14.6269 10.4596 15 9.99935 15C9.53911 15 9.16602 14.6269 9.16602 14.1667C9.16602 13.7064 9.53911 13.3333 9.99935 13.3333C10.4596 13.3333 10.8327 13.7064 10.8327 14.1667Z" fill="#FF6700"/>
<path d="M10.8327 10.8333C10.8327 11.2936 10.4596 11.6667 9.99935 11.6667C9.53911 11.6667 9.16602 11.2936 9.16602 10.8333C9.16602 10.3731 9.53911 10 9.99935 10C10.4596 10 10.8327 10.3731 10.8327 10.8333Z" fill="#FF6700"/>
<path d="M6.66667 14.1667C6.66667 14.6269 6.29357 15 5.83333 15C5.3731 15 5 14.6269 5 14.1667C5 13.7064 5.3731 13.3333 5.83333 13.3333C6.29357 13.3333 6.66667 13.7064 6.66667 14.1667Z" fill="#FF6700"/>
<path d="M6.66667 10.8333C6.66667 11.2936 6.29357 11.6667 5.83333 11.6667C5.3731 11.6667 5 11.2936 5 10.8333C5 10.3731 5.3731 10 5.83333 10C6.29357 10 6.66667 10.3731 6.66667 10.8333Z" fill="#FF6700"/>
</svg>
