<svg width="14" height="15" viewBox="0 0 14 15" fill="none" xmlns="http://www.w3.org/2000/svg">
<path d="M8.25 1.75H3.37809C3.00569 1.75 2.68505 2.01286 2.61202 2.37803L2.11263 4.875H0.75V6.125H2.06797L2.92566 13.5583C2.97114 13.9525 3.30493 14.25 3.70176 14.25H10.2983C10.6951 14.25 11.0289 13.9525 11.0743 13.5583L11.932 6.125H13.25V4.875H11.8874L11.388 2.37803C11.3149 2.01286 10.9943 1.75 10.6219 1.75H9.5V0.5H8.25V1.75ZM10.6126 4.875H3.38737L3.76237 3H10.2376L10.6126 4.875ZM3.32626 6.125H10.6738L9.8805 13H4.11953L3.32626 6.125Z" fill="#FF6700"/>
</svg>
