<svg width="42" height="42" viewBox="0 0 42 42" fill="none" xmlns="http://www.w3.org/2000/svg">
<path d="M0 21C0 9.40202 9.40202 0 21 0C32.598 0 42 9.40202 42 21C42 32.598 32.598 42 21 42C9.40202 42 0 32.598 0 21Z" fill="#F5F5F5"/>
<path d="M22.6714 23.2536C22.1739 23.5853 21.5959 23.7606 21 23.7606C20.4041 23.7606 19.8262 23.5853 19.3286 23.2536L11.1332 17.7898C11.0879 17.7595 11.0435 17.728 11 17.6954V26.6484C11 27.6748 11.833 28.4895 12.8411 28.4895H29.1588C30.1853 28.4895 31 27.6565 31 26.6484V17.6953C30.9564 17.7281 30.9119 17.7596 30.8665 17.7899L22.6714 23.2536Z" fill="#181D27"/>
<path d="M11.7832 16.8146L19.9786 22.2785C20.2889 22.4853 20.6444 22.5887 21 22.5887C21.3555 22.5887 21.7111 22.4853 22.0214 22.2785L30.2168 16.8146C30.7072 16.4879 31 15.941 31 15.3508C31 14.3359 30.1743 13.5103 29.1595 13.5103H12.8405C11.8257 13.5103 11 14.3359 11 15.3517C10.9997 15.6413 11.0711 15.9264 11.2077 16.1816C11.3444 16.4369 11.5421 16.6544 11.7832 16.8146Z" fill="#181D27"/>
</svg>
