<svg width="24" height="24" viewBox="0 0 24 24" fill="none" xmlns="http://www.w3.org/2000/svg">
<path d="M11.9988 3.8999C16.8516 3.8999 20.889 7.3919 21.7359 11.9999C20.8899 16.6079 16.8516 20.0999 11.9988 20.0999C7.14602 20.0999 3.10862 16.6079 2.26172 11.9999C3.10772 7.3919 7.14602 3.8999 11.9988 3.8999ZM11.9988 18.2999C13.8343 18.2995 15.6154 17.676 17.0504 16.5316C18.4854 15.3871 19.4894 13.7893 19.8981 11.9999C19.4879 10.2119 18.4833 8.61591 17.0484 7.47293C15.6135 6.32995 13.8333 5.70758 11.9988 5.70758C10.1643 5.70758 8.38414 6.32995 6.94926 7.47293C5.51437 8.61591 4.50971 10.2119 4.09952 11.9999C4.50821 13.7893 5.51223 15.3871 6.94725 16.5316C8.38227 17.676 10.1633 18.2995 11.9988 18.2999ZM11.9988 16.0499C10.9247 16.0499 9.89456 15.6232 9.13504 14.8637C8.37551 14.1042 7.94882 13.074 7.94882 11.9999C7.94882 10.9258 8.37551 9.89564 9.13504 9.13612C9.89456 8.3766 10.9247 7.9499 11.9988 7.9499C13.0729 7.9499 14.1031 8.3766 14.8626 9.13612C15.6221 9.89564 16.0488 10.9258 16.0488 11.9999C16.0488 13.074 15.6221 14.1042 14.8626 14.8637C14.1031 15.6232 13.0729 16.0499 11.9988 16.0499ZM11.9988 14.2499C12.5956 14.2499 13.1679 14.0128 13.5898 13.5909C14.0118 13.1689 14.2488 12.5966 14.2488 11.9999C14.2488 11.4032 14.0118 10.8309 13.5898 10.4089C13.1679 9.98696 12.5956 9.7499 11.9988 9.7499C11.4021 9.7499 10.8298 9.98696 10.4078 10.4089C9.98587 10.8309 9.74882 11.4032 9.74882 11.9999C9.74882 12.5966 9.98587 13.1689 10.4078 13.5909C10.8298 14.0128 11.4021 14.2499 11.9988 14.2499Z" fill="#525866"/>
</svg>
