<svg width="42" height="42" viewBox="0 0 42 42" fill="none" xmlns="http://www.w3.org/2000/svg">
<path d="M21.7335 10.7334H1.20013C0.795121 10.7334 0.466797 11.0617 0.466797 11.4667V12.2001C0.466797 12.6051 0.795121 12.9334 1.20013 12.9334H21.7335C22.1385 12.9334 22.4668 12.6051 22.4668 12.2001V11.4667C22.4668 11.0617 22.1385 10.7334 21.7335 10.7334Z" fill="url(#paint0_linear_1079_6900)"/>
<path d="M20.0161 8.20534C19.9556 8.08323 19.8621 7.9805 19.7463 7.90882C19.6304 7.83714 19.4967 7.79937 19.3605 7.79981H3.57325C3.437 7.79937 3.30334 7.83714 3.18746 7.90882C3.07158 7.9805 2.97811 8.08323 2.91765 8.20534L2.38672 9.26648H20.547L20.0161 8.20534ZM5.43885 41.5331H15.6659C15.0384 40.9845 14.5355 40.3081 14.1907 39.5493C13.8459 38.7904 13.6673 37.9666 13.6669 37.1331V36.3998C13.668 36.0794 13.7395 35.7632 13.8763 35.4735C14.0132 35.1838 14.2121 34.9277 14.4589 34.7234C13.9486 34.1835 13.6651 33.4683 13.6669 32.7254C13.6686 31.9825 13.9556 31.2686 14.4684 30.7311C14.2443 30.5513 14.0587 30.3283 13.9224 30.0753C13.7861 29.8224 13.7019 29.5447 13.6749 29.2586C13.6495 28.9585 13.6868 28.6564 13.7844 28.3715C13.882 28.0865 14.0378 27.825 14.2418 27.6035C13.8736 27.2021 13.6686 26.6778 13.6669 26.1331C13.6705 24.0339 14.3664 21.9944 15.6467 20.3308C16.927 18.6672 18.7203 17.4723 20.7487 16.9313L20.9423 14.3998H1.99219L3.97732 40.1787C4.00707 40.5464 4.17374 40.8897 4.44437 41.1405C4.715 41.3913 5.06988 41.5314 5.43885 41.5331Z" fill="url(#paint1_linear_1079_6900)"/>
<path d="M41.5343 36.3998C41.5343 36.2053 41.457 36.0188 41.3195 35.8813C41.182 35.7437 40.9954 35.6665 40.801 35.6665H15.8676C15.6731 35.6665 15.4866 35.7437 15.3491 35.8813C15.2116 36.0188 15.1343 36.2053 15.1343 36.3998V37.1331C15.1355 38.2997 15.5994 39.4182 16.4243 40.2431C17.2492 41.068 18.3677 41.532 19.5343 41.5331H37.1343C38.3009 41.532 39.4194 41.068 40.2443 40.2431C41.0692 39.4182 41.5331 38.2997 41.5343 37.1331V36.3998ZM12.201 6.33314V2.37314C12.2009 2.21387 12.149 2.05895 12.053 1.93181C11.9571 1.80467 11.8224 1.7122 11.6693 1.66841L7.50762 0.477472C7.43782 0.458534 7.36339 0.467548 7.30013 0.502601C7.23687 0.537654 7.18977 0.595984 7.16882 0.665206L6.91656 1.54887C6.89686 1.61879 6.90562 1.69366 6.94093 1.75713C6.97624 1.82061 7.03523 1.86754 7.10502 1.88767L10.2063 2.77354C10.3587 2.818 10.4926 2.91075 10.5878 3.03783C10.6831 3.16492 10.7344 3.31948 10.7343 3.47827V6.33314H12.201ZM40.0676 31.2665H37.8075C37.5379 31.2669 37.2764 31.3584 37.0654 31.5261L35.1206 33.0793C34.808 33.3305 34.419 33.4674 34.018 33.4674C33.617 33.4674 33.228 33.3305 32.9154 33.0793L30.9699 31.5253C30.7587 31.3579 30.4972 31.2667 30.2278 31.2665H16.601C16.212 31.2665 15.8389 31.421 15.5639 31.6961C15.2888 31.9711 15.1343 32.3442 15.1343 32.7331C15.1343 33.1221 15.2888 33.4952 15.5639 33.7702C15.8389 34.0453 16.212 34.1998 16.601 34.1998H40.0676C40.4566 34.1998 40.8297 34.0453 41.1047 33.7702C41.3798 33.4952 41.5343 33.1221 41.5343 32.7331C41.5343 32.3442 41.3798 31.9711 41.1047 31.6961C40.8297 31.421 40.4566 31.2665 40.0676 31.2665ZM33.4676 18.0665H23.201C21.0623 18.069 19.012 18.9197 17.4997 20.4319C15.9875 21.9442 15.1368 23.9945 15.1343 26.1331C15.1343 26.3276 15.2116 26.5142 15.3491 26.6517C15.4866 26.7892 15.6731 26.8665 15.8676 26.8665H40.801C40.9954 26.8665 41.182 26.7892 41.3195 26.6517C41.457 26.5142 41.5343 26.3276 41.5343 26.1331C41.5318 23.9945 40.6811 21.9442 39.1688 20.4319C37.6566 18.9197 35.6063 18.069 33.4676 18.0665ZM23.201 23.9331H22.4676C22.2731 23.9331 22.0866 23.8559 21.9491 23.7184C21.8116 23.5808 21.7343 23.3943 21.7343 23.1998C21.7343 23.0053 21.8116 22.8188 21.9491 22.6813C22.0866 22.5437 22.2731 22.4665 22.4676 22.4665H23.201C23.3954 22.4665 23.582 22.5437 23.7195 22.6813C23.857 22.8188 23.9343 23.0053 23.9343 23.1998C23.9343 23.3943 23.857 23.5808 23.7195 23.7184C23.582 23.8559 23.3954 23.9331 23.201 23.9331ZM25.401 20.9998H24.6676C24.4731 20.9998 24.2866 20.9225 24.1491 20.785C24.0116 20.6475 23.9343 20.461 23.9343 20.2665C23.9343 20.072 24.0116 19.8855 24.1491 19.7479C24.2866 19.6104 24.4731 19.5331 24.6676 19.5331H25.401C25.5954 19.5331 25.782 19.6104 25.9195 19.7479C26.057 19.8855 26.1343 20.072 26.1343 20.2665C26.1343 20.461 26.057 20.6475 25.9195 20.785C25.782 20.9225 25.5954 20.9998 25.401 20.9998ZM29.801 23.1998H29.0676C28.8731 23.1998 28.6866 23.1225 28.5491 22.985C28.4116 22.8475 28.3343 22.661 28.3343 22.4665C28.3343 22.272 28.4116 22.0855 28.5491 21.9479C28.6866 21.8104 28.8731 21.7331 29.0676 21.7331H29.801C29.9954 21.7331 30.182 21.8104 30.3195 21.9479C30.457 22.0855 30.5343 22.272 30.5343 22.4665C30.5343 22.661 30.457 22.8475 30.3195 22.985C30.182 23.1225 29.9954 23.1998 29.801 23.1998Z" fill="url(#paint2_linear_1079_6900)"/>
<path d="M15.8671 28.3334C15.7726 28.3327 15.6788 28.351 15.5914 28.3871C15.5039 28.4233 15.4247 28.4766 15.3582 28.5439C15.279 28.6192 15.218 28.7116 15.1799 28.814C15.1418 28.9164 15.1275 29.0262 15.1382 29.135C15.1693 29.3255 15.2689 29.4982 15.4182 29.6207C15.5675 29.7431 15.7563 29.8069 15.9493 29.8001H30.2273C30.8295 29.801 31.4136 30.0057 31.8846 30.3809L33.8294 31.9334C33.8828 31.976 33.9492 31.9993 34.0175 31.9993C34.0859 31.9993 34.1522 31.976 34.2056 31.9334L36.1497 30.3816C36.6206 30.0062 37.2047 29.8012 37.807 29.8001H40.8005C40.895 29.801 40.9887 29.7828 41.076 29.7466C41.1633 29.7104 41.2425 29.6571 41.3087 29.5896C41.3873 29.5148 41.4479 29.4232 41.4861 29.3216C41.5242 29.22 41.5387 29.111 41.5287 29.003C41.4984 28.8118 41.3993 28.6382 41.2501 28.515C41.1009 28.3917 40.9118 28.3271 40.7183 28.3334H15.8671Z" fill="url(#paint3_linear_1079_6900)"/>
<defs>
<linearGradient id="paint0_linear_1079_6900" x1="0.466454" y1="12.9334" x2="0.902098" y2="8.57693" gradientUnits="userSpaceOnUse">
<stop stop-color="#6941C6"/>
<stop offset="1" stop-color="#7F56D9"/>
</linearGradient>
<linearGradient id="paint1_linear_1079_6900" x1="1.99189" y1="41.5329" x2="30.8008" y2="25.3492" gradientUnits="userSpaceOnUse">
<stop stop-color="#6941C6"/>
<stop offset="1" stop-color="#7F56D9"/>
</linearGradient>
<linearGradient id="paint2_linear_1079_6900" x1="6.90571" y1="41.5329" x2="47.3815" y2="7.40193" gradientUnits="userSpaceOnUse">
<stop stop-color="#6941C6"/>
<stop offset="1" stop-color="#7F56D9"/>
</linearGradient>
<linearGradient id="paint3_linear_1079_6900" x1="15.1344" y1="31.9992" x2="16.1335" y2="24.8055" gradientUnits="userSpaceOnUse">
<stop stop-color="#6941C6"/>
<stop offset="1" stop-color="#7F56D9"/>
</linearGradient>
</defs>
</svg>
