<svg width="84" height="43" viewBox="0 0 84 43" fill="none" xmlns="http://www.w3.org/2000/svg">
<g clip-path="url(#clip0_552_7283)">
<path d="M83.5545 42.1249C83.5545 41.2496 83.5268 40.3744 83.4715 39.5008L71.3102 40.2707C71.3493 40.888 71.3688 41.5064 71.3688 42.1249H83.5545Z" fill="#D9D9D9"/>
<path d="M83.5545 42.1249C83.5545 41.2496 83.5268 40.3744 83.4715 39.5008L71.3102 40.2707C71.3493 40.888 71.3688 41.5064 71.3688 42.1249H83.5545Z" fill="#D9D9D9"/>
<path d="M83.3914 38.453C83.314 37.5811 83.209 36.7118 83.0767 35.8465L71.031 37.6886C71.1245 38.3 71.1987 38.9142 71.2534 39.5303L83.3914 38.453Z" fill="#D9D9D9"/>
<path d="M82.9089 34.8096C82.7548 33.9479 82.5734 33.0913 82.3651 32.2411L70.5294 35.1408C70.6766 35.7416 70.8048 36.3469 70.9137 36.9557L82.9089 34.8096Z" fill="#D9D9D9"/>
<path d="M82.1019 31.2237C81.8722 30.3791 81.6158 29.5419 81.3331 28.7134L69.8002 32.6481C69.9999 33.2335 70.181 33.8251 70.3434 34.4219L82.1019 31.2237Z" fill="#D9D9D9"/>
<path d="M80.9842 27.7233C80.6807 26.9022 80.3513 26.091 79.9965 25.2907L68.8565 30.2296C69.1072 30.7951 69.34 31.3683 69.5544 31.9485L80.9842 27.7233Z" fill="#D9D9D9"/>
<path d="M79.5595 24.3347C79.1846 23.5437 78.7848 22.7647 78.3607 21.999L67.7009 27.9034C68.0006 28.4445 68.2832 28.9949 68.5481 29.5538L79.5595 24.3347Z" fill="#D9D9D9"/>
<path d="M77.8414 21.0861C77.398 20.3313 76.9309 19.5908 76.4407 18.8655L66.3447 25.6892C66.691 26.2016 67.0211 26.7249 67.3344 27.2582L77.8414 21.0861Z" fill="#D9D9D9"/>
<path d="M75.8429 18.0013C75.3345 17.2887 74.8037 16.5923 74.2514 15.9132L64.7981 23.6027C65.1885 24.0826 65.5635 24.5746 65.9227 25.0781L75.8429 18.0013Z" fill="#D9D9D9"/>
<path d="M73.579 15.1056C73.0097 14.4407 72.4194 13.794 71.8092 13.1665L63.0728 21.6616C63.504 22.105 63.921 22.562 64.3234 23.0318L73.579 15.1056Z" fill="#D9D9D9"/>
<path d="M71.0666 12.4217C70.4407 11.8098 69.7956 11.2178 69.1322 10.6466L61.181 19.8808C61.6498 20.2844 62.1056 20.7027 62.5479 21.1351L71.0666 12.4217Z" fill="#D9D9D9"/>
<path d="M68.3297 9.97016C67.6521 9.41596 66.9572 8.88331 66.246 8.37303L59.1423 18.274C59.6449 18.6346 60.1359 19.0109 60.6147 19.4025L68.3297 9.97016Z" fill="#D9D9D9"/>
<path d="M65.3843 7.77034C64.6604 7.2782 63.9211 6.80908 63.1676 6.36367L56.967 16.8539C57.4995 17.1686 58.0218 17.5001 58.5334 17.8478L65.3843 7.77034Z" fill="#D9D9D9"/>
<path d="M62.2554 5.83918C61.4908 5.41298 60.7129 5.01105 59.9229 4.634L54.674 15.6313C55.2323 15.8977 55.7819 16.1817 56.3222 16.4829L62.2554 5.83918Z" fill="#D9D9D9"/>
<path d="M58.9709 4.19188C58.1717 3.83493 57.3613 3.50334 56.5411 3.19761L52.285 14.6159C52.8645 14.8319 53.4371 15.0662 54.0019 15.3184L58.9709 4.19188Z" fill="#D9D9D9"/>
<path d="M55.5539 2.84184C54.7262 2.55696 53.8897 2.29831 53.0457 2.06628L49.8157 13.8161C50.4121 13.9801 51.0032 14.1628 51.588 14.3641L55.5539 2.84184Z" fill="#D9D9D9"/>
<path d="M52.0278 1.79939C51.1782 1.58879 50.3221 1.4051 49.4608 1.2486L47.2822 13.238C47.8908 13.3486 48.4957 13.4784 49.0961 13.6272L52.0278 1.79939Z" fill="#D9D9D9"/>
<path d="M48.426 1.07277C47.5611 0.938108 46.6921 0.830824 45.8204 0.751079L44.7102 12.8861C45.3262 12.9425 45.9402 13.0183 46.5514 13.1134L48.426 1.07277Z" fill="#D9D9D9"/>
<path d="M44.7719 0.667393C43.8984 0.609725 43.0234 0.579683 42.148 0.577316L42.115 12.763C42.7336 12.7647 43.3519 12.7859 43.9691 12.8266L44.7719 0.667393Z" fill="#D9D9D9"/>
<path d="M41.098 0.586461C40.2229 0.606237 39.3486 0.653673 38.4764 0.728701L39.5209 12.8696C40.1371 12.8166 40.7549 12.783 41.3733 12.7691L41.098 0.586461Z" fill="#D9D9D9"/>
<path d="M37.43 0.830695C36.5601 0.92776 35.6934 1.0523 34.8313 1.20414L36.945 13.2051C37.5542 13.0978 38.1666 13.0098 38.7813 12.9413L37.43 0.830695Z" fill="#D9D9D9"/>
<path d="M33.7981 1.39811C32.9401 1.57171 32.0879 1.77238 31.2426 1.99984L34.4089 13.767C35.0062 13.6063 35.6084 13.4645 36.2147 13.3418L33.7981 1.39811Z" fill="#D9D9D9"/>
<path d="M30.2303 2.28481C29.391 2.53357 28.5598 2.8088 27.738 3.11009L31.9322 14.5512C32.5129 14.3383 33.1003 14.1439 33.6933 13.9681L30.2303 2.28481Z" fill="#D9D9D9"/>
<path d="M26.7542 3.48283C25.9402 3.80482 25.1366 4.15245 24.3446 4.52522L29.5339 15.5508C30.0936 15.2874 30.6614 15.0417 31.2365 14.8142L26.7542 3.48283Z" fill="#D9D9D9"/>
<path d="M23.3986 4.98401C22.6162 5.37669 21.8465 5.79401 21.0906 6.23534L27.2343 16.759C27.7684 16.4471 28.3123 16.1522 28.8651 15.8747L23.3986 4.98401Z" fill="#D9D9D9"/>
<path d="M20.1906 6.77545C19.446 7.23576 18.7162 7.7195 18.0022 8.22593L25.0522 18.1652C25.5567 17.8073 26.0724 17.4655 26.5985 17.1403L20.1906 6.77545Z" fill="#D9D9D9"/>
<path d="M17.1515 8.84397C16.4505 9.3683 15.7664 9.91466 15.0999 10.4822L23.001 19.7593C23.4719 19.3583 23.9554 18.9722 24.4507 18.6017L17.1515 8.84397Z" fill="#369A3F"/>
<path d="M14.308 11.1726C13.6562 11.7569 13.023 12.3616 12.4093 12.9859L21.0996 21.5281C21.5332 21.087 21.9807 20.6597 22.4413 20.2469L14.308 11.1726Z" fill="#369A3F"/>
<path d="M11.678 13.7443C11.0804 14.3839 10.5031 15.0422 9.94706 15.7183L19.3585 23.4588C19.7514 22.9811 20.1593 22.5159 20.5816 22.064L11.678 13.7443Z" fill="#369A3F"/>
<path d="M9.2895 16.5378C8.75075 17.2277 8.23394 17.9345 7.73985 18.6571L17.7988 25.5353C18.1479 25.0247 18.5131 24.5253 18.8938 24.0378L9.2895 16.5378Z" fill="#369A3F"/>
<path d="M7.15688 19.5315C6.68123 20.2663 6.22893 21.016 5.80065 21.7794L16.4283 27.7414C16.7309 27.202 17.0505 26.6722 17.3866 26.153L7.15688 19.5315Z" fill="#369A3F"/>
<path d="M5.29596 22.7019C4.88713 23.4759 4.50288 24.2627 4.14377 25.061L15.2568 30.0601C15.5106 29.496 15.7821 28.9401 16.071 28.3932L5.29596 22.7019Z" fill="#369A3F"/>
<path d="M3.7216 26.0248C3.38281 26.832 3.06961 27.6496 2.78248 28.4765L14.294 32.4736C14.4969 31.8893 14.7182 31.3115 14.9576 30.7412L3.7216 26.0248Z" fill="#369A3F"/>
<path d="M2.44929 29.4736C2.18318 30.3076 1.94349 31.1497 1.7306 31.9987L13.5504 34.9625C13.7008 34.3625 13.8702 33.7675 14.0582 33.1782L2.44929 29.4736Z" fill="#369A3F"/>
<path d="M1.48884 33.0214C1.29749 33.8756 1.13319 34.7356 0.996188 35.6001L13.0317 37.5073C13.1285 36.8964 13.2446 36.2887 13.3798 35.6851L1.48884 33.0214Z" fill="#369A3F"/>
<path d="M0.844004 36.6405C0.728918 37.5083 0.641293 38.3794 0.581262 39.2527L12.7383 40.0884C12.7807 39.4714 12.8426 38.8558 12.9239 38.2426L0.844004 36.6405Z" fill="#369A3F"/>
<path d="M0.521972 40.3024C0.484052 41.1769 0.473787 42.0524 0.491195 42.9276L12.6745 42.6853C12.6622 42.0668 12.6694 41.4482 12.6962 40.8303L0.521972 40.3024Z" fill="#369A3F"/>
<path d="M32.8435 31.55C32.756 31.2755 32.6384 31.0297 32.4906 30.8125C32.3458 30.5923 32.1724 30.4053 31.9703 30.2515C31.7682 30.0946 31.5375 29.9755 31.2781 29.894C31.0217 29.8126 30.7397 29.7719 30.432 29.7719C29.9102 29.7719 29.4396 29.9061 29.0204 30.1746C28.6011 30.443 28.2693 30.8366 28.025 31.3554C27.7837 31.8712 27.6631 32.5031 27.6631 33.2512C27.6631 34.0022 27.7852 34.6371 28.0295 35.1559C28.2739 35.6747 28.6087 36.0684 29.034 36.3368C29.4593 36.6052 29.9434 36.7395 30.4863 36.7395C30.99 36.7395 31.4289 36.6369 31.8029 36.4318C32.1799 36.2267 32.471 35.9371 32.6761 35.5631C32.8842 35.1861 32.9883 34.7427 32.9883 34.2329L33.3502 34.3008H30.6989V33.1471H34.3411V34.2013C34.3411 34.9795 34.1752 35.6551 33.8434 36.2282C33.5146 36.7983 33.0592 37.2387 32.477 37.5493C31.8979 37.86 31.2343 38.0154 30.4863 38.0154C29.6478 38.0154 28.9118 37.8223 28.2784 37.4362C27.648 37.0501 27.1563 36.5027 26.8034 35.7939C26.4505 35.082 26.2741 34.2375 26.2741 33.2602C26.2741 32.5212 26.3766 31.8576 26.5817 31.2695C26.7868 30.6813 27.0749 30.1821 27.4459 29.7719C27.8199 29.3586 28.2588 29.0434 28.7625 28.8263C29.2692 28.6061 29.8227 28.496 30.423 28.496C30.9237 28.496 31.3897 28.5699 31.821 28.7177C32.2553 28.8655 32.6414 29.0751 32.9792 29.3466C33.3201 29.618 33.6021 29.9408 33.8253 30.3148C34.0485 30.6858 34.1993 31.0975 34.2778 31.55H32.8435ZM38.7944 38.0289C38.1428 38.0289 37.5743 37.8796 37.0887 37.581C36.603 37.2824 36.226 36.8646 35.9575 36.3278C35.6891 35.7909 35.5549 35.1635 35.5549 34.4456C35.5549 33.7247 35.6891 33.0943 35.9575 32.5544C36.226 32.0145 36.603 31.5952 37.0887 31.2966C37.5743 30.998 38.1428 30.8487 38.7944 30.8487C39.4459 30.8487 40.0144 30.998 40.5001 31.2966C40.9857 31.5952 41.3627 32.0145 41.6312 32.5544C41.8996 33.0943 42.0338 33.7247 42.0338 34.4456C42.0338 35.1635 41.8996 35.7909 41.6312 36.3278C41.3627 36.8646 40.9857 37.2824 40.5001 37.581C40.0144 37.8796 39.4459 38.0289 38.7944 38.0289ZM38.7989 36.8933C39.2212 36.8933 39.571 36.7817 39.8485 36.5585C40.126 36.3353 40.3311 36.0382 40.4639 35.6672C40.5996 35.2962 40.6675 34.8875 40.6675 34.4411C40.6675 33.9977 40.5996 33.5905 40.4639 33.2195C40.3311 32.8455 40.126 32.5453 39.8485 32.3191C39.571 32.0929 39.2212 31.9798 38.7989 31.9798C38.3736 31.9798 38.0207 32.0929 37.7402 32.3191C37.4627 32.5453 37.2561 32.8455 37.1203 33.2195C36.9876 33.5905 36.9212 33.9977 36.9212 34.4411C36.9212 34.8875 36.9876 35.2962 37.1203 35.6672C37.2561 36.0382 37.4627 36.3353 37.7402 36.5585C38.0207 36.7817 38.3736 36.8933 38.7989 36.8933ZM46.331 38.0289C45.6795 38.0289 45.1109 37.8796 44.6253 37.581C44.1397 37.2824 43.7626 36.8646 43.4942 36.3278C43.2257 35.7909 43.0915 35.1635 43.0915 34.4456C43.0915 33.7247 43.2257 33.0943 43.4942 32.5544C43.7626 32.0145 44.1397 31.5952 44.6253 31.2966C45.1109 30.998 45.6795 30.8487 46.331 30.8487C46.9825 30.8487 47.5511 30.998 48.0367 31.2966C48.5223 31.5952 48.8994 32.0145 49.1678 32.5544C49.4363 33.0943 49.5705 33.7247 49.5705 34.4456C49.5705 35.1635 49.4363 35.7909 49.1678 36.3278C48.8994 36.8646 48.5223 37.2824 48.0367 37.581C47.5511 37.8796 46.9825 38.0289 46.331 38.0289ZM46.3355 36.8933C46.7578 36.8933 47.1077 36.7817 47.3852 36.5585C47.6627 36.3353 47.8678 36.0382 48.0005 35.6672C48.1362 35.2962 48.2041 34.8875 48.2041 34.4411C48.2041 33.9977 48.1362 33.5905 48.0005 33.2195C47.8678 32.8455 47.6627 32.5453 47.3852 32.3191C47.1077 32.0929 46.7578 31.9798 46.3355 31.9798C45.9102 31.9798 45.5573 32.0929 45.2768 32.3191C44.9993 32.5453 44.7927 32.8455 44.657 33.2195C44.5243 33.5905 44.4579 33.9977 44.4579 34.4411C44.4579 34.8875 44.5243 35.2962 44.657 35.6672C44.7927 36.0382 44.9993 36.3353 45.2768 36.5585C45.5573 36.7817 45.9102 36.8933 46.3355 36.8933ZM53.5419 38.0244C52.9809 38.0244 52.4802 37.8811 52.0398 37.5946C51.6024 37.305 51.2586 36.8933 51.0082 36.3594C50.7609 35.8225 50.6372 35.1785 50.6372 34.4275C50.6372 33.6764 50.7624 33.034 51.0127 32.5001C51.2661 31.9662 51.613 31.5575 52.0534 31.274C52.4937 30.9905 52.9929 30.8487 53.5509 30.8487C53.9823 30.8487 54.3291 30.9211 54.5916 31.0659C54.857 31.2076 55.0621 31.3735 55.2069 31.5635C55.3547 31.7536 55.4693 31.921 55.5507 32.0658H55.6322V28.6227H56.985V37.8887H55.6638V36.8073H55.5507C55.4693 36.9551 55.3517 37.124 55.1978 37.3141C55.047 37.5041 54.8389 37.67 54.5735 37.8118C54.308 37.9535 53.9642 38.0244 53.5419 38.0244ZM53.8405 36.8707C54.2296 36.8707 54.5584 36.7681 54.8268 36.563C55.0983 36.3549 55.3034 36.0668 55.4421 35.6989C55.5839 35.3309 55.6548 34.9026 55.6548 34.4139C55.6548 33.9313 55.5854 33.509 55.4467 33.1471C55.3079 32.7851 55.1043 32.5031 54.8359 32.301C54.5674 32.0989 54.2356 31.9979 53.8405 31.9979C53.4333 31.9979 53.094 32.1035 52.8225 32.3146C52.551 32.5257 52.3459 32.8138 52.2072 33.1788C52.0715 33.5437 52.0036 33.9555 52.0036 34.4139C52.0036 34.8784 52.073 35.2962 52.2117 35.6672C52.3505 36.0382 52.5556 36.3323 52.827 36.5494C53.1015 36.7636 53.4393 36.8707 53.8405 36.8707Z" fill="#0E121B"/>
</g>
<defs>
<clipPath id="clip0_552_7283">
<rect width="83.0682" height="43" fill="white" transform="translate(0.5)"/>
</clipPath>
</defs>
</svg>
