<svg width="39" height="36" viewBox="0 0 39 36" fill="none" xmlns="http://www.w3.org/2000/svg">
<g opacity="0.35">
<path fill-rule="evenodd" clip-rule="evenodd" d="M23.5646 4.11982C21.2584 1.71414 15.1308 -2.17271 9.07093 1.52527C3.01101 5.22325 4.04088 12.6093 5.3133 15.84C3.88181 14.7963 3.46436 12.3806 3.46436 12.3806C1.62531 13.156 -1.4802 15.7923 0.81016 20.1345C1.59546 21.2876 4.06671 23.0869 7.66925 21.059C7.60878 21.259 7.57186 21.6259 7.52543 22.0875C7.47264 22.6122 7.40755 23.2591 7.28156 23.9219C6.75016 26.7175 5.32378 28.1707 4.15341 29.363C3.8131 29.7097 3.49444 30.0344 3.22571 30.3636C3.15613 30.4828 3.12432 30.6976 3.55376 30.6021C4.09056 30.4828 7.52014 27.2024 8.11659 24.9955C8.32982 24.2066 8.43251 23.5206 8.5296 22.872C8.70408 21.7065 8.86043 20.662 9.60771 19.3591C9.64747 19.2796 9.67929 19.1265 9.48842 19.1503C9.24984 19.1802 8.59375 18.9714 8.35517 18.6732C8.11659 18.3749 7.57979 17.0031 7.43068 16.526C7.28156 16.0488 6.86405 15.2436 6.59565 15.0945C6.32725 14.9454 5.31328 12.8578 7.1921 11.6649C7.54002 11.4561 8.4685 11.1162 9.39895 11.4263C9.76742 11.5491 10.1 11.7258 10.4554 11.9147C11.2219 12.322 12.0947 12.7858 13.6636 12.8876L14.6775 12.9771C14.9062 12.987 15.429 13.0129 15.4529 13.5139C15.4827 14.1402 16.0195 16.7049 17.2124 17.4803C18.0367 18.0161 20.8806 19.6275 23.1173 12.9771H24.0418C23.9722 13.9016 24.0239 15.9235 24.7873 16.6154C25.7416 17.4803 27.4415 17.689 28.7835 15.1541L29.7378 13.2157C29.9168 12.818 30.3224 11.9572 30.5132 11.6947C30.7041 11.4323 30.4536 11.3468 30.3045 11.3369C29.9923 11.3078 29.4294 11.183 29.0141 11.091C28.8608 11.057 28.7275 11.0274 28.6344 11.0088C27.5906 10.8001 25.7466 10.7404 24.3102 12.2017H22.9682C21.9641 11.7245 19.5326 10.9134 17.8387 11.486C16.1448 12.0586 12.9578 11.6649 11.576 11.3965C11.7299 11.2961 11.8834 11.1974 12.0379 11.098C13.0615 10.4401 14.129 9.75377 15.6318 8.35462C16.3042 7.72859 19.9859 4.7461 22.5208 4.4777C22.5606 4.46776 22.6103 4.44192 22.491 4.41806C22.3419 4.38823 19.1211 4.62681 14.6775 7.6687C13.4846 8.39438 10.9378 9.78609 10.2936 9.54751C10.2539 9.51769 10.2101 9.44015 10.3533 9.36858C10.369 9.36071 10.3919 9.35008 10.423 9.33562C10.7456 9.18568 11.9529 8.62462 15.2441 6.4758C18.9137 4.07993 21.6072 4.10357 23.228 4.1178C23.3459 4.11883 23.4581 4.11982 23.5646 4.11982ZM24.5198 13.5434C24.4601 14.3784 24.5794 15.9888 25.5338 16.5555C25.7624 16.7046 26.4881 16.9133 27.174 16.4063C27.4523 16.1777 28.1283 15.4818 28.6055 14.5275C28.9184 13.9017 29.1082 13.3744 29.2609 12.9499C29.3994 12.5652 29.5075 12.2649 29.6492 12.0523C29.6791 11.9926 29.7029 11.8733 29.5598 11.8733C29.482 11.8733 29.2744 11.7948 29.0328 11.7035L29.0327 11.7035C28.7188 11.5847 28.3473 11.4442 28.1283 11.426C28.0969 11.4234 28.0627 11.4196 28.0255 11.4155L28.0254 11.4155C27.638 11.3728 26.9158 11.2932 25.4741 12.0821C25.4542 12.102 25.4324 12.1417 25.5039 12.1417C25.5934 12.1417 26.4583 12.2014 27.0547 13.0066C26.8459 13.0961 26.3747 13.3168 26.16 13.4838C25.8618 13.7025 25.2534 13.9728 25.2057 13.3048C25.2057 13.2154 25.2534 13.0006 25.4443 12.8575C25.1858 12.8873 24.6391 13.0662 24.5198 13.5434ZM15.9608 12.44C15.921 13.5335 16.1815 15.9829 17.5414 17.0326C18.9013 18.0824 20.295 17.0326 20.8218 16.3765C21.2493 15.8397 22.2056 14.3963 22.6112 12.9171C22.6211 12.8376 22.6112 12.6666 22.4919 12.6189C22.4775 12.6132 22.4494 12.5992 22.4086 12.5788C22.0242 12.3874 20.5105 11.6336 18.7044 11.9032C19.3903 12.0125 20.8516 12.44 21.2095 13.275C21.2294 13.3048 21.2453 13.3704 21.1499 13.3943C21.134 13.3983 21.1069 13.4033 21.0711 13.41C20.8386 13.4533 20.2373 13.5653 19.9271 13.9013C19.6985 14.0603 19.1339 14.3247 18.7044 14.11C18.4658 13.9609 18.275 13.442 18.943 13.1557C18.4062 13.1358 17.6308 13.3346 18.0782 14.2293C17.5016 14.2691 16.3783 13.9669 16.259 12.44C16.1993 12.3207 16.0562 12.1537 15.9608 12.44Z" fill="black"/>
<path d="M8.77166 15.7209C7.00617 14.9813 7.3203 13.5439 7.69805 12.9176C7.9366 12.4643 8.51318 12.4504 8.77166 12.5001C9.36807 12.7387 9.37806 13.4942 9.3085 13.8421C9.21904 14.4684 9.75584 15.6911 9.87513 15.8104C9.97056 15.9058 9.91489 15.9297 9.87513 15.9297C9.39797 15.882 8.94067 15.7706 8.77166 15.7209Z" fill="black" stroke="black" stroke-width="0.0596448"/>
<circle cx="9.54897" cy="17.629" r="0.894672" fill="black"/>
<path d="M18.6742 9.81604C17.9435 9.93782 16.3679 10.2137 15.6621 10.2932C15.8709 10.3528 16.4673 10.7107 19.6285 10.502C21.0284 10.4095 21.6862 11.1282 22.0441 11.2475C22.3304 11.343 22.3224 11.2078 22.2827 11.1282C21.7459 9.81604 19.9267 9.60727 18.6742 9.81604Z" fill="black" stroke="black" stroke-width="0.0596448"/>
<path d="M24.3113 10.979C24.2397 11.2415 24.4206 11.2276 24.52 11.1878C24.6194 11.148 25.1164 10.7405 25.7725 10.5913C26.4286 10.4422 26.9833 10.3349 27.0549 10.2633C27.1265 10.1917 27.0847 10.1738 27.0549 10.1738L26.0111 10.2633C25.1761 10.3229 24.4007 10.651 24.3113 10.979Z" fill="black" stroke="black" stroke-width="0.0596448"/>
<path d="M10.8907 19.389C10.8668 19.055 11.0597 19.1902 11.1591 19.2995C13.4853 23.5045 20.3742 24.936 20.6724 25.0553C20.911 25.1507 20.8315 25.2143 20.7619 25.2342C16.4078 26.278 17.9884 32.988 17.9287 33.167C17.881 33.3101 17.7498 33.2863 17.6902 33.2564C16.8074 32.5646 15.4336 31.1788 14.857 30.5724C10.9205 26.3675 10.9205 19.8065 10.8907 19.389Z" fill="black"/>
<path d="M24.0722 17.6295C23.5272 17.5614 23.1278 17.7985 22.9986 17.8979C23.4459 17.7488 24.0188 18.3653 24.4002 18.4347C24.7283 18.4944 24.8177 18.375 24.8774 18.2259C24.937 18.0768 24.8774 17.5877 24.8774 17.4207C24.8774 17.2537 24.7283 17.3909 24.7283 17.3909C24.7283 17.3909 24.5493 17.6891 24.0722 17.6295Z" fill="black"/>
<path d="M10.8907 19.389C10.8668 19.055 11.0597 19.1902 11.1591 19.2995C13.4853 23.5045 20.3742 24.936 20.6724 25.0553C20.911 25.1507 20.8315 25.2143 20.7619 25.2342C16.4078 26.278 17.9884 32.988 17.9287 33.167C17.881 33.3101 17.7498 33.2863 17.6902 33.2564C16.8074 32.5646 15.4336 31.1788 14.857 30.5724C10.9205 26.3675 10.9205 19.8065 10.8907 19.389Z" stroke="black" stroke-width="0.0596448"/>
<path d="M24.0722 17.6295C23.5272 17.5614 23.1278 17.7985 22.9986 17.8979C23.4459 17.7488 24.0188 18.3653 24.4002 18.4347C24.7283 18.4944 24.8177 18.375 24.8774 18.2259C24.937 18.0768 24.8774 17.5877 24.8774 17.4207C24.8774 17.2537 24.7283 17.3909 24.7283 17.3909C24.7283 17.3909 24.5493 17.6891 24.0722 17.6295Z" stroke="black" stroke-width="0.0596448"/>
<path d="M27.7697 22.7589L29.9169 26.3376L29.738 26.427L28.5451 25.7411C27.7498 24.6576 26.1116 22.3951 25.9207 22.0133C25.7299 21.6316 26.0599 21.5163 26.2488 21.5063L36.0902 21.6256C34.1219 24.9657 31.2888 22.9378 29.8871 22.7589C28.7658 22.6157 28.0083 22.6992 27.7697 22.7589Z" fill="url(#paint0_linear_552_5348)"/>
<path d="M33.1953 19.4598C34.5283 18.1528 36.5869 18.0909 37.7939 19.3211C39.001 20.5516 38.8999 22.6092 37.5674 23.9168L33.1953 19.4598ZM37.5566 23.3953C37.8541 23.0335 38.0575 22.6276 38.1709 22.2107L35.9102 21.7166L37.5566 23.3953ZM36.2979 21.4969L38.2363 21.9197C38.2895 21.6045 38.2886 21.2875 38.2393 20.9812L36.2979 21.4969ZM35.0244 18.8621C34.5662 18.9588 34.1161 19.1629 33.7158 19.4793L35.4365 21.2342L35.0244 18.8621ZM36.3154 21.1834L38.1777 20.6902C38.0795 20.3338 37.907 20.0014 37.6631 19.7127L36.3154 21.1834ZM35.3174 18.8152L35.7109 21.073L36.1826 18.8494C35.9014 18.7942 35.6097 18.7832 35.3174 18.8152ZM36.0146 21.0711L37.457 19.4959C37.1707 19.2286 36.8347 19.0356 36.4707 18.9217L36.0146 21.0711Z" fill="black"/>
<path d="M33.1953 19.4598C34.5283 18.1528 36.5869 18.0909 37.7939 19.3211C39.001 20.5516 38.8999 22.6092 37.5674 23.9168L33.1953 19.4598ZM37.5566 23.3953C37.8541 23.0335 38.0575 22.6276 38.1709 22.2107L35.9102 21.7166L37.5566 23.3953ZM36.2979 21.4969L38.2363 21.9197C38.2895 21.6045 38.2886 21.2875 38.2393 20.9812L36.2979 21.4969ZM35.0244 18.8621C34.5662 18.9588 34.1161 19.1629 33.7158 19.4793L35.4365 21.2342L35.0244 18.8621ZM36.3154 21.1834L38.1777 20.6902C38.0795 20.3338 37.907 20.0014 37.6631 19.7127L36.3154 21.1834ZM35.3174 18.8152L35.7109 21.073L36.1826 18.8494C35.9014 18.7942 35.6097 18.7832 35.3174 18.8152ZM36.0146 21.0711L37.457 19.4959C37.1707 19.2286 36.8347 19.0356 36.4707 18.9217L36.0146 21.0711Z" fill="#F86B1F"/>
<path d="M22.4006 20.0745C21.7564 20.5278 20.7206 20.7207 20.2832 20.7604C20.5934 20.7604 21.3568 21.506 21.834 21.8639C22.6094 22.3708 22.997 22.3649 23.7128 22.2217C24.4285 22.0786 25.184 20.7505 25.4723 20.1043C24.6075 19.657 24.3987 20.0447 24.2794 20.1043C24.184 20.152 24.0806 20.1043 24.0408 20.0745C23.7625 19.8856 23.0448 19.6212 22.4006 20.0745Z" fill="black" stroke="black" stroke-width="0.0596448"/>
<path d="M28.5745 25.7409C30.0776 25.6932 30.6522 27.6496 30.7516 28.6337C32.0041 27.7391 32.0339 25.9795 31.8848 24.5779C31.7357 23.1762 31.6462 21.8044 31.7953 21.5956C31.9146 21.4286 32.0041 21.526 32.0339 21.5956C32.0736 21.9336 32.3023 22.6394 32.5707 23.3551C32.8707 24.1552 33.1075 25.6515 33.1373 25.8602C33.1612 26.0272 33.2665 26.0093 33.3162 25.9795C33.7338 25.1743 33.7338 23.4446 33.4355 22.043C33.1373 20.6413 34.2109 19.8957 34.0618 20.2536C33.9425 20.5399 34.1115 21.3471 34.2109 21.7149C34.539 22.6394 34.6583 24.1007 34.6583 24.22C34.6583 24.3154 34.7577 24.3393 34.8074 24.3393C35.0937 24.2916 35.205 23.7229 35.2249 23.4446C35.2483 21.8308 35.885 21.0979 36.2191 20.9198C36.2283 20.8819 36.2348 20.8836 36.2388 20.9097C36.2324 20.9128 36.2258 20.9162 36.2191 20.9198C36.1826 21.0694 36.1037 21.8373 35.9704 24.1603C35.7617 27.7987 32.3918 30.6616 31.5865 31.7054C30.9424 32.5404 30.9404 33.783 31.0199 34.3C31.0199 34.3 27.8887 35.9998 27.4711 35.9998C27.0535 35.9998 26.9164 35.7672 26.9641 35.1946C27.0238 34.4789 27.4413 33.5544 28.8429 31.1984C29.9643 29.3137 29.1312 26.7748 28.5745 25.7409Z" fill="black"/>
</g>
<defs>
<linearGradient id="paint0_linear_552_5348" x1="26.7259" y1="21.9537" x2="30.7519" y2="25.4727" gradientUnits="userSpaceOnUse">
<stop offset="0.0217747"/>
<stop offset="1" stop-color="#737373"/>
</linearGradient>
</defs>
</svg>
