<svg width="44" height="44" viewBox="0 0 44 44" fill="none" xmlns="http://www.w3.org/2000/svg">
<path d="M43.5423 21.9997C43.5423 10.083 33.9173 0.458008 22.0007 0.458008C10.084 0.458008 0.458984 10.083 0.458984 21.9997C0.458984 33.9163 10.084 43.5413 22.0007 43.5413C25.759 43.5413 29.2423 42.6247 32.359 40.883L43.5423 43.5413L40.884 32.358C42.6257 29.2413 43.5423 25.758 43.5423 21.9997ZM20.1673 24.0163C20.1673 27.683 17.234 30.6163 13.5673 30.6163V28.508L14.3007 27.7747C15.4923 26.583 15.7673 24.933 15.7673 23.1913C15.4923 23.283 15.1257 23.283 14.8507 23.283C12.1007 23.283 10.359 21.083 10.359 18.333C10.359 15.583 12.559 13.383 15.309 13.383C18.059 13.383 20.259 15.583 20.259 18.333V24.0163H20.1673ZM33.734 24.0163C33.734 27.683 30.8007 30.6163 27.134 30.6163V28.508L27.8673 27.7747C29.059 26.583 29.334 24.933 29.334 23.1913C29.059 23.283 28.6923 23.283 28.4173 23.283C25.6673 23.283 23.834 21.083 23.834 18.333C23.834 15.583 26.034 13.383 28.784 13.383C31.534 13.383 33.734 15.583 33.734 18.333V24.0163Z" fill="url(#paint0_linear_1079_7883)"/>
<defs>
<linearGradient id="paint0_linear_1079_7883" x1="0.458984" y1="0.458008" x2="43.5423" y2="43.5413" gradientUnits="userSpaceOnUse">
<stop stop-color="#F49062"/>
<stop offset="1" stop-color="#FD371F"/>
</linearGradient>
</defs>
</svg>
