<svg width="44" height="42" viewBox="0 0 44 42" fill="none" xmlns="http://www.w3.org/2000/svg">
<path d="M15.4172 36.1282C16.2107 36.8249 17.0299 37.5437 17.8724 38.2889L17.8899 38.3043L20.6929 40.7255C21.0685 41.0499 21.5346 41.2121 22.0007 41.2121C22.4668 41.2121 22.933 41.0498 23.3086 40.7255L26.111 38.3043L26.1284 38.2891C31.6772 33.3819 35.8374 29.625 38.8473 25.961C42.3627 21.6817 44.0001 17.8125 44.0001 13.7844C44.0001 6.49667 38.2916 0.788086 31.0041 0.788086C27.7287 0.788086 24.4924 2.02142 22.0007 4.15936C19.5083 2.02129 16.2719 0.788086 12.9964 0.788086C5.70871 0.787953 0 6.49667 0 13.7843C0 22.5935 6.13334 27.9779 15.4172 36.1282ZM13.9983 16.9994H19.3326V11.6647H24.6672V16.9994H30.0017V22.3339H24.6672V27.6682H19.3326V22.3339H13.9983V16.9994Z" fill="url(#paint0_linear_1079_6952)"/>
<defs>
<linearGradient id="paint0_linear_1079_6952" x1="0" y1="0.788086" x2="40.2792" y2="44.6306" gradientUnits="userSpaceOnUse">
<stop stop-color="#F093FB"/>
<stop offset="1" stop-color="#F5576C"/>
</linearGradient>
</defs>
</svg>
