<svg width="12" height="17" viewBox="0 0 12 17" fill="none" xmlns="http://www.w3.org/2000/svg">
<path d="M3.75 13.375H8.25M1.95 1H10.05C10.47 1 10.6801 1 10.8405 1.08175C10.9816 1.15365 11.0964 1.26839 11.1683 1.40951C11.25 1.56994 11.25 1.77996 11.25 2.2V3.75589C11.25 4.12277 11.25 4.30622 11.2086 4.47885C11.1718 4.6319 11.1112 4.77822 11.029 4.91243C10.9362 5.0638 10.8065 5.19352 10.5471 5.45294L8.34853 7.65147C8.05152 7.94848 7.90301 8.09699 7.84737 8.26824C7.79842 8.41887 7.79842 8.58113 7.84737 8.73176C7.90301 8.90301 8.05152 9.05152 8.34853 9.34853L10.5471 11.5471C10.8065 11.8065 10.9362 11.9362 11.029 12.0876C11.1112 12.2218 11.1718 12.3681 11.2086 12.5212C11.25 12.6938 11.25 12.8772 11.25 13.2441V14.8C11.25 15.22 11.25 15.4301 11.1683 15.5905C11.0964 15.7316 10.9816 15.8464 10.8405 15.9183C10.6801 16 10.47 16 10.05 16H1.95C1.52996 16 1.31994 16 1.15951 15.9183C1.01839 15.8464 0.90365 15.7316 0.831745 15.5905C0.75 15.4301 0.75 15.22 0.75 14.8V13.2441C0.75 12.8772 0.75 12.6938 0.791445 12.5212C0.82819 12.3681 0.888797 12.2218 0.97104 12.0876C1.0638 11.9362 1.19352 11.8065 1.45294 11.5471L3.65147 9.34853C3.94848 9.05152 4.09699 8.90301 4.15263 8.73176C4.20158 8.58113 4.20158 8.41887 4.15263 8.26824C4.09699 8.09699 3.94848 7.94848 3.65147 7.65147L1.45294 5.45294C1.19352 5.19352 1.0638 5.0638 0.97104 4.91243C0.888797 4.77822 0.82819 4.6319 0.791445 4.47885C0.75 4.30622 0.75 4.12277 0.75 3.75589V2.2C0.75 1.77996 0.75 1.56994 0.831745 1.40951C0.90365 1.26839 1.01839 1.15365 1.15951 1.08175C1.31994 1 1.52996 1 1.95 1Z" stroke="#FB3748" stroke-width="1.5" stroke-linecap="round" stroke-linejoin="round"/>
</svg>
