<svg width="42" height="42" viewBox="0 0 42 42" fill="none" xmlns="http://www.w3.org/2000/svg">
<path d="M0 21C0 9.40202 9.40202 0 21 0C32.598 0 42 9.40202 42 21C42 32.598 32.598 42 21 42C9.40202 42 0 32.598 0 21Z" fill="#F5F5F5"/>
<path d="M25.166 12.6665H16.8327C14.5327 12.6665 12.666 14.5332 12.666 16.8332V25.1665C12.666 27.4665 14.5327 29.3332 16.8327 29.3332H25.166C27.466 29.3332 29.3327 27.4665 29.3327 25.1665V16.8332C29.3327 14.5332 27.466 12.6665 25.166 12.6665ZM20.9993 25.1665C18.6993 25.1665 16.8327 23.2998 16.8327 20.9998C16.8327 18.6998 18.6993 16.8332 20.9993 16.8332C23.2993 16.8332 25.166 18.6998 25.166 20.9998C25.166 23.2998 23.2993 25.1665 20.9993 25.1665ZM25.4577 17.3498C24.9993 17.3498 24.6243 16.9748 24.6243 16.5165C24.6243 16.0582 24.9993 15.6832 25.4577 15.6832C25.916 15.6832 26.291 16.0582 26.291 16.5165C26.291 16.9748 25.916 17.3498 25.4577 17.3498Z" fill="#181D27"/>
<path d="M21 23.5C22.3807 23.5 23.5 22.3807 23.5 21C23.5 19.6193 22.3807 18.5 21 18.5C19.6193 18.5 18.5 19.6193 18.5 21C18.5 22.3807 19.6193 23.5 21 23.5Z" fill="#181D27"/>
</svg>
