<svg width="20" height="21" viewBox="0 0 20 21" fill="none" xmlns="http://www.w3.org/2000/svg">
<g clip-path="url(#clip0_1079_10197)">
<path d="M11.7578 10.5C11.7578 11.4708 10.9708 12.2578 10 12.2578C9.02922 12.2578 8.24219 11.4708 8.24219 10.5C8.24219 9.52922 9.02922 8.74219 10 8.74219C10.9708 8.74219 11.7578 9.52922 11.7578 10.5Z" fill="black"/>
<path d="M12.9688 5.1875H7.03125C5.73883 5.1875 4.6875 6.23883 4.6875 7.53125V13.4688C4.6875 14.7612 5.73883 15.8125 7.03125 15.8125H12.9688C14.2612 15.8125 15.3125 14.7612 15.3125 13.4688V7.53125C15.3125 6.23883 14.2612 5.1875 12.9688 5.1875ZM10 13.4297C8.38457 13.4297 7.07031 12.1154 7.07031 10.5C7.07031 8.88457 8.38457 7.57031 10 7.57031C11.6154 7.57031 12.9297 8.88457 12.9297 10.5C12.9297 12.1154 11.6154 13.4297 10 13.4297ZM13.3594 7.72656C13.0357 7.72656 12.7734 7.46426 12.7734 7.14062C12.7734 6.81699 13.0357 6.55469 13.3594 6.55469C13.683 6.55469 13.9453 6.81699 13.9453 7.14062C13.9453 7.46426 13.683 7.72656 13.3594 7.72656Z" fill="black"/>
<path d="M14.7266 0.5H5.27344C2.3657 0.5 0 2.86574 0 5.77344V15.2266C0 18.1343 2.36574 20.5 5.27344 20.5H14.7266C17.6343 20.5 20 18.1343 20 15.2266V5.77344C20 2.8657 17.6343 0.5 14.7266 0.5ZM16.4844 13.4688C16.4844 15.4072 14.9072 16.9844 12.9688 16.9844H7.03125C5.09277 16.9844 3.51562 15.4072 3.51562 13.4688V7.53125C3.51562 5.59277 5.09277 4.01562 7.03125 4.01562H12.9688C14.9072 4.01562 16.4844 5.59277 16.4844 7.53125V13.4688Z" fill="black"/>
</g>
<defs>
<clipPath id="clip0_1079_10197">
<rect width="20" height="20" fill="white" transform="translate(0 0.5)"/>
</clipPath>
</defs>
</svg>
