<svg width="50" height="19" viewBox="0 0 50 19" fill="none" xmlns="http://www.w3.org/2000/svg">
<path d="M4.71769 18.596C1.53169 18.596 0.739688 18.452 0.739688 17.156C0.739688 16.454 0.973688 15.428 1.17169 13.88V4.826C1.00969 3.548 0.685688 2.99 0.451688 2.612C0.397688 2.504 0.361688 2.36 0.361688 2.198C0.361688 1.406 1.13569 0.11 3.65569 0.11C5.59969 0.11 6.12169 0.866 6.12169 1.802C6.12169 2.792 5.56369 3.998 5.45569 4.826V16.058C7.41769 16.058 6.55369 15.122 7.75969 13.466C8.04769 13.052 8.82169 12.782 9.61369 12.782C10.8017 12.782 12.0797 13.394 12.0797 15.104C12.0797 16.598 10.0097 18.578 7.99369 18.578L4.71769 18.596ZM20.9426 18.596C20.0426 18.596 19.3406 18.164 19.3226 16.994C18.7646 17.282 18.4226 18.524 16.2086 18.578C14.0846 18.578 12.8426 16.742 12.8246 14.276C12.8246 12.404 13.7066 11.468 14.9486 11.396C16.1366 11.342 17.4866 10.802 18.4766 10.226C19.1786 9.83 19.4306 9.272 19.4306 8.732C19.4306 7.922 18.9086 7.22 18.5306 7.22C18.1166 7.22 17.5946 7.814 17.5946 8.12C17.5946 8.408 17.8466 8.66 17.8466 9.038C17.8466 9.308 17.7206 9.632 17.2526 10.082C16.8386 10.478 16.0466 10.712 15.2546 10.712C14.0846 10.712 12.8966 10.208 12.8966 9.002C12.8966 7.634 14.4086 5.294 18.5306 5.294C21.8426 5.348 23.5346 7.076 23.6066 9.488L23.6246 9.668L23.6066 9.812L23.5886 11.486C23.5886 13.07 23.6786 14.906 24.3446 15.986C24.5066 16.274 24.5966 16.544 24.5966 16.742C24.5966 16.886 24.5606 16.994 24.4886 17.066C23.8226 17.768 22.1846 18.596 20.9426 18.596ZM18.1166 15.464C18.7286 15.464 19.3226 14.996 19.3226 13.574C19.3226 12.638 19.1066 12.296 18.8006 12.296C18.0626 12.296 16.8746 14.186 16.8566 14.528C16.8566 14.96 17.5046 15.464 18.1166 15.464ZM27.8724 18.596C26.4504 18.596 25.0464 17.552 25.0464 16.886C25.0464 16.796 25.0644 16.724 25.1184 16.652C25.3524 16.274 25.6764 15.716 25.8384 14.438V10.892C25.8204 9.92 25.4604 9.47 25.1904 9.218C24.9384 8.966 24.8304 8.642 24.8304 8.318C24.8304 6.986 26.5224 5.294 28.1244 5.294C29.7804 5.294 30.0504 5.474 30.0504 5.924C30.0504 6.122 29.9964 6.41 29.9964 6.734C29.9964 7.22 30.0144 7.742 30.0504 7.814C30.7884 6.356 32.1024 5.276 33.2364 5.276C34.8384 5.366 36.2064 6.752 36.4584 9.308C36.5304 9.992 36.5304 10.946 36.5304 11.9V13.502C36.5304 14.096 36.5484 13.826 36.5484 14.438C36.7104 15.716 37.0524 16.274 37.2684 16.652C37.3044 16.724 37.3224 16.796 37.3224 16.886C37.3224 17.57 35.8824 18.578 34.4064 18.578C32.9484 18.578 31.4724 17.606 31.4724 16.904C31.4724 16.814 31.4904 16.724 31.5444 16.652C31.7604 16.292 32.1384 15.77 32.2104 14.6C32.2104 13.484 31.7064 10.118 31.4724 9.506C31.4184 9.398 31.3464 9.344 31.2564 9.344C30.8964 9.344 30.2484 10.28 30.1404 10.64V14.438C30.3024 15.716 30.6264 16.274 30.8604 16.652C30.8964 16.724 30.9144 16.796 30.9144 16.886C30.9144 17.588 29.3844 18.596 27.8724 18.596ZM45.798 18.596C44.898 18.596 44.196 18.164 44.178 16.994C43.62 17.282 43.278 18.524 41.064 18.578C38.94 18.578 37.698 16.742 37.68 14.276C37.68 12.404 38.562 11.468 39.804 11.396C40.992 11.342 42.342 10.802 43.332 10.226C44.034 9.83 44.286 9.272 44.286 8.732C44.286 7.922 43.764 7.22 43.386 7.22C42.972 7.22 42.45 7.814 42.45 8.12C42.45 8.408 42.702 8.66 42.702 9.038C42.702 9.308 42.576 9.632 42.108 10.082C41.694 10.478 40.902 10.712 40.11 10.712C38.94 10.712 37.752 10.208 37.752 9.002C37.752 7.634 39.264 5.294 43.386 5.294C46.698 5.348 48.39 7.076 48.462 9.488L48.48 9.668L48.462 9.812L48.444 11.486C48.444 13.07 48.534 14.906 49.2 15.986C49.362 16.274 49.452 16.544 49.452 16.742C49.452 16.886 49.416 16.994 49.344 17.066C48.678 17.768 47.04 18.596 45.798 18.596ZM42.972 15.464C43.584 15.464 44.178 14.996 44.178 13.574C44.178 12.638 43.962 12.296 43.656 12.296C42.918 12.296 41.73 14.186 41.712 14.528C41.712 14.96 42.36 15.464 42.972 15.464Z" fill="#0E121B"/>
</svg>
