<svg width="21" height="20" viewBox="0 0 21 20" fill="none" xmlns="http://www.w3.org/2000/svg">
<path d="M18.0371 17.5H4.37044C3.90373 17.5 3.67038 17.5 3.49212 17.4092C3.33532 17.3293 3.20783 17.2018 3.12794 17.045C3.03711 16.8667 3.03711 16.6334 3.03711 16.1667V2.5M18.0371 12.5L13.5085 7.9714C13.3435 7.8064 13.261 7.72389 13.1659 7.69298C13.0822 7.66579 12.992 7.66579 12.9084 7.69298C12.8132 7.72389 12.7307 7.8064 12.5657 7.9714L11.0085 9.5286C10.8435 9.6936 10.761 9.77611 10.6659 9.80702C10.5822 9.83421 10.492 9.83421 10.4084 9.80702C10.3132 9.77611 10.2307 9.6936 10.0657 9.5286L6.37044 5.83333M18.0371 12.5H14.7038M18.0371 12.5V9.16667" stroke="#F79009" stroke-width="1.5" stroke-linecap="round" stroke-linejoin="round"/>
</svg>
