<svg width="42" height="42" viewBox="0 0 42 42" fill="none" xmlns="http://www.w3.org/2000/svg">
<path d="M0 21C0 9.40202 9.40202 0 21 0C32.598 0 42 9.40202 42 21C42 32.598 32.598 42 21 42C9.40202 42 0 32.598 0 21Z" fill="#F5F5F5"/>
<path d="M29 29V23.14C29 20.26 28.38 18.06 25.02 18.06C23.4 18.06 22.32 18.94 21.88 19.78H21.84V18.32H18.66V29H21.98V23.7C21.98 22.3 22.24 20.96 23.96 20.96C25.66 20.96 25.68 22.54 25.68 23.78V28.98H29V29ZM13.26 18.32H16.58V29H13.26V18.32ZM14.92 13C13.86 13 13 13.86 13 14.92C13 15.98 13.86 16.86 14.92 16.86C15.98 16.86 16.84 15.98 16.84 14.92C16.84 13.86 15.98 13 14.92 13Z" fill="#181D27"/>
</svg>
