<svg width="16" height="16" viewBox="0 0 16 16" fill="none" xmlns="http://www.w3.org/2000/svg">
<g clip-path="url(#clip0_1079_5608)">
<path d="M3.33398 5.6761C3.33398 3.27748 5.42332 1.33301 8.00065 1.33301C10.578 1.33301 12.6673 3.27748 12.6673 5.6761C12.6673 8.05592 11.1779 10.833 8.85403 11.826C8.3123 12.0576 7.689 12.0576 7.14727 11.826C4.82342 10.833 3.33398 8.05592 3.33398 5.6761Z" stroke="#A4A7AE"/>
<path d="M9.33268 6.00033C9.33268 6.73671 8.73573 7.33366 7.99935 7.33366C7.26297 7.33366 6.66602 6.73671 6.66602 6.00033C6.66602 5.26395 7.26297 4.66699 7.99935 4.66699C8.73573 4.66699 9.33268 5.26395 9.33268 6.00033Z" stroke="#A4A7AE"/>
<path d="M13.9743 10.333C14.4179 10.7347 14.6673 11.1874 14.6673 11.6663C14.6673 13.3232 11.6825 14.6663 8.00065 14.6663C4.31875 14.6663 1.33398 13.3232 1.33398 11.6663C1.33398 11.1874 1.5834 10.7347 2.02696 10.333" stroke="#A4A7AE" stroke-linecap="round"/>
</g>
<defs>
<clipPath id="clip0_1079_5608">
<rect width="16" height="16" fill="white"/>
</clipPath>
</defs>
</svg>
