<svg width="63" height="58" viewBox="0 0 63 58" fill="none" xmlns="http://www.w3.org/2000/svg">
<path fill-rule="evenodd" clip-rule="evenodd" d="M38.3207 6.63749C34.605 2.76168 24.7329 -3.50048 14.9697 2.45738C5.20655 8.41523 6.86578 20.3149 8.91579 25.5201C6.60949 23.8384 5.93693 19.9466 5.93693 19.9466C2.97402 21.1958 -2.0293 25.4432 1.66073 32.4389C2.92594 34.2967 6.90738 37.1955 12.7115 33.9283C12.6141 34.2506 12.5546 34.8418 12.4798 35.5853C12.3947 36.4307 12.2899 37.473 12.0869 38.5409C11.2307 43.0449 8.93267 45.3861 7.04708 47.3071C6.4988 47.8657 5.9854 48.3887 5.55245 48.9191C5.44034 49.1113 5.38909 49.4572 6.08097 49.3034C6.94582 49.1113 12.4713 43.8261 13.4322 40.2706C13.7757 38.9995 13.9412 37.8942 14.0976 36.8494C14.3787 34.9715 14.6306 33.2888 15.8346 31.1896C15.8986 31.0615 15.9499 30.8149 15.6424 30.8533C15.258 30.9014 14.201 30.565 13.8166 30.0846C13.4322 29.6041 12.5673 27.3939 12.3271 26.6252C12.0869 25.8564 11.4142 24.5591 10.9818 24.3189C10.5494 24.0787 8.91576 20.7153 11.9427 18.7935C12.5033 18.4571 13.9992 17.9094 15.4982 18.4091C16.0919 18.607 16.6276 18.8916 17.2003 19.1959C18.4352 19.8521 19.8414 20.5993 22.369 20.7634L24.0026 20.9075C24.371 20.9235 25.2134 20.9652 25.2518 21.7724C25.2999 22.7814 26.1647 26.9134 28.0866 28.1627C29.4146 29.0259 33.9964 31.6221 37.6 20.9075H39.0894C38.9773 22.397 39.0606 25.6546 40.2906 26.7693C41.8281 28.1627 44.5668 28.499 46.7289 24.415L48.2664 21.2919C48.5547 20.6513 49.2082 19.2643 49.5157 18.8415C49.8232 18.4187 49.4196 18.281 49.1793 18.2649C48.6763 18.2181 47.7696 18.0171 47.1003 17.8688C46.8534 17.814 46.6387 17.7664 46.4887 17.7364C44.807 17.4001 41.8361 17.304 39.5218 19.6583H37.3597C35.7421 18.8896 31.8247 17.5827 29.0956 18.5052C26.3665 19.4277 21.2319 18.7935 19.0057 18.361C19.2536 18.1993 19.501 18.0402 19.7499 17.8802C21.399 16.8201 23.1189 15.7144 25.5401 13.4602C26.6234 12.4516 32.555 7.6465 36.639 7.21408C36.7031 7.19806 36.7831 7.15642 36.591 7.11798C36.3507 7.06993 31.1616 7.45431 24.0026 12.3551C22.0807 13.5243 17.9775 15.7665 16.9396 15.3821C16.8756 15.3341 16.8051 15.2091 17.0357 15.0938C17.0611 15.0811 17.098 15.064 17.1481 15.0407C17.6679 14.7992 19.613 13.8952 24.9155 10.4332C30.8276 6.57323 35.1671 6.61131 37.7783 6.63423C37.9683 6.6359 38.1491 6.63749 38.3207 6.63749ZM39.8581 21.8204C39.762 23.1657 39.9542 25.7603 41.4917 26.6732C41.86 26.9134 43.0292 27.2498 44.1343 26.4329C44.5827 26.0646 45.6718 24.9435 46.4405 23.406C46.9446 22.3977 47.2504 21.5482 47.4966 20.8642L47.4966 20.8642L47.4966 20.8641C47.7197 20.2444 47.8938 19.7606 48.1222 19.418C48.1702 19.3219 48.2087 19.1298 47.978 19.1298C47.8527 19.1298 47.5182 19.0033 47.129 18.8561C46.6231 18.6648 46.0246 18.4384 45.6718 18.409C45.6211 18.4048 45.5661 18.3988 45.506 18.3921L45.5059 18.3921C44.8818 18.3233 43.7184 18.1951 41.3956 19.4661C41.3635 19.4981 41.3283 19.5622 41.4436 19.5622C41.5878 19.5622 42.9811 19.6583 43.9421 20.9556C43.6057 21.0997 42.8466 21.4553 42.5007 21.7243C42.0202 22.0767 41.04 22.5123 40.9631 21.436C40.9631 21.2919 41.04 20.946 41.3475 20.7153C40.9311 20.7634 40.0502 21.0516 39.8581 21.8204ZM26.0685 20.0427C26.0045 21.8044 26.4241 25.7507 28.615 27.4419C30.806 29.1332 33.0514 27.4419 33.9002 26.3849C34.5889 25.52 36.1296 23.1946 36.783 20.8114C36.7991 20.6833 36.783 20.4078 36.5908 20.3309C36.5678 20.3217 36.5225 20.2992 36.4567 20.2664C35.8375 19.958 33.3987 18.7435 30.4888 19.1778C31.5939 19.354 33.9482 20.0426 34.5248 21.388C34.5569 21.436 34.5825 21.5417 34.4287 21.5802C34.4031 21.5866 34.3595 21.5947 34.3019 21.6054C33.9272 21.6752 32.9585 21.8557 32.4588 22.397C32.0904 22.6532 31.1807 23.0792 30.4888 22.7333C30.1045 22.4931 29.797 21.657 30.8732 21.1958C30.0084 21.1637 28.7592 21.4841 29.4799 22.9255C28.5509 22.9895 26.7412 22.5027 26.549 20.0427C26.4529 19.8505 26.2223 19.5814 26.0685 20.0427Z" fill="black"/>
<path d="M14.4881 25.3279C11.6437 24.1363 12.1498 21.8205 12.7584 20.8115C13.1428 20.0811 14.0717 20.0587 14.4881 20.1388C15.449 20.5232 15.4651 21.7404 15.353 22.3009C15.2089 23.3099 16.0738 25.2799 16.2659 25.472C16.4197 25.6258 16.33 25.6642 16.2659 25.6642C15.4972 25.5874 14.7604 25.408 14.4881 25.3279Z" fill="black" stroke="black" stroke-width="0.0960945"/>
<circle cx="15.7383" cy="28.4028" r="1.44142" fill="black"/>
<path d="M30.4407 15.8146C29.2635 16.0108 26.725 16.4552 25.5879 16.5833C25.9242 16.6794 26.8852 17.256 31.9782 16.9197C34.2335 16.7708 35.2934 17.9287 35.87 18.1209C36.3313 18.2746 36.3184 18.0568 36.2544 17.9287C35.3895 15.8146 32.4586 15.4783 30.4407 15.8146Z" fill="black" stroke="black" stroke-width="0.0960945"/>
<path d="M39.5224 17.6884C39.4071 18.1112 39.6986 18.0888 39.8587 18.0247C40.0189 17.9607 40.8196 17.304 41.8767 17.0638C42.9337 16.8235 43.8274 16.6506 43.9427 16.5353C44.058 16.4199 43.9908 16.3911 43.9427 16.3911L42.2611 16.5353C40.9157 16.6313 39.6666 17.1599 39.5224 17.6884Z" fill="black" stroke="black" stroke-width="0.0960945"/>
<path d="M17.8997 31.2377C17.8613 30.6996 18.172 30.9174 18.3322 31.0936C22.0799 37.8682 33.1787 40.1745 33.6592 40.3667C34.0435 40.5204 33.9154 40.6229 33.8033 40.655C26.7884 42.3366 29.3349 53.1472 29.2388 53.4355C29.1619 53.6661 28.9505 53.6277 28.8544 53.5797C27.4322 52.465 25.2189 50.2324 24.29 49.2554C17.9477 42.4808 17.9478 31.9104 17.8997 31.2377Z" fill="black"/>
<path d="M39.1366 28.4029C38.2585 28.2932 37.6151 28.6752 37.4069 28.8353C38.1276 28.5951 39.0505 29.5884 39.6651 29.7002C40.1936 29.7963 40.3377 29.6041 40.4338 29.3638C40.5299 29.1236 40.4338 28.3356 40.4338 28.0666C40.4338 27.7975 40.1936 28.0185 40.1936 28.0185C40.1936 28.0185 39.9053 28.499 39.1366 28.4029Z" fill="black"/>
<path d="M17.8997 31.2377C17.8613 30.6996 18.172 30.9174 18.3322 31.0936C22.0799 37.8682 33.1787 40.1745 33.6592 40.3667C34.0435 40.5204 33.9154 40.6229 33.8033 40.655C26.7884 42.3366 29.3349 53.1472 29.2388 53.4355C29.1619 53.6661 28.9505 53.6277 28.8544 53.5797C27.4322 52.465 25.2189 50.2324 24.29 49.2554C17.9477 42.4808 17.9478 31.9104 17.8997 31.2377Z" stroke="black" stroke-width="0.0960945"/>
<path d="M39.1366 28.4029C38.2585 28.2932 37.6151 28.6752 37.4069 28.8353C38.1276 28.5951 39.0505 29.5884 39.6651 29.7002C40.1936 29.7963 40.3377 29.6041 40.4338 29.3638C40.5299 29.1236 40.4338 28.3356 40.4338 28.0666C40.4338 27.7975 40.1936 28.0185 40.1936 28.0185C40.1936 28.0185 39.9053 28.499 39.1366 28.4029Z" stroke="black" stroke-width="0.0960945"/>
<path d="M45.0949 36.6669L48.5543 42.4326L48.266 42.5767L46.3441 41.4716C45.0629 39.7259 42.4235 36.0807 42.116 35.4657C41.8085 34.8507 42.3402 34.6649 42.6445 34.6489L58.5001 34.8411C55.329 40.2224 50.7645 36.9552 48.5063 36.6669C46.6997 36.4363 45.4793 36.5708 45.0949 36.6669Z" fill="url(#paint0_linear_382_4605)"/>
<path fill-rule="evenodd" clip-rule="evenodd" d="M53.4375 38.7248L53.469 38.7569L53.5005 38.789L53.4689 38.757L53.4375 38.7248ZM61.8668 33.3339C61.7081 32.7596 61.4319 32.2213 61.0391 31.7563L58.863 34.1315L61.8668 33.3339ZM58.3809 33.9464L59.1158 30.4845C59.7021 30.6684 60.2462 30.9767 60.7071 31.4073L58.3809 33.9464ZM61.9692 33.8038L58.8377 34.6353L61.961 35.3173C62.0464 34.8092 62.0489 34.2975 61.9692 33.8038ZM60.8657 37.6954L58.2126 34.9906L61.8581 35.7866C61.6757 36.4588 61.3454 37.1124 60.8657 37.6954ZM58.6498 30.3661C58.1966 30.277 57.7258 30.2578 57.2545 30.3093L57.8883 33.9533L58.6498 30.3661ZM54.673 31.382C55.3175 30.8723 56.0421 30.5411 56.7801 30.3853L57.4449 34.2079L54.673 31.382ZM61.2714 38.109C61.1491 38.2548 61.0183 38.3962 60.8793 38.5326L60.4756 38.121L54.24 31.7639L53.8362 31.3523C53.9752 31.2159 54.1192 31.088 54.2673 30.9684C56.4077 29.2415 59.4274 29.2738 61.2464 31.1282C63.0653 32.9826 63.0393 36.0023 61.2714 38.109Z" fill="black"/>
<path fill-rule="evenodd" clip-rule="evenodd" d="M53.4375 38.7248L53.469 38.7569L53.5005 38.789L53.4689 38.757L53.4375 38.7248ZM61.8668 33.3339C61.7081 32.7596 61.4319 32.2213 61.0391 31.7563L58.863 34.1315L61.8668 33.3339ZM58.3809 33.9464L59.1158 30.4845C59.7021 30.6684 60.2462 30.9767 60.7071 31.4073L58.3809 33.9464ZM61.9692 33.8038L58.8377 34.6353L61.961 35.3173C62.0464 34.8092 62.0489 34.2975 61.9692 33.8038ZM60.8657 37.6954L58.2126 34.9906L61.8581 35.7866C61.6757 36.4588 61.3454 37.1124 60.8657 37.6954ZM58.6498 30.3661C58.1966 30.277 57.7258 30.2578 57.2545 30.3093L57.8883 33.9533L58.6498 30.3661ZM54.673 31.382C55.3175 30.8723 56.0421 30.5411 56.7801 30.3853L57.4449 34.2079L54.673 31.382ZM61.2714 38.109C61.1491 38.2548 61.0183 38.3962 60.8793 38.5326L60.4756 38.121L54.24 31.7639L53.8362 31.3523C53.9752 31.2159 54.1192 31.088 54.2673 30.9684C56.4077 29.2415 59.4274 29.2738 61.2464 31.1282C63.0653 32.9826 63.0393 36.0023 61.2714 38.109Z" fill="#F86B1F"/>
<path d="M36.4465 32.3427C35.4087 33.073 33.7398 33.3837 33.0352 33.4478C33.5348 33.4478 34.7649 34.649 35.5336 35.2255C36.7828 36.0423 37.4075 36.0327 38.5606 35.8021C39.7137 35.5715 40.9309 33.4318 41.3954 32.3907C40.002 31.67 39.6657 32.2946 39.4735 32.3907C39.3197 32.4676 39.1532 32.3907 39.0891 32.3427C38.6407 32.0384 37.4843 31.6124 36.4465 32.3427Z" fill="black" stroke="black" stroke-width="0.0960945"/>
<path d="M46.3923 41.4717C48.8139 41.3949 49.7396 44.5468 49.8998 46.1323C51.9178 44.6909 51.9657 41.8561 51.7255 39.5979C51.4853 37.3397 51.3411 35.1295 51.5813 34.7932C51.7735 34.5241 51.9177 34.681 51.9657 34.7932C52.0298 35.3377 52.3981 36.4748 52.8306 37.6279C53.314 38.917 53.6954 41.3276 53.7435 41.6639C53.7819 41.933 53.9517 41.9041 54.0318 41.8561C54.7044 40.5588 54.7044 37.7721 54.2239 35.5139C53.7435 33.2556 55.4732 32.0545 55.2329 32.631C55.0407 33.0923 55.313 34.3928 55.4732 34.9853C56.0017 36.4748 56.1939 38.8291 56.1939 39.0213C56.1939 39.1751 56.354 39.2135 56.4341 39.2135C56.8954 39.1366 57.0747 38.2205 57.1068 37.7721C57.1445 35.1721 58.1702 33.9912 58.7085 33.7043C58.7234 33.6433 58.7339 33.646 58.7404 33.6881C58.73 33.6931 58.7193 33.6985 58.7085 33.7043C58.6497 33.9454 58.5227 35.1825 58.308 38.9252C57.9716 44.787 52.5423 49.3995 51.245 51.0812C50.2072 52.4265 50.204 54.4285 50.3321 55.2613C50.3321 55.2613 45.2873 58 44.6146 58C43.9418 58 43.7209 57.6252 43.7978 56.7027C43.8939 55.5496 44.5665 54.0601 46.8247 50.2644C48.6313 47.2278 47.2892 43.1374 46.3923 41.4717Z" fill="black"/>
<defs>
<linearGradient id="paint0_linear_382_4605" x1="43.4132" y1="35.3696" x2="49.8996" y2="41.0392" gradientUnits="userSpaceOnUse">
<stop offset="0.0217747"/>
<stop offset="1" stop-color="#737373"/>
</linearGradient>
</defs>
</svg>
