<svg width="20" height="20" viewBox="0 0 20 20" fill="none" xmlns="http://www.w3.org/2000/svg">
<g clip-path="url(#clip0_552_7173)">
<path d="M4.16602 7.09537C4.16602 4.09709 6.77769 1.6665 9.99935 1.6665C13.221 1.6665 15.8327 4.09709 15.8327 7.09537C15.8327 10.0701 13.9709 13.5414 11.0661 14.7828C10.3889 15.0722 9.60979 15.0722 8.93263 14.7828C6.02781 13.5414 4.16602 10.0701 4.16602 7.09537Z" stroke="#FF6700" stroke-width="1.5"/>
<path d="M11.6673 7.50016C11.6673 8.42064 10.9211 9.16683 10.0007 9.16683C9.08018 9.16683 8.33398 8.42064 8.33398 7.50016C8.33398 6.57969 9.08018 5.8335 10.0007 5.8335C10.9211 5.8335 11.6673 6.57969 11.6673 7.50016Z" stroke="#FF6700" stroke-width="1.5"/>
<path d="M17.4665 12.9165C18.0209 13.4186 18.3327 13.9845 18.3327 14.5832C18.3327 16.6542 14.6017 18.3332 9.99935 18.3332C5.39698 18.3332 1.66602 16.6542 1.66602 14.5832C1.66602 13.9845 1.97778 13.4186 2.53224 12.9165" stroke="#FF6700" stroke-width="1.5" stroke-linecap="round"/>
</g>
<defs>
<clipPath id="clip0_552_7173">
<rect width="20" height="20" fill="white"/>
</clipPath>
</defs>
</svg>
