<svg width="44" height="44" viewBox="0 0 44 44" fill="none" xmlns="http://www.w3.org/2000/svg">
<path d="M43.1386 0.48453C42.9242 0.298572 42.6723 0.16085 42.4 0.0806835C42.1277 0.000517191 41.8413 -0.0202233 41.5603 0.0198656L13.822 3.98244C12.8458 4.12192 12.1209 4.95792 12.1209 5.94397V29.1736C10.9473 28.4899 9.58495 28.0962 8.13157 28.0962C3.74695 28.0962 0.179688 31.6635 0.179688 36.0481C0.179688 40.4327 3.74687 44 8.13148 44C12.5161 44 16.0834 40.4327 16.0834 36.0481V15.5876L39.8591 12.1911V25.211C38.6855 24.5273 37.3232 24.1336 35.8698 24.1336C31.4852 24.1336 27.9179 27.7008 27.9179 32.0855C27.9179 36.4701 31.4852 40.0373 35.8698 40.0373C40.2544 40.0373 43.8217 36.4701 43.8217 32.0855V1.9813C43.8217 1.69744 43.7607 1.41689 43.6429 1.15865C43.5251 0.900408 43.3531 0.67051 43.1386 0.48453Z" fill="url(#paint0_linear_1079_9027)"/>
<defs>
<linearGradient id="paint0_linear_1079_9027" x1="0.179688" y1="0" x2="44.1782" y2="43.6405" gradientUnits="userSpaceOnUse">
<stop stop-color="#F49062"/>
<stop offset="1" stop-color="#FD371F"/>
</linearGradient>
</defs>
</svg>
