<svg width="24" height="24" viewBox="0 0 24 24" fill="none" xmlns="http://www.w3.org/2000/svg">
<path d="M9.80181 0.809608C11.0684 -0.269866 12.9315 -0.269877 14.1983 0.80962L15.7211 2.10736C15.902 2.26156 16.1269 2.35472 16.3639 2.37363L18.3584 2.5328C20.0174 2.66518 21.3348 3.9826 21.4672 5.64157L21.6264 7.63604C21.6453 7.87299 21.7383 8.09796 21.8925 8.2789L23.1903 9.8018C24.2699 11.0684 24.2699 12.9315 23.1903 14.1983L21.8925 15.721C21.7385 15.902 21.6451 16.127 21.6263 16.364L21.4672 18.3584C21.3348 20.0175 20.0174 21.3348 18.3584 21.4671L16.3639 21.6263C16.1269 21.6452 15.902 21.7384 15.7211 21.8926L14.1983 23.1903C12.9315 24.2699 11.0684 24.2698 9.8017 23.1903L8.27887 21.8926C8.09794 21.7384 7.87302 21.6452 7.63606 21.6264L5.64162 21.4671C3.98261 21.3347 2.66522 20.0173 2.53283 18.3584L2.37365 16.364C2.35474 16.127 2.26155 15.9021 2.10738 15.7211L0.809621 14.1981C-0.269864 12.9315 -0.269876 11.0685 0.809599 9.8018L2.10735 8.27895C2.26155 8.09802 2.35476 7.87299 2.37366 7.63603L2.53282 5.64156C2.6652 3.98258 3.98258 2.6652 5.64158 2.53281L7.63605 2.37364C7.87302 2.35473 8.09799 2.26156 8.27893 2.10736L9.80181 0.809608ZM12.7327 2.52926C12.3105 2.16945 11.6894 2.16944 11.2673 2.52926L9.74442 3.82703C9.2016 4.28961 8.5267 4.56915 7.81576 4.62588L5.82131 4.78505C5.26831 4.82918 4.82919 5.2683 4.78506 5.82131L4.62589 7.81582C4.56915 8.52672 4.28961 9.20158 3.82704 9.74441L2.52929 11.2672C2.16946 11.6894 2.16945 12.3105 2.52929 12.7327L3.82704 14.2555C4.28962 14.7983 4.56915 15.4733 4.62592 16.1842L4.78507 18.1786C4.82919 18.7316 5.26831 19.1709 5.82133 19.2149L7.81575 19.3741C8.52664 19.4308 9.2016 19.7104 9.74442 20.173L11.2673 21.4707C11.6895 21.8305 12.3105 21.8305 12.7327 21.4707L14.2557 20.1729C14.7984 19.7104 15.4732 19.4308 16.1842 19.3741L18.1787 19.2149C18.7316 19.1707 19.1709 18.7316 19.2149 18.1786L19.3741 16.1842C19.4308 15.4732 19.7103 14.7983 20.173 14.2556L21.4707 12.7327C21.8306 12.3105 21.8305 11.6895 21.4707 11.2672L20.1729 9.74441C19.7103 9.20158 19.4308 8.52669 19.3741 7.81578L19.2149 5.82131C19.1709 5.26831 18.7316 4.82918 18.1787 4.78505L16.1842 4.62589C15.4734 4.56917 14.7984 4.28959 14.2555 3.82702L12.7327 2.52926ZM15.195 7.20719L16.7926 8.80484L8.80444 16.7931L7.20681 15.1953L15.195 7.20719ZM10.0027 10.003C9.3409 10.6648 8.26798 10.6648 7.60622 10.003C6.94445 9.34133 6.94445 8.26836 7.60622 7.6066C8.26798 6.94483 9.3409 6.94483 10.0027 7.6066C10.6644 8.26836 10.6644 9.34133 10.0027 10.003ZM13.9967 16.3936C14.6585 17.0554 15.7314 17.0554 16.3932 16.3936C17.0549 15.7318 17.0549 14.6589 16.3932 13.9972C15.7314 13.3354 14.6585 13.3354 13.9967 13.9972C13.3349 14.6589 13.3349 15.7318 13.9967 16.3936Z" fill="url(#paint0_linear_552_6638)"/>
<defs>
<linearGradient id="paint0_linear_552_6638" x1="0" y1="0" x2="23.9999" y2="24" gradientUnits="userSpaceOnUse">
<stop stop-color="#F49062"/>
<stop offset="1" stop-color="#FD371F"/>
</linearGradient>
</defs>
</svg>
