<svg width="14" height="23" viewBox="0 0 14 23" fill="none" xmlns="http://www.w3.org/2000/svg">
<path fill-rule="evenodd" clip-rule="evenodd" d="M8.89087 1.27552V22.2755C8.89087 22.4911 8.71575 22.6663 8.50012 22.6663H1.00012C0.896522 22.6662 0.797191 22.625 0.723933 22.5517C0.650674 22.4784 0.609474 22.3791 0.609375 22.2755V1.27552C0.609375 1.05989 0.7845 0.884766 1.00012 0.884766H8.50012C8.71575 0.884766 8.89087 1.05989 8.89087 1.27552ZM8.10938 2.38477V1.66627H1.39087V21.8848H8.10938V21.1663H7.00012C6.89945 21.1619 6.80437 21.1188 6.73469 21.046C6.66502 20.9732 6.62612 20.8763 6.62612 20.7755C6.62612 20.6747 6.66502 20.5779 6.73469 20.5051C6.80437 20.4323 6.89945 20.3892 7.00012 20.3848H8.10938V19.6663H5.50012C5.39945 19.6619 5.30437 19.6188 5.23469 19.546C5.16502 19.4732 5.12612 19.3763 5.12612 19.2755C5.12612 19.1747 5.16502 19.0779 5.23469 19.0051C5.30437 18.9323 5.39945 18.8892 5.50012 18.8848H8.10938V18.1663H7.00012C6.89945 18.1619 6.80437 18.1188 6.73469 18.046C6.66502 17.9732 6.62612 17.8763 6.62612 17.7755C6.62612 17.6747 6.66502 17.5779 6.73469 17.5051C6.80437 17.4323 6.89945 17.3892 7.00012 17.3848H8.10938V16.6663H5.50012C5.39945 16.6619 5.30437 16.6188 5.23469 16.546C5.16502 16.4732 5.12612 16.3763 5.12612 16.2755C5.12612 16.1747 5.16502 16.0779 5.23469 16.0051C5.30437 15.9323 5.39945 15.8892 5.50012 15.8848H8.10938V15.1663H7.00012C6.89945 15.1619 6.80437 15.1188 6.73469 15.046C6.66502 14.9732 6.62612 14.8763 6.62612 14.7755C6.62612 14.6747 6.66502 14.5779 6.73469 14.5051C6.80437 14.4323 6.89945 14.3892 7.00012 14.3848H8.10938V13.6663H5.50012C5.39945 13.6619 5.30437 13.6188 5.23469 13.546C5.16502 13.4732 5.12612 13.3763 5.12612 13.2755C5.12612 13.1747 5.16502 13.0779 5.23469 13.0051C5.30437 12.9323 5.39945 12.8892 5.50012 12.8848H8.10938V12.1663H7.00012C6.89945 12.1619 6.80437 12.1188 6.73469 12.046C6.66502 11.9732 6.62612 11.8763 6.62612 11.7755C6.62612 11.6747 6.66502 11.5779 6.73469 11.5051C6.80437 11.4323 6.89945 11.3892 7.00012 11.3848H8.10938V10.6663H5.50012C5.39945 10.6619 5.30437 10.6188 5.23469 10.546C5.16502 10.4732 5.12612 10.3763 5.12612 10.2755C5.12612 10.1747 5.16502 10.0779 5.23469 10.0051C5.30437 9.93227 5.39945 9.88918 5.50012 9.88477H8.10938V9.16627H7.00012C6.89945 9.16185 6.80437 9.11876 6.73469 9.04596C6.66502 8.97316 6.62612 8.87628 6.62612 8.77552C6.62612 8.67475 6.66502 8.57787 6.73469 8.50507C6.80437 8.43227 6.89945 8.38918 7.00012 8.38477H8.10938V7.66627H5.50012C5.39945 7.66185 5.30437 7.61876 5.23469 7.54596C5.16502 7.47316 5.12612 7.37628 5.12612 7.27552C5.12612 7.17475 5.16502 7.07787 5.23469 7.00507C5.30437 6.93227 5.39945 6.88918 5.50012 6.88477H8.10938V6.16627H7.00012C6.89945 6.16185 6.80437 6.11876 6.73469 6.04596C6.66502 5.97316 6.62612 5.87628 6.62612 5.77552C6.62612 5.67475 6.66502 5.57787 6.73469 5.50507C6.80437 5.43227 6.89945 5.38918 7.00012 5.38477H8.10938V4.66627H5.50012C5.39945 4.66185 5.30437 4.61876 5.23469 4.54596C5.16502 4.47316 5.12612 4.37628 5.12612 4.27552C5.12612 4.17475 5.16502 4.07787 5.23469 4.00507C5.30437 3.93227 5.39945 3.88918 5.50012 3.88477H8.10938V3.16627H7.00012C6.89945 3.16185 6.80437 3.11876 6.73469 3.04596C6.66502 2.97316 6.62612 2.87628 6.62612 2.77552C6.62612 2.67475 6.66502 2.57787 6.73469 2.50507C6.80437 2.43227 6.89945 2.38918 7.00012 2.38477H8.10938ZM11.1094 2.21864L10.2765 3.05189C10.2031 3.12503 10.1037 3.1661 10.0001 3.1661C9.89652 3.1661 9.79713 3.12503 9.72375 3.05189C9.65061 2.97851 9.60954 2.87912 9.60954 2.77552C9.60954 2.67191 9.65061 2.57252 9.72375 2.49914L11.2238 0.999141C11.2971 0.926 11.3965 0.88493 11.5001 0.88493C11.6037 0.88493 11.7031 0.926 11.7765 0.999141L13.2765 2.49914C13.3496 2.57252 13.3907 2.67191 13.3907 2.77552C13.3907 2.87912 13.3496 2.97851 13.2765 3.05189C13.2031 3.12503 13.1037 3.1661 13.0001 3.1661C12.8965 3.1661 12.7971 3.12503 12.7238 3.05189L11.8909 2.21864V21.3324L12.7238 20.4991C12.7971 20.426 12.8965 20.3849 13.0001 20.3849C13.1037 20.3849 13.2031 20.426 13.2765 20.4991C13.3496 20.5725 13.3907 20.6719 13.3907 20.7755C13.3907 20.8791 13.3496 20.9785 13.2765 21.0519L11.7765 22.5519C11.7031 22.625 11.6037 22.6661 11.5001 22.6661C11.3965 22.6661 11.2971 22.625 11.2238 22.5519L9.72375 21.0519C9.65061 20.9785 9.60954 20.8791 9.60954 20.7755C9.60954 20.6719 9.65061 20.5725 9.72375 20.4991C9.79713 20.426 9.89652 20.3849 10.0001 20.3849C10.1037 20.3849 10.2031 20.426 10.2765 20.4991L11.1094 21.3324V2.21864Z" fill="#181D27"/>
</svg>
