<svg width="20" height="20" viewBox="0 0 20 20" fill="none" xmlns="http://www.w3.org/2000/svg">
<path d="M4.3039 3.03131L11.2726 10L10 11.2726L4.312 5.5846C3.25198 6.95167 2.71958 8.65469 2.81221 10.3821C2.90485 12.1095 3.61632 13.7458 4.81647 14.9917C6.01661 16.2376 7.6252 17.0097 9.34795 17.1668C11.0707 17.3239 12.7924 16.8555 14.1981 15.8473C15.6039 14.8391 16.5996 13.3585 17.0032 11.6763C17.4068 9.99418 17.1912 8.22295 16.396 6.68668C15.6008 5.15041 14.279 3.95181 12.6725 3.31016C11.066 2.66851 9.28219 2.62671 7.6474 3.19241L6.265 1.81001C7.43733 1.27474 8.71126 0.998462 10 1.00001C14.9707 1.00001 19 5.02931 19 10C19 14.9707 14.9707 19 10 19C5.0293 19 1 14.9707 1 10C0.998648 8.66598 1.29446 7.34841 1.86595 6.14301C2.43744 4.9376 3.27026 3.87462 4.3039 3.03131V3.03131Z" fill="#525866"/>
</svg>
