<svg width="1440" height="753" viewBox="0 0 1440 753" fill="none" xmlns="http://www.w3.org/2000/svg">
<g clip-path="url(#clip0_382_4518)">
<rect width="1440" height="753" fill="white"/>
<rect width="1440" height="900" fill="#F4F8FE"/>
<g clip-path="url(#clip1_382_4518)">
<rect width="1440" height="900" fill="#F4F8FE"/>
<g opacity="0.7" filter="url(#filter0_f_382_4518)">
<ellipse cx="356.671" cy="773.595" rx="487.494" ry="171.078" transform="rotate(-12.7084 356.671 773.595)" fill="#FF9954"/>
</g>
<g opacity="0.7" filter="url(#filter1_f_382_4518)">
<ellipse cx="1150.57" cy="844.461" rx="524.881" ry="183.43" transform="rotate(-22.1653 1150.57 844.461)" fill="#FFB0CA"/>
</g>
<mask id="mask0_382_4518" style="mask-type:alpha" maskUnits="userSpaceOnUse" x="-116" y="269" width="1673" height="943">
<ellipse cx="720.201" cy="740.442" rx="836.201" ry="471.442" fill="#D9D9D9"/>
</mask>
<g mask="url(#mask0_382_4518)">
<path d="M-32.6516 1493.3V-12.6108M-3.69183 1493.3V-12.6108M25.2679 1493.3V-12.6108M54.2277 1493.3V-12.6108M83.1874 1493.3V-12.6108M112.147 1493.3V-12.6108M141.107 1493.3V-12.6108M170.067 1493.3V-12.6108M199.026 1493.3V-12.6108M227.986 1493.3V-12.6108M256.946 1493.3V-12.6108M285.906 1493.3V-12.6108M314.866 1493.3V-12.6108M343.825 1493.3V-12.6108M372.785 1493.3V-12.6108M401.745 1493.3V-12.6108M430.705 1493.3V-12.6108M459.664 1493.3V-12.6108M488.624 1493.3V-12.6108M517.584 1493.3V-12.6108M546.544 1493.3V-12.6108M575.503 1493.3V-12.6108M604.463 1493.3V-12.6108M633.423 1493.3V-12.6108M662.383 1493.3V-12.6108M691.342 1493.3V-12.6108M720.302 1493.3V-12.6108M-32.8477 740.539L1473.06 740.539M-32.8477 769.499L1473.06 769.499M-32.8477 798.458L1473.06 798.459M-32.8477 827.418L1473.06 827.418M-32.8477 856.378H1473.06M-32.8477 885.338H1473.06M-32.8477 914.298H1473.06M-32.8477 943.257H1473.06M-32.8477 972.217L1473.06 972.217M-32.8477 1001.18H1473.06M-32.8477 1030.14H1473.06M-32.8477 1059.1H1473.06M-32.8477 1088.06H1473.06M-32.8477 1117.02H1473.06M-32.8477 1145.98H1473.06M-32.8477 1174.94L1473.06 1174.94M-32.8477 1203.9L1473.06 1203.9M-32.8477 1232.85L1473.06 1232.85M-32.8477 1261.81H1473.06M-32.8477 1290.77H1473.06M-32.8477 1319.73H1473.06M-32.8477 1348.69H1473.06M-32.8477 1377.65L1473.06 1377.65M-32.8477 1406.61L1473.06 1406.61M-32.8477 1435.57L1473.06 1435.57M-32.8477 1464.53H1473.06M-32.8477 1493.49H1473.06M-32.8477 -12.4148L1473.06 -12.4148M-32.8477 16.545L1473.06 16.545M-32.8477 45.5047L1473.06 45.5048M-32.8477 74.4645L1473.06 74.4645M-32.8477 103.424L1473.06 103.424M-32.8477 132.384L1473.06 132.384M-32.8477 161.344L1473.06 161.344M-32.8477 190.304L1473.06 190.304M-32.8477 219.263L1473.06 219.263M-32.8477 248.223L1473.06 248.223M-32.8477 277.183L1473.06 277.183M-32.8477 306.143L1473.06 306.143M-32.8477 335.102L1473.06 335.102M-32.8477 364.062L1473.06 364.062M-32.8477 393.022L1473.06 393.022M-32.8477 421.982L1473.06 421.982M-32.8477 450.941L1473.06 450.941M-32.8477 479.901L1473.06 479.901M-32.8477 508.861L1473.06 508.861M-32.8477 537.821L1473.06 537.821M-32.8477 566.78L1473.06 566.78M-32.8477 595.74L1473.06 595.74M-32.8477 624.7L1473.06 624.7M-32.8477 653.66L1473.06 653.66M-32.8477 682.619L1473.06 682.619M-32.8477 711.579L1473.06 711.579M749.262 1493.3V-12.6108M778.222 1493.3V-12.6108M807.181 1493.3V-12.6108M836.141 1493.3V-12.6108M865.101 1493.3V-12.6108M894.061 1493.3V-12.6108M923.02 1493.3V-12.6108M951.98 1493.3V-12.6108M980.94 1493.3V-12.6108M1009.9 1493.3V-12.6108M1038.86 1493.3V-12.6108M1067.82 1493.3V-12.6108M1096.78 1493.3V-12.6108M1125.74 1493.3V-12.6108M1154.7 1493.3V-12.6108M1183.66 1493.3V-12.6108M1212.62 1493.3V-12.6108M1241.58 1493.3V-12.6108M1270.54 1493.3V-12.6108M1299.5 1493.3V-12.6108M1328.46 1493.3V-12.6108M1357.42 1493.3V-12.6108M1386.38 1493.3V-12.6108M1415.34 1493.3V-12.6108M1444.3 1493.3V-12.6108M1473.26 1493.3V-12.6108" stroke="white" stroke-opacity="0.7" stroke-width="0.784429"/>
</g>
</g>
</g>
<defs>
<filter id="filter0_f_382_4518" x="-594.906" y="100.681" width="1903.16" height="1345.83" filterUnits="userSpaceOnUse" color-interpolation-filters="sRGB">
<feFlood flood-opacity="0" result="BackgroundImageFix"/>
<feBlend mode="normal" in="SourceGraphic" in2="BackgroundImageFix" result="shape"/>
<feGaussianBlur stdDeviation="237.258" result="effect1_foregroundBlur_382_4518"/>
</filter>
<filter id="filter1_f_382_4518" x="306.825" y="230.858" width="1687.5" height="1227.21" filterUnits="userSpaceOnUse" color-interpolation-filters="sRGB">
<feFlood flood-opacity="0" result="BackgroundImageFix"/>
<feBlend mode="normal" in="SourceGraphic" in2="BackgroundImageFix" result="shape"/>
<feGaussianBlur stdDeviation="176.346" result="effect1_foregroundBlur_382_4518"/>
</filter>
<clipPath id="clip0_382_4518">
<rect width="1440" height="753" fill="white"/>
</clipPath>
<clipPath id="clip1_382_4518">
<rect width="1440" height="900" fill="white"/>
</clipPath>
</defs>
</svg>
