<svg width="20" height="20" viewBox="0 0 20 20" fill="none" xmlns="http://www.w3.org/2000/svg">
<path d="M6.25 6.25V3.25C6.25 3.05109 6.32902 2.86032 6.46967 2.71967C6.61032 2.57902 6.80109 2.5 7 2.5H16.75C16.9489 2.5 17.1397 2.57902 17.2803 2.71967C17.421 2.86032 17.5 3.05109 17.5 3.25V13C17.5 13.1989 17.421 13.3897 17.2803 13.5303C17.1397 13.671 16.9489 13.75 16.75 13.75H13.75V16.7448C13.75 17.1618 13.4133 17.5 12.9948 17.5H3.25525C3.15604 17.5001 3.05779 17.4806 2.96611 17.4427C2.87444 17.4048 2.79114 17.3492 2.72099 17.279C2.65084 17.2089 2.59521 17.1256 2.55729 17.0339C2.51937 16.9422 2.4999 16.844 2.5 16.7448L2.50225 7.00525C2.50225 6.58825 2.839 6.25 3.2575 6.25H6.25ZM7.75 6.25H12.9948C13.4118 6.25 13.75 6.58675 13.75 7.00525V12.25H16V4H7.75V6.25ZM4.00225 7.75L4 16H12.25V7.75H4.00225Z" fill="#525866"/>
</svg>
