<svg width="21" height="20" viewBox="0 0 21 20" fill="none" xmlns="http://www.w3.org/2000/svg">
<path d="M7.94765 12.0831C8.20782 12.5786 8.72732 12.9165 9.32574 12.9165H11.1035C12.024 12.9165 12.7702 12.1703 12.7702 11.2498C12.7702 10.3293 12.024 9.58314 11.1035 9.58314H9.43685C8.51637 9.58314 7.77018 8.83695 7.77018 7.91648C7.77018 6.996 8.51637 6.24981 9.43685 6.24981H11.2146C11.813 6.24981 12.3325 6.58772 12.5927 7.08314M10.2702 4.99981V6.24981M10.2702 12.9165V14.1665M16.9368 9.99981C16.9368 14.0902 12.4752 17.0651 10.8518 18.0122C10.6673 18.1198 10.5751 18.1737 10.4449 18.2016C10.3439 18.2232 10.1965 18.2232 10.0954 18.2016C9.96526 18.1737 9.87302 18.1198 9.68852 18.0122C8.06515 17.0651 3.60352 14.0902 3.60352 9.99981V6.01448C3.60352 5.34822 3.60352 5.01509 3.71248 4.72873C3.80874 4.47576 3.96517 4.25004 4.16823 4.07109C4.3981 3.86851 4.71001 3.75154 5.33385 3.5176L9.80202 1.84204C9.97526 1.77707 10.0619 1.74459 10.151 1.73171C10.23 1.72029 10.3103 1.72029 10.3894 1.73171C10.4785 1.74459 10.5651 1.77707 10.7383 1.84204L15.2065 3.5176C15.8304 3.75154 16.1423 3.86851 16.3721 4.07109C16.5752 4.25004 16.7316 4.47576 16.8279 4.72873C16.9368 5.01509 16.9368 5.34822 16.9368 6.01448V9.99981Z" stroke="white" stroke-width="1.21154" stroke-linecap="round" stroke-linejoin="round"/>
</svg>
