<svg width="32" height="33" viewBox="0 0 32 33" fill="none" xmlns="http://www.w3.org/2000/svg">
<path d="M21.3351 12.5001V8.50008C21.3351 5.55456 18.9473 3.16675 16.0018 3.16675C13.0563 3.16675 10.6685 5.55456 10.6685 8.50008V12.5001M4.79113 14.3027L3.99113 22.836C3.76367 25.2623 3.64994 26.4754 4.05253 27.4124C4.40619 28.2356 5.02595 28.9162 5.81249 29.3451C6.70783 29.8334 7.92628 29.8334 10.3632 29.8334H21.6404C24.0773 29.8334 25.2958 29.8334 26.1911 29.3451C26.9776 28.9162 27.5974 28.2356 27.9511 27.4124C28.3536 26.4754 28.2399 25.2623 28.0125 22.836L27.2125 14.3027C27.0204 12.2539 26.9243 11.2295 26.4636 10.455C26.0578 9.77286 25.4582 9.2269 24.7412 8.88654C23.9271 8.50008 22.8982 8.50008 20.8404 8.50008L11.1632 8.50008C9.10538 8.50008 8.07648 8.50008 7.26235 8.88654C6.54535 9.22689 5.9458 9.77286 5.54001 10.455C5.07925 11.2295 4.98321 12.2539 4.79113 14.3027Z" stroke="#181D27" stroke-width="2.66667" stroke-linecap="round" stroke-linejoin="round"/>
</svg>
