<svg width="16" height="14" viewBox="0 0 16 14" fill="none" xmlns="http://www.w3.org/2000/svg">
<path d="M7.63067 0.787875C7.76731 0.459358 8.23269 0.459357 8.36933 0.787874L10.0222 4.76186C10.0798 4.90035 10.21 4.99498 10.3596 5.00697L14.6498 5.35091C15.0045 5.37935 15.1483 5.82195 14.8781 6.05342L11.6094 8.85342C11.4954 8.951 11.4457 9.10411 11.4805 9.25001L12.4791 13.4366C12.5617 13.7827 12.1852 14.0562 11.8816 13.8707L8.2085 11.6273C8.0805 11.5491 7.9195 11.5491 7.7915 11.6273L4.11845 13.8707C3.81481 14.0562 3.43831 13.7827 3.52086 13.4366L4.51951 9.25001C4.55431 9.10411 4.50456 8.951 4.39065 8.85342L1.12193 6.05342C0.851716 5.82195 0.995526 5.37935 1.35019 5.35091L5.64044 5.00697C5.78995 4.99498 5.9202 4.90035 5.9778 4.76186L7.63067 0.787875Z" fill="#FDB022"/>
</svg>
