<svg width="18" height="17" viewBox="0 0 18 17" fill="none" xmlns="http://www.w3.org/2000/svg">
<path d="M3.375 16V12.25M3.375 4.75V1M1.5 2.875H5.25M1.5 14.125H5.25M9.75 1.75L8.44937 5.13165C8.23786 5.68157 8.1321 5.95653 7.96765 6.18781C7.82189 6.3928 7.6428 6.57189 7.43781 6.71765C7.20653 6.8821 6.93157 6.98786 6.38165 7.19937L3 8.5L6.38165 9.80063C6.93157 10.0121 7.20653 10.1179 7.43781 10.2824C7.6428 10.4281 7.82189 10.6072 7.96765 10.8122C8.1321 11.0435 8.23786 11.3184 8.44937 11.8684L9.75 15.25L11.0506 11.8684C11.2621 11.3184 11.3679 11.0435 11.5324 10.8122C11.6781 10.6072 11.8572 10.4281 12.0622 10.2824C12.2935 10.1179 12.5684 10.0121 13.1184 9.80063L16.5 8.5L13.1184 7.19937C12.5684 6.98786 12.2935 6.8821 12.0622 6.71765C11.8572 6.57189 11.6781 6.3928 11.5324 6.18781C11.3679 5.95653 11.2621 5.68157 11.0506 5.13165L9.75 1.75Z" stroke="#0E121B" stroke-width="1.5" stroke-linecap="round" stroke-linejoin="round"/>
</svg>
