<svg width="21" height="20" viewBox="0 0 21 20" fill="none" xmlns="http://www.w3.org/2000/svg">
<path d="M12.2062 3.3335H8.86671C5.7182 3.3335 4.14395 3.3335 3.16583 4.30981C2.43364 5.04065 2.24955 6.10493 2.20326 7.91219C2.19733 8.1439 2.38746 8.32906 2.61209 8.3878C3.32874 8.57522 3.85746 9.22606 3.85746 10.0002C3.85746 10.7743 3.32874 11.4251 2.61209 11.6125C2.38746 11.6713 2.19733 11.8564 2.20326 12.0881C2.24955 13.8954 2.43364 14.9597 3.16583 15.6905C4.14395 16.6668 5.7182 16.6668 8.86671 16.6668H12.2062C15.3547 16.6668 16.929 16.6668 17.9071 15.6905C18.6393 14.9597 18.8234 13.8954 18.8697 12.0881C18.8756 11.8564 18.6855 11.6713 18.4608 11.6125C17.7442 11.4251 17.2155 10.7743 17.2155 10.0002C17.2155 9.22606 17.7442 8.57522 18.4608 8.3878C18.6855 8.32906 18.8756 8.1439 18.8697 7.91219C18.8234 6.10493 18.6393 5.04065 17.9071 4.30981C16.929 3.3335 15.3547 3.3335 12.2062 3.3335Z" stroke="#535862" stroke-width="1.5"/>
<path d="M9.8254 8.35209C10.1421 7.78403 10.3004 7.5 10.5371 7.5C10.7738 7.5 10.9322 7.78403 11.2488 8.35209L11.3307 8.49906C11.4207 8.66048 11.4657 8.7412 11.5359 8.79445C11.606 8.84771 11.6934 8.86748 11.8681 8.90701L12.0272 8.94301C12.6421 9.08214 12.9496 9.1517 13.0228 9.38693C13.0959 9.62216 12.8863 9.86727 12.4671 10.3575L12.3586 10.4843C12.2395 10.6236 12.1799 10.6933 12.1531 10.7794C12.1263 10.8656 12.1354 10.9585 12.1534 11.1444L12.1698 11.3136C12.2331 11.9676 12.2648 12.2947 12.0733 12.4401C11.8818 12.5854 11.5939 12.4529 11.0182 12.1878L10.8692 12.1192C10.7056 12.0439 10.6238 12.0062 10.5371 12.0062C10.4504 12.0062 10.3686 12.0439 10.205 12.1192L10.056 12.1878C9.48028 12.4529 9.1924 12.5854 9.0009 12.4401C8.80939 12.2947 8.84108 11.9676 8.90446 11.3136L8.92086 11.1444C8.93887 10.9585 8.94787 10.8656 8.92108 10.7794C8.89428 10.6933 8.83472 10.6236 8.71559 10.4843L8.60713 10.3575C8.18792 9.86727 7.97832 9.62216 8.05146 9.38693C8.12461 9.1517 8.43207 9.08214 9.04699 8.94301L9.20608 8.90701C9.38082 8.86748 9.46819 8.84771 9.53835 8.79445C9.6085 8.7412 9.65349 8.66048 9.74348 8.49906L9.8254 8.35209Z" stroke="#535862" stroke-width="1.5"/>
</svg>
