<svg width="25" height="24" viewBox="0 0 25 24" fill="none" xmlns="http://www.w3.org/2000/svg">
<path d="M14.2732 4H10.2658C6.48762 4 4.59852 4 3.42478 5.17157C2.54614 6.04858 2.32524 7.32572 2.26969 9.49444C2.26257 9.77248 2.49074 9.99467 2.76029 10.0652C3.62027 10.2901 4.25474 11.0711 4.25474 12C4.25474 12.9289 3.62027 13.7099 2.76029 13.9348C2.49074 14.0053 2.26257 14.2275 2.26969 14.5056C2.32524 16.6743 2.54614 17.9514 3.42478 18.8284C4.59852 20 6.48762 20 10.2658 20H14.2732C18.0514 20 19.9405 20 21.1143 18.8284C21.9929 17.9514 22.2138 16.6743 22.2694 14.5056C22.2765 14.2275 22.0483 14.0053 21.7788 13.9348C20.9188 13.7099 20.2843 12.9289 20.2843 12C20.2843 11.0711 20.9188 10.2901 21.7788 10.0652C22.0483 9.99467 22.2765 9.77248 22.2694 9.49444C22.2138 7.32572 21.9929 6.04858 21.1143 5.17157C19.9405 4 18.0514 4 14.2732 4Z" stroke="white" stroke-width="1.5"/>
<path d="M11.4155 10.0225C11.7955 9.34084 11.9855 9 12.2695 9C12.5536 9 12.7436 9.34084 13.1236 10.0225L13.2219 10.1989C13.3299 10.3926 13.3839 10.4894 13.468 10.5533C13.5522 10.6172 13.6571 10.641 13.8668 10.6884L14.0577 10.7316C14.7956 10.8986 15.1645 10.982 15.2523 11.2643C15.3401 11.5466 15.0886 11.8407 14.5855 12.429L14.4554 12.5812C14.3124 12.7483 14.2409 12.8319 14.2088 12.9353C14.1766 13.0387 14.1874 13.1502 14.209 13.3733L14.2287 13.5763C14.3048 14.3612 14.3428 14.7536 14.113 14.9281C13.8832 15.1025 13.5377 14.9435 12.8468 14.6254L12.6681 14.5431C12.4718 14.4527 12.3736 14.4075 12.2695 14.4075C12.1655 14.4075 12.0673 14.4527 11.871 14.5431L11.6922 14.6254C11.0013 14.9435 10.6559 15.1025 10.4261 14.9281C10.1963 14.7536 10.2343 14.3612 10.3104 13.5763L10.33 13.3733C10.3516 13.1502 10.3624 13.0387 10.3303 12.9353C10.2981 12.8319 10.2267 12.7483 10.0837 12.5812L9.95356 12.429C9.45051 11.8407 9.19898 11.5466 9.28676 11.2643C9.37454 10.982 9.74349 10.8986 10.4814 10.7316L10.6723 10.6884C10.882 10.641 10.9868 10.6172 11.071 10.5533C11.1552 10.4894 11.2092 10.3926 11.3172 10.1989L11.4155 10.0225Z" stroke="white" stroke-width="1.5"/>
</svg>
