<svg width="20" height="16" viewBox="0 0 20 16" fill="none" xmlns="http://www.w3.org/2000/svg">
<path d="M8.33268 4.66683V3.8335M8.33268 8.41683V7.5835M8.33268 12.1668V11.3335M4.33268 1.3335H15.666C16.5994 1.3335 17.0661 1.3335 17.4227 1.51515C17.7363 1.67494 17.9912 1.92991 18.151 2.24351C18.3327 2.60003 18.3327 3.06674 18.3327 4.00016V5.0835C16.7219 5.0835 15.416 6.38933 15.416 8.00016C15.416 9.61099 16.7219 10.9168 18.3327 10.9168V12.0002C18.3327 12.9336 18.3327 13.4003 18.151 13.7568C17.9912 14.0704 17.7363 14.3254 17.4227 14.4852C17.0661 14.6668 16.5994 14.6668 15.666 14.6668H4.33268C3.39926 14.6668 2.93255 14.6668 2.57603 14.4852C2.26243 14.3254 2.00746 14.0704 1.84767 13.7568C1.66602 13.4003 1.66602 12.9336 1.66602 12.0002V10.9168C3.27685 10.9168 4.58268 9.61099 4.58268 8.00016C4.58268 6.38933 3.27685 5.0835 1.66602 5.0835V4.00016C1.66602 3.06674 1.66602 2.60003 1.84767 2.24351C2.00746 1.92991 2.26243 1.67494 2.57603 1.51515C2.93255 1.3335 3.39926 1.3335 4.33268 1.3335Z" stroke="#FF0055" stroke-width="1.5" stroke-linecap="round" stroke-linejoin="round"/>
</svg>
