<svg width="42" height="42" viewBox="0 0 42 42" fill="none" xmlns="http://www.w3.org/2000/svg">
<path d="M0 21C0 9.40202 9.40202 0 21 0C32.598 0 42 9.40202 42 21C42 32.598 32.598 42 21 42C9.40202 42 0 32.598 0 21Z" fill="#F5F5F5"/>
<path d="M29.7616 16.0151C28.6202 16.0151 27.5671 15.637 26.7214 14.9991C25.7515 14.2679 25.0546 13.1952 24.8085 11.9589C24.7468 11.648 24.7143 11.3321 24.7116 11.0151H21.4511V19.9245L21.4472 24.8046C21.4472 26.1093 20.5976 27.2155 19.4198 27.6046C19.067 27.7212 18.6955 27.7705 18.3245 27.7499C17.8339 27.7229 17.3741 27.5749 16.9745 27.3358C16.1241 26.8272 15.5476 25.9046 15.5319 24.8491C15.5073 23.1995 16.8409 21.8546 18.4893 21.8546C18.8147 21.8546 19.1272 21.9077 19.4198 22.0042V18.6937C19.1112 18.6479 18.7972 18.6241 18.4796 18.6241C16.6753 18.6241 14.9878 19.3741 13.7815 20.7253C12.8698 21.7464 12.3229 23.0491 12.2386 24.4151C12.128 26.2097 12.7847 27.9155 14.0581 29.1741C14.2452 29.3589 14.4417 29.5304 14.6472 29.6886C15.739 30.5288 17.0737 30.9843 18.4796 30.9843C18.7972 30.9843 19.1112 30.9608 19.4198 30.9151C20.7331 30.7206 21.9448 30.1194 22.9011 29.1741C24.0761 28.0128 24.7253 26.471 24.7323 24.83L24.7155 17.5425C25.2774 17.9759 25.8929 18.3348 26.5468 18.6104C27.5698 19.0421 28.6546 19.2608 29.771 19.2604V16.0144C29.7718 16.0151 29.7624 16.0151 29.7616 16.0151Z" fill="#181D27"/>
</svg>
