<svg width="18" height="18" viewBox="0 0 18 18" fill="none" xmlns="http://www.w3.org/2000/svg">
<path fill-rule="evenodd" clip-rule="evenodd" d="M3.23224 3.22409C6.39501 0.0657768 11.5364 0.0993584 14.7185 3.28148C17.902 6.46497 17.9342 11.6094 14.7718 14.7718C11.6094 17.9343 6.46494 17.902 3.28145 14.7185C1.39491 12.832 0.615865 10.2583 0.950392 7.81769C0.997267 7.47571 1.3125 7.23648 1.65448 7.28335C1.99646 7.33023 2.23569 7.64546 2.18881 7.98744C1.9055 10.0544 2.56485 12.2342 4.16533 13.8346C6.86906 16.5384 11.222 16.5539 13.8879 13.8879C16.5538 11.222 16.5383 6.8691 13.8346 4.16536C11.1323 1.46301 6.78241 1.44616 4.11612 4.10798L4.73921 4.11111C5.08438 4.11284 5.36279 4.39407 5.36106 4.73924C5.35932 5.08441 5.0781 5.36283 4.73293 5.36109L2.61163 5.35043C2.26891 5.34871 1.9915 5.0713 1.98978 4.72858L1.97912 2.60729C1.97739 2.26211 2.2558 1.98089 2.60097 1.97915C2.94615 1.97742 3.22737 2.25583 3.22911 2.601L3.23224 3.22409ZM8.9999 5.0416C9.34508 5.0416 9.6249 5.32142 9.6249 5.6666V8.74105L11.5252 10.6413C11.7693 10.8854 11.7693 11.2811 11.5252 11.5252C11.2811 11.7693 10.8854 11.7693 10.6413 11.5252L8.3749 9.25882V5.6666C8.3749 5.32142 8.65472 5.0416 8.9999 5.0416Z" fill="#FF6700"/>
</svg>
