<svg width="12" height="12" viewBox="0 0 12 12" fill="none" xmlns="http://www.w3.org/2000/svg">
<path d="M10 10V6.5M6 10V5M2 10L2 8M6.70334 2.51375L9.28756 3.48283M5.39939 2.70046L2.60011 4.79991M10.5303 3.21967C10.8232 3.51256 10.8232 3.98744 10.5303 4.28033C10.2374 4.57322 9.76256 4.57322 9.46967 4.28033C9.17678 3.98744 9.17678 3.51256 9.46967 3.21967C9.76256 2.92678 10.2374 2.92678 10.5303 3.21967ZM2.53033 4.71967C2.82322 5.01256 2.82322 5.48744 2.53033 5.78033C2.23744 6.07322 1.76256 6.07322 1.46967 5.78033C1.17678 5.48744 1.17678 5.01256 1.46967 4.71967C1.76256 4.42678 2.23744 4.42678 2.53033 4.71967ZM6.53033 1.71967C6.82322 2.01256 6.82322 2.48744 6.53033 2.78033C6.23744 3.07322 5.76256 3.07322 5.46967 2.78033C5.17678 2.48744 5.17678 2.01256 5.46967 1.71967C5.76256 1.42678 6.23744 1.42678 6.53033 1.71967Z" stroke="#717680" stroke-linecap="round" stroke-linejoin="round"/>
</svg>
