<svg width="20" height="17" viewBox="0 0 20 17" fill="none" xmlns="http://www.w3.org/2000/svg">
<path d="M13.3327 1.8898C14.5674 2.50343 15.416 3.77762 15.416 5.25C15.416 6.72238 14.5674 7.99657 13.3327 8.6102M14.9993 12.972C16.2589 13.5419 17.3931 14.4708 18.3327 15.6667M1.66602 15.6667C3.28809 13.6021 5.49033 12.3333 7.91602 12.3333C10.3417 12.3333 12.5439 13.6021 14.166 15.6667M11.666 5.25C11.666 7.32107 9.98708 9 7.91602 9C5.84495 9 4.16602 7.32107 4.16602 5.25C4.16602 3.17893 5.84495 1.5 7.91602 1.5C9.98708 1.5 11.666 3.17893 11.666 5.25Z" stroke="#FF0055" stroke-width="1.5" stroke-linecap="round" stroke-linejoin="round"/>
</svg>
