<svg width="14" height="20" viewBox="0 0 14 20" fill="none" xmlns="http://www.w3.org/2000/svg">
<path d="M4.49935 15.4165H9.49935M2.49935 1.6665H11.4993C11.9661 1.6665 12.1994 1.6665 12.3777 1.75733C12.5345 1.83723 12.662 1.96471 12.7419 2.12151C12.8327 2.29977 12.8327 2.53313 12.8327 2.99984V4.7286C12.8327 5.13625 12.8327 5.34008 12.7866 5.53189C12.7458 5.70195 12.6785 5.86453 12.5871 6.01365C12.484 6.18184 12.3399 6.32597 12.0516 6.61422L9.60882 9.05703C9.27881 9.38704 9.1138 9.55205 9.05198 9.74232C8.9976 9.90969 8.9976 10.09 9.05198 10.2574C9.1138 10.4476 9.27881 10.6126 9.60882 10.9426L12.0516 13.3855C12.3399 13.6737 12.484 13.8178 12.5871 13.986C12.6785 14.1352 12.7458 14.2977 12.7866 14.4678C12.8327 14.6596 12.8327 14.8634 12.8327 15.2711V16.9998C12.8327 17.4665 12.8327 17.6999 12.7419 17.8782C12.662 18.035 12.5345 18.1624 12.3777 18.2423C12.1994 18.3332 11.9661 18.3332 11.4993 18.3332H2.49935C2.03264 18.3332 1.79928 18.3332 1.62102 18.2423C1.46422 18.1624 1.33674 18.035 1.25684 17.8782C1.16602 17.6999 1.16602 17.4665 1.16602 16.9998V15.2711C1.16602 14.8634 1.16602 14.6596 1.21207 14.4678C1.25289 14.2977 1.32023 14.1352 1.41162 13.986C1.51468 13.8178 1.65881 13.6737 1.94706 13.3855L4.38987 10.9426C4.71989 10.6126 4.88489 10.4476 4.94672 10.2574C5.0011 10.09 5.0011 9.90969 4.94672 9.74232C4.88489 9.55205 4.71988 9.38704 4.38987 9.05703L1.94706 6.61422C1.65881 6.32597 1.51468 6.18184 1.41162 6.01365C1.32023 5.86453 1.25289 5.70195 1.21207 5.53189C1.16602 5.34008 1.16602 5.13625 1.16602 4.7286V2.99984C1.16602 2.53313 1.16602 2.29977 1.25684 2.12151C1.33674 1.96471 1.46422 1.83723 1.62102 1.75733C1.79928 1.6665 2.03264 1.6665 2.49935 1.6665Z" stroke="#FF0055" stroke-width="1.5" stroke-linecap="round" stroke-linejoin="round"/>
</svg>
