<svg width="19" height="18" viewBox="0 0 19 18" fill="none" xmlns="http://www.w3.org/2000/svg">
<path d="M12.5008 6.75V4.5C12.5008 2.84315 11.1576 1.5 9.50077 1.5C7.84391 1.5 6.50077 2.84315 6.50077 4.5V6.75M3.19477 7.76397L2.74477 12.564C2.61682 13.9287 2.55285 14.6111 2.7793 15.1382C2.97824 15.6012 3.32685 15.984 3.76928 16.2253C4.27291 16.5 4.95829 16.5 6.32905 16.5H12.6725C14.0432 16.5 14.7286 16.5 15.2323 16.2253C15.6747 15.984 16.0233 15.6012 16.2222 15.1382C16.4487 14.6111 16.3847 13.9287 16.2568 12.564L15.8068 7.76397C15.6987 6.61151 15.6447 6.03528 15.3855 5.59962C15.1573 5.21594 14.82 4.90883 14.4167 4.71738C13.9588 4.5 13.38 4.5 12.2225 4.5L6.77905 4.5C5.62153 4.5 5.04277 4.5 4.58483 4.71738C4.18151 4.90883 3.84427 5.21594 3.61601 5.59962C3.35683 6.03528 3.30281 6.61151 3.19477 7.76397Z" stroke="white" stroke-width="1.5" stroke-linecap="round" stroke-linejoin="round"/>
</svg>
