<svg width="23" height="51" viewBox="0 0 23 51" fill="none" xmlns="http://www.w3.org/2000/svg">
<path fill-rule="evenodd" clip-rule="evenodd" d="M21.0578 49.1192C13.4795 48.0699 7.96247 42.1077 5.44544 33.9582C4.41142 30.5853 4.26176 26.8445 4.6223 22.9333C5.28898 15.949 8.49309 9.88461 13.1666 5.46238C13.187 5.44193 13.1938 5.43512 13.2006 5.45556C13.2142 5.476 13.255 5.49644 13.2755 5.51007C13.3027 5.5237 13.3095 5.51007 13.2891 5.54414C8.32982 10.089 5.14612 17.3186 4.79918 24.6231C4.26176 35.0553 9.32303 44.295 16.9081 47.4771C18.1803 48.0154 19.5136 48.4242 20.9014 48.6354C20.9966 48.7581 21.051 48.9284 21.0578 49.1192Z" fill="#FF6700"/>
<path fill-rule="evenodd" clip-rule="evenodd" d="M2.1665 31.696C2.78555 32.4319 3.77196 33.1542 4.83319 32.8748C4.88761 32.9566 5.16653 33.3654 5.20735 33.4267C5.25496 33.5017 5.3434 33.5766 5.41143 33.5153C5.45225 33.4881 5.48626 33.4267 5.44544 33.3313C5.28898 33.1406 5.13932 32.9429 4.96244 32.7385C4.64952 31.0827 4.19373 29.9789 3.24134 28.8614C2.13929 27.5804 1.01002 27.008 0.309336 26.7695C0.207294 26.7423 0.112056 26.715 0.0100138 26.681C-0.0580141 27.3215 0.234506 28.255 0.4658 28.7865C0.914785 29.8767 1.40459 30.8306 2.1665 31.696Z" fill="#FF6700"/>
<path fill-rule="evenodd" clip-rule="evenodd" d="M11.2822 8.37192C11.1938 8.40599 10.6768 8.54227 10.6156 8.44006C10.5952 8.41281 10.6224 8.3106 10.67 8.30378C10.8605 8.28334 11.0714 8.26971 11.255 8.22883C11.5884 7.17949 12.5135 6.72295 13.3639 6.54579C14.3843 6.34137 15.5068 6.65481 16.7109 6.82516C16.7721 6.83879 16.8401 6.8456 16.8945 6.8456C16.8741 6.88649 16.8469 6.91374 16.8197 6.95463C16.3163 7.64283 15.5272 8.27653 14.7585 8.58997C14.2415 8.80802 13.6224 8.93067 13.0169 8.91022C12.3775 8.88297 11.8401 8.73988 11.2822 8.37192Z" fill="#FF6700"/>
<path fill-rule="evenodd" clip-rule="evenodd" d="M13.2755 5.50326C13.3163 5.51689 13.3163 5.50326 13.3911 5.46238C13.534 5.3261 13.6564 5.24433 13.7993 5.11486C14.6156 5.12168 15.3911 4.87638 16.1258 4.38577C16.4524 4.16773 16.7789 3.90199 17.051 3.58173C17.7041 2.8799 18.2279 1.85099 18.466 0.910671C18.4796 0.85616 18.4864 0.82209 18.4932 0.767578C18.432 0.794834 18.3775 0.82209 18.3163 0.849346C16.9966 1.38083 15.7177 1.62613 14.6564 2.65504C13.9353 3.34324 13.5612 4.17454 13.7108 4.97859C13.5476 5.10805 13.3775 5.2307 13.221 5.38061C13.153 5.44193 13.2346 5.50326 13.2755 5.50326Z" fill="#FF6700"/>
<path fill-rule="evenodd" clip-rule="evenodd" d="M8.47268 12.7669C8.38425 12.8146 7.88764 13.0735 7.81281 12.985C7.7788 12.9509 7.79241 12.8419 7.84002 12.8214C8.0237 12.7533 8.24139 12.7056 8.42506 12.6238C8.49309 11.8811 8.90806 11.1861 9.7312 10.7091C10.9897 10.0413 12.4183 10.1504 13.7653 10.0345C13.8333 10.0277 13.8945 10.0277 13.9557 10.0209C13.9353 10.0618 13.9149 10.0958 13.9013 10.1367C13.4523 10.9135 12.7244 11.7516 11.9829 12.2286C11.4863 12.5625 10.8741 12.8146 10.2618 12.9373C9.61555 13.0667 9.06453 12.9918 8.47268 12.7669Z" fill="#FF6700"/>
<path fill-rule="evenodd" clip-rule="evenodd" d="M1.88078 24.2279C2.28895 25.1478 3.02365 26.1563 4.09849 26.2244C4.1325 26.3198 4.32978 26.7627 4.357 26.8309C4.3774 26.9263 4.44543 27.0285 4.53387 26.9876C4.57469 26.9739 4.6155 26.9194 4.6087 26.824C4.50666 26.5787 4.3774 26.388 4.25495 26.1358C4.35019 24.446 4.25495 23.2127 3.60869 21.8226C2.87399 20.2213 1.86718 19.3015 1.24812 18.8517C1.17329 18.7836 1.08485 18.7291 0.996418 18.6746C0.85356 19.3287 0.901179 20.344 0.989615 20.93C1.14608 22.1156 1.39778 23.1581 1.88078 24.2279Z" fill="#FF6700"/>
<path fill-rule="evenodd" clip-rule="evenodd" d="M3.08487 17.4413C3.26175 18.4225 3.70393 19.4105 4.68353 19.8398C4.69714 19.942 4.80598 20.4189 4.81959 20.4939C4.81959 20.5961 4.8536 20.7119 4.94884 20.6983C4.97605 20.6915 5.04408 20.6642 5.05088 20.562C5.01006 20.3031 4.93523 20.0101 4.88761 19.7307C5.21415 18.5383 5.39102 17.4481 5.3366 16.2829C5.24816 14.6407 4.63591 13.2166 3.66991 12.0719C3.59508 11.9901 3.54066 11.9015 3.47263 11.8266C3.20052 12.3921 3.02365 13.3597 2.97603 13.9389C2.87399 15.1109 2.88079 16.2897 3.08487 17.4413Z" fill="#FF6700"/>
<path fill-rule="evenodd" clip-rule="evenodd" d="M5.55429 11.2474C5.52708 12.2559 5.77198 13.387 6.61552 14.0411C6.60872 14.1433 6.58831 14.6339 6.58831 14.7021C6.57471 14.7975 6.58151 14.9133 6.67675 14.9337C6.71076 14.9337 6.77199 14.9269 6.7924 14.8315C6.8128 14.5794 6.81961 14.191 6.83321 13.9116C7.55431 12.6851 7.94207 11.3496 7.95567 9.82329C7.98288 8.05848 7.54751 6.93418 7.20056 6.22554C7.15294 6.13014 7.10532 6.03475 7.0577 5.93935C6.67675 6.4027 6.3162 7.28851 6.15293 7.83362C5.8264 8.93748 5.5883 10.089 5.55429 11.2474Z" fill="#FF6700"/>
<path fill-rule="evenodd" clip-rule="evenodd" d="M9.29582 5.59184C9.07813 6.53898 9.13936 7.92902 9.84685 8.50139C9.81964 8.62404 9.75841 9.0465 9.75161 9.1419C9.7244 9.2441 9.70399 9.3395 9.78562 9.38038C9.81964 9.39401 9.84685 9.39401 9.88766 9.30543C9.93528 9.03969 9.94889 8.82164 9.98971 8.54909C10.9965 7.47248 11.568 6.40951 11.8877 4.95814C12.2074 3.43864 12.1598 2.23257 12.0237 1.38083C12.0101 1.27862 11.9829 1.17641 11.9557 1.06739C11.0714 1.77604 10.4455 2.70955 9.91488 3.77252C9.62916 4.3517 9.40467 4.94452 9.29582 5.59184Z" fill="#FF6700"/>
<path fill-rule="evenodd" clip-rule="evenodd" d="M6.21416 18.5656C6.13252 18.6405 5.68354 19.0698 5.5747 19.0153C5.54748 18.988 5.52708 18.8449 5.5747 18.8177C5.74476 18.6814 5.96245 18.5792 6.13252 18.4497C6.0781 17.6321 6.26178 16.8008 7.00328 16.024C8.14615 14.9133 9.66317 14.5385 11.0441 13.9662C11.1054 13.9389 11.1666 13.9048 11.2414 13.8776C11.2278 13.9253 11.221 13.9798 11.2006 14.0275C10.9285 14.9814 10.3843 16.0921 9.7244 16.8416C9.29582 17.3459 8.71759 17.8297 8.11214 18.1499C7.47948 18.4906 6.88083 18.5996 6.21416 18.5656Z" fill="#FF6700"/>
<path fill-rule="evenodd" clip-rule="evenodd" d="M5.26177 25.2228C5.20054 25.3318 4.83999 25.9178 4.72435 25.8905C4.67673 25.8905 4.62911 25.7474 4.66312 25.6929C4.81278 25.4953 5.00326 25.3386 5.13251 25.1342C4.90122 24.3847 5.01006 23.3012 5.56789 22.2655C6.45226 20.7528 7.74479 20.0169 8.9965 18.9608C9.05092 18.9063 9.10534 18.8586 9.16657 18.7972C9.17337 18.8449 9.18017 18.8994 9.17337 18.9608C9.14616 19.9965 8.87405 21.2979 8.39105 22.2792C8.07812 22.9401 7.61553 23.6011 7.08492 24.153C6.53389 24.7049 5.94885 25.0252 5.26177 25.2228Z" fill="#FF6700"/>
<path fill-rule="evenodd" clip-rule="evenodd" d="M5.88762 31.7505C5.84 31.88 5.5951 32.575 5.47265 32.6023C5.43184 32.5954 5.3502 32.4932 5.38422 32.4183C5.48626 32.1866 5.60191 31.9209 5.69715 31.6824C5.27537 31.2803 5.13251 30.1629 5.47265 28.9909C6.03729 27.2738 7.2958 25.9859 8.30942 24.5618C8.35704 24.4937 8.40466 24.4255 8.45228 24.3574C8.46588 24.4051 8.47269 24.4596 8.48629 24.5141C8.66316 25.5158 8.64956 26.8445 8.37745 27.9279C8.19377 28.6502 7.87404 29.4474 7.45907 30.1288C7.03049 30.8511 6.52028 31.3485 5.88762 31.7505Z" fill="#FF6700"/>
<path fill-rule="evenodd" clip-rule="evenodd" d="M4.3706 39.3889C5.13932 39.8932 6.51348 40.2747 7.45907 39.6547C7.5339 39.7092 7.92846 39.9477 7.97608 39.9885C8.04411 40.0567 8.13935 40.1044 8.20057 40.009C8.23459 39.9681 8.25499 39.9 8.18697 39.825C7.98969 39.6887 7.772 39.6002 7.56111 39.4639C6.84001 37.9648 6.0645 36.9495 4.87401 36.2C3.51345 35.3278 2.37738 35.3142 1.64949 35.3142C1.54744 35.3142 1.4454 35.321 1.34336 35.321C1.52023 36.7996 3.35018 38.7552 4.3706 39.3889Z" fill="#FF6700"/>
<path fill-rule="evenodd" clip-rule="evenodd" d="M8.14615 38.2306C8.13935 38.326 8.09173 38.7484 8.0237 39.0073C8.00329 39.0823 7.99649 39.1913 7.89445 39.1504C7.85363 39.1436 7.81281 39.055 7.81281 39.0142C7.86043 38.762 7.90125 38.4759 7.92166 38.2237C7.45227 37.9239 7.08491 36.9427 7.01008 35.7367C7.09172 33.9173 7.90805 32.2684 8.56112 30.5513C8.58153 30.4763 8.60874 30.3945 8.63595 30.3128C8.66316 30.3537 8.67677 30.3945 8.70398 30.4354C9.13936 31.3349 9.47269 32.5954 9.49991 33.7334C9.52712 34.4761 9.41827 35.3414 9.20058 36.1455C8.96929 36.97 8.62915 37.6173 8.14615 38.2306Z" fill="#FF6700"/>
<path fill-rule="evenodd" clip-rule="evenodd" d="M8.53391 45.61C9.41827 45.7872 10.6156 45.7463 11.3639 44.7924C11.5543 44.8196 11.8605 44.8673 12.0578 44.8809C12.1122 44.8878 12.153 44.8469 12.1734 44.7787C12.187 44.731 12.1734 44.6697 12.085 44.622C11.8605 44.5743 11.636 44.5743 11.3979 44.5334C10.4047 43.3683 9.46589 42.7141 8.11214 42.4688C6.5475 42.1826 5.22095 42.5847 4.51346 42.8777C4.41822 42.9117 4.31618 42.9526 4.22774 43.0003C4.47945 43.5659 5.21415 44.145 5.67674 44.4244C6.5611 45.0104 7.46587 45.4329 8.53391 45.61Z" fill="#FF6700"/>
<path fill-rule="evenodd" clip-rule="evenodd" d="M11.6972 43.1502C11.7108 43.2524 11.7244 43.6613 11.7244 43.9338C11.7176 44.0088 11.738 44.111 11.636 44.1178C11.5884 44.1178 11.5339 44.0565 11.5339 44.0088C11.5135 43.7567 11.5271 43.4841 11.4863 43.2252C10.9625 43.0616 10.2686 42.2644 9.94889 41.1674C9.58154 39.4094 9.9829 37.5969 10.1734 35.7367C10.187 35.6549 10.1802 35.5731 10.187 35.4845C10.221 35.5186 10.2618 35.5527 10.2958 35.5868C10.9353 36.2886 11.5748 37.372 11.8809 38.435C12.0918 39.13 12.2006 39.9885 12.2006 40.813C12.187 41.6784 12.0101 42.4075 11.6972 43.1502Z" fill="#FF6700"/>
<path fill-rule="evenodd" clip-rule="evenodd" d="M16.6496 46.7275C16.6973 46.8025 16.7585 47.1432 16.8265 47.4021C16.8469 47.4634 16.8877 47.5588 16.7925 47.5929C16.7449 47.6133 16.6837 47.5725 16.67 47.5316C16.5816 47.3135 16.5816 47.0819 16.4728 46.8638C15.9626 46.9865 15.0782 46.3391 14.5 45.4942C13.6972 44.036 13.6088 42.3257 13.2959 40.5882C13.2891 40.5064 13.2618 40.4315 13.2482 40.3497C13.2891 40.3565 13.3299 40.3838 13.3707 40.3974C14.1394 40.7858 15.017 41.474 15.5816 42.3189C15.9694 42.864 16.3299 43.6204 16.534 44.3767C16.7449 45.174 16.7517 45.9303 16.6496 46.7275Z" fill="#FF6700"/>
<path fill-rule="evenodd" clip-rule="evenodd" d="M13.8673 49.971C14.7721 49.8483 15.9421 49.4327 16.4592 48.2743C16.6428 48.2198 16.9626 48.1857 17.153 48.1312C17.2075 48.1244 17.2347 48.0631 17.2415 47.9881C17.2415 47.9472 17.2143 47.8859 17.119 47.8723C16.8945 47.9063 16.67 47.9745 16.4183 48.0017C15.1054 47.2249 14.0442 46.8706 12.6632 47.0682C11.0782 47.2931 9.92168 48.0903 9.30263 48.6014C9.21419 48.6763 9.12575 48.7444 9.04412 48.8194C9.42507 49.2896 10.2822 49.603 10.7924 49.7393C11.7924 50.0187 12.772 50.1277 13.8673 49.971Z" fill="#FF6700"/>
</svg>
