<svg width="23" height="51" viewBox="0 0 23 51" fill="none" xmlns="http://www.w3.org/2000/svg">
<path fill-rule="evenodd" clip-rule="evenodd" d="M1.36133 49.1192C8.93964 48.0699 14.4567 42.1077 16.9737 33.9582C18.0078 30.5853 18.1574 26.8445 17.7969 22.9333C17.1302 15.949 13.9261 9.88461 9.25257 5.46238C9.23216 5.44193 9.22535 5.43512 9.21855 5.45556C9.20495 5.476 9.16413 5.49644 9.14372 5.51007C9.11651 5.5237 9.10971 5.51007 9.13012 5.54414C14.0893 10.089 17.2731 17.3186 17.62 24.6231C18.1574 35.0553 13.0961 44.295 5.51103 47.4771C4.23891 48.0154 2.90556 48.4242 1.51779 48.6354C1.42255 48.7581 1.36813 48.9284 1.36133 49.1192Z" fill="#FF6700"/>
<path fill-rule="evenodd" clip-rule="evenodd" d="M20.2527 31.696C19.6336 32.4319 18.6472 33.1542 17.586 32.8748C17.5316 32.9566 17.2526 33.3654 17.2118 33.4267C17.1642 33.5017 17.0758 33.5766 17.0077 33.5153C16.9669 33.4881 16.9329 33.4267 16.9737 33.3313C17.1302 33.1406 17.2799 32.9429 17.4567 32.7385C17.7697 31.0827 18.2254 29.9789 19.1778 28.8614C20.2799 27.5804 21.4092 27.008 22.1098 26.7695C22.2119 26.7423 22.3071 26.715 22.4092 26.6809C22.4772 27.3215 22.1847 28.255 21.9534 28.7864C21.5044 29.8767 21.0146 30.8306 20.2527 31.696Z" fill="#FF6700"/>
<path fill-rule="evenodd" clip-rule="evenodd" d="M11.1369 8.37192C11.2254 8.40599 11.7424 8.54227 11.8036 8.44006C11.824 8.41281 11.7968 8.3106 11.7492 8.30378C11.5587 8.28334 11.3478 8.26971 11.1641 8.22883C10.8308 7.17949 9.90563 6.72295 9.05528 6.54579C8.03486 6.34137 6.9124 6.65481 5.70831 6.82516C5.64709 6.83879 5.57906 6.8456 5.52464 6.8456C5.54504 6.88649 5.57225 6.91374 5.59947 6.95463C6.10287 7.64283 6.892 8.27653 7.66071 8.58997C8.17772 8.80801 8.79678 8.93067 9.40223 8.91022C10.0417 8.88297 10.5791 8.73987 11.1369 8.37192Z" fill="#FF6700"/>
<path fill-rule="evenodd" clip-rule="evenodd" d="M9.14372 5.50326C9.1029 5.51689 9.1029 5.50326 9.02807 5.46238C8.88521 5.3261 8.76276 5.24433 8.61991 5.11486C7.80357 5.12168 7.02805 4.87638 6.29335 4.38577C5.96682 4.16773 5.64028 3.90199 5.36817 3.58173C4.7151 2.8799 4.19129 1.85099 3.95319 0.910671C3.93959 0.85616 3.93278 0.82209 3.92598 0.767578C3.98721 0.794834 4.04163 0.82209 4.10285 0.849346C5.42259 1.38083 6.70152 1.62613 7.76275 2.65504C8.48385 3.34324 8.858 4.17454 8.70834 4.97859C8.87161 5.10805 9.04168 5.2307 9.19814 5.38061C9.26617 5.44193 9.18454 5.50326 9.14372 5.50326Z" fill="#FF6700"/>
<path fill-rule="evenodd" clip-rule="evenodd" d="M13.9465 12.7669C14.0349 12.8146 14.5315 13.0735 14.6064 12.985C14.6404 12.9509 14.6268 12.8419 14.5791 12.8214C14.3955 12.7533 14.1778 12.7056 13.9941 12.6238C13.9261 11.8811 13.5111 11.1861 12.688 10.7091C11.4295 10.0413 10.0009 10.1504 8.65392 10.0345C8.58589 10.0277 8.52466 10.0277 8.46344 10.0209C8.48385 10.0618 8.50426 10.0958 8.51786 10.1367C8.96685 10.9135 9.69475 11.7516 10.4362 12.2286C10.9329 12.5625 11.5451 12.8146 12.1574 12.9373C12.8036 13.0667 13.3546 12.9918 13.9465 12.7669Z" fill="#FF6700"/>
<path fill-rule="evenodd" clip-rule="evenodd" d="M20.5384 24.2279C20.1302 25.1478 19.3955 26.1563 18.3207 26.2244C18.2867 26.3198 18.0894 26.7627 18.0622 26.8309C18.0418 26.9263 17.9737 27.0285 17.8853 26.9876C17.8445 26.9739 17.8037 26.9194 17.8105 26.824C17.9125 26.5787 18.0418 26.3879 18.1642 26.1358C18.069 24.446 18.1642 23.2127 18.8105 21.8226C19.5452 20.2213 20.552 19.3015 21.1711 18.8517C21.2459 18.7836 21.3343 18.7291 21.4228 18.6746C21.5656 19.3287 21.518 20.344 21.4296 20.93C21.2731 22.1156 21.0214 23.1581 20.5384 24.2279Z" fill="#FF6700"/>
<path fill-rule="evenodd" clip-rule="evenodd" d="M19.3343 17.4413C19.1574 18.4225 18.7152 19.4105 17.7356 19.8398C17.722 19.942 17.6132 20.4189 17.5996 20.4939C17.5996 20.5961 17.5656 20.7119 17.4703 20.6983C17.4431 20.6915 17.3751 20.6642 17.3683 20.562C17.4091 20.3031 17.4839 20.0101 17.5316 19.7307C17.205 18.5383 17.0282 17.4481 17.0826 16.2829C17.171 14.6407 17.7833 13.2166 18.7493 12.0719C18.8241 11.9901 18.8785 11.9015 18.9465 11.8266C19.2187 12.3921 19.3955 13.3597 19.4431 13.9389C19.5452 15.1109 19.5384 16.2897 19.3343 17.4413Z" fill="#FF6700"/>
<path fill-rule="evenodd" clip-rule="evenodd" d="M16.8649 11.2474C16.8921 12.2559 16.6472 13.387 15.8037 14.0411C15.8105 14.1433 15.8309 14.6339 15.8309 14.7021C15.8445 14.7975 15.8377 14.9133 15.7424 14.9337C15.7084 14.9337 15.6472 14.9269 15.6268 14.8315C15.6064 14.5794 15.5996 14.191 15.586 13.9116C14.8649 12.6851 14.4771 11.3496 14.4635 9.82329C14.4363 8.05848 14.8717 6.93418 15.2186 6.22553C15.2662 6.13014 15.3139 6.03475 15.3615 5.93935C15.7424 6.4027 16.103 7.28851 16.2662 7.83362C16.5928 8.93748 16.8309 10.089 16.8649 11.2474Z" fill="#FF6700"/>
<path fill-rule="evenodd" clip-rule="evenodd" d="M13.1234 5.59184C13.341 6.53898 13.2798 7.92902 12.5723 8.50139C12.5995 8.62404 12.6608 9.0465 12.6676 9.1419C12.6948 9.2441 12.7152 9.3395 12.6336 9.38038C12.5995 9.39401 12.5723 9.39401 12.5315 9.30543C12.4839 9.03969 12.4703 8.82164 12.4295 8.54909C11.4227 7.47248 10.8512 6.40951 10.5315 4.95814C10.2118 3.43864 10.2594 2.23257 10.3954 1.38083C10.409 1.27862 10.4362 1.17641 10.4635 1.06739C11.3478 1.77604 11.9737 2.70955 12.5043 3.77252C12.79 4.3517 13.0145 4.94452 13.1234 5.59184Z" fill="#FF6700"/>
<path fill-rule="evenodd" clip-rule="evenodd" d="M16.205 18.5656C16.2866 18.6405 16.7356 19.0698 16.8445 19.0153C16.8717 18.988 16.8921 18.8449 16.8445 18.8177C16.6744 18.6814 16.4567 18.5792 16.2866 18.4497C16.3411 17.632 16.1574 16.8008 15.4159 16.024C14.273 14.9133 12.756 14.5385 11.375 13.9662C11.3138 13.9389 11.2526 13.9048 11.1778 13.8776C11.1914 13.9253 11.1982 13.9798 11.2186 14.0275C11.4907 14.9814 12.0349 16.0921 12.6948 16.8416C13.1234 17.3459 13.7016 17.8297 14.307 18.1499C14.9397 18.4906 15.5383 18.5996 16.205 18.5656Z" fill="#FF6700"/>
<path fill-rule="evenodd" clip-rule="evenodd" d="M17.1574 25.2228C17.2186 25.3318 17.5792 25.9178 17.6948 25.8905C17.7424 25.8905 17.7901 25.7474 17.7561 25.6929C17.6064 25.4953 17.4159 25.3386 17.2867 25.1342C17.518 24.3847 17.4091 23.3012 16.8513 22.2655C15.9669 20.7528 14.6744 20.0169 13.4227 18.9608C13.3683 18.9063 13.3138 18.8586 13.2526 18.7972C13.2458 18.8449 13.239 18.8994 13.2458 18.9608C13.273 19.9965 13.5451 21.2979 14.0281 22.2792C14.3411 22.9401 14.8036 23.6011 15.3343 24.153C15.8853 24.7049 16.4703 25.0252 17.1574 25.2228Z" fill="#FF6700"/>
<path fill-rule="evenodd" clip-rule="evenodd" d="M16.5316 31.7505C16.5792 31.88 16.8241 32.575 16.9465 32.6022C16.9873 32.5954 17.069 32.4932 17.035 32.4183C16.9329 32.1866 16.8173 31.9209 16.722 31.6824C17.1438 31.2803 17.2867 30.1629 16.9465 28.9909C16.3819 27.2738 15.1234 25.9859 14.1098 24.5618C14.0621 24.4937 14.0145 24.4255 13.9669 24.3574C13.9533 24.4051 13.9465 24.4596 13.9329 24.5141C13.756 25.5158 13.7696 26.8445 14.0417 27.9279C14.2254 28.6502 14.5451 29.4474 14.9601 30.1288C15.3887 30.8511 15.8989 31.3485 16.5316 31.7505Z" fill="#FF6700"/>
<path fill-rule="evenodd" clip-rule="evenodd" d="M18.0486 39.3889C17.2799 39.8932 15.9057 40.2747 14.9601 39.6547C14.8853 39.7092 14.4907 39.9477 14.4431 39.9885C14.3751 40.0567 14.2798 40.1044 14.2186 40.009C14.1846 39.9681 14.1642 39.9 14.2322 39.825C14.4295 39.6887 14.6472 39.6002 14.8581 39.4639C15.5792 37.9648 16.3547 36.9495 17.5452 36.2C18.9057 35.3278 20.0418 35.3142 20.7697 35.3142C20.8717 35.3142 20.9738 35.321 21.0758 35.321C20.8989 36.7996 19.069 38.7552 18.0486 39.3889Z" fill="#FF6700"/>
<path fill-rule="evenodd" clip-rule="evenodd" d="M14.273 38.2306C14.2798 38.326 14.3274 38.7484 14.3955 39.0073C14.4159 39.0823 14.4227 39.1913 14.5247 39.1504C14.5655 39.1436 14.6064 39.055 14.6064 39.0142C14.5587 38.762 14.5179 38.4759 14.4975 38.2237C14.9669 37.9239 15.3343 36.9427 15.4091 35.7367C15.3275 33.9173 14.5111 32.2684 13.8581 30.5513C13.8376 30.4763 13.8104 30.3945 13.7832 30.3128C13.756 30.3537 13.7424 30.3945 13.7152 30.4354C13.2798 31.3349 12.9465 32.5954 12.9193 33.7334C12.8921 34.4761 13.0009 35.3414 13.2186 36.1455C13.4499 36.97 13.79 37.6173 14.273 38.2306Z" fill="#FF6700"/>
<path fill-rule="evenodd" clip-rule="evenodd" d="M13.8853 45.61C13.0009 45.7872 11.8036 45.7463 11.0553 44.7924C10.8648 44.8196 10.5587 44.8673 10.3614 44.8809C10.307 44.8878 10.2662 44.8469 10.2458 44.7787C10.2322 44.731 10.2458 44.6697 10.3342 44.622C10.5587 44.5743 10.7832 44.5743 11.0213 44.5334C12.0145 43.3683 12.9533 42.7141 14.307 42.4688C15.8717 42.1826 17.1982 42.5847 17.9057 42.8777C18.001 42.9117 18.103 42.9526 18.1914 43.0003C17.9397 43.5659 17.205 44.145 16.7424 44.4244C15.8581 45.0104 14.9533 45.4329 13.8853 45.61Z" fill="#FF6700"/>
<path fill-rule="evenodd" clip-rule="evenodd" d="M10.722 43.1502C10.7084 43.2524 10.6948 43.6613 10.6948 43.9338C10.7016 44.0088 10.6812 44.111 10.7832 44.1178C10.8308 44.1178 10.8852 44.0565 10.8852 44.0088C10.9056 43.7566 10.892 43.4841 10.9329 43.2252C11.4567 43.0616 12.1506 42.2644 12.4703 41.1674C12.8376 39.4094 12.4363 37.5969 12.2458 35.7367C12.2322 35.6549 12.239 35.5731 12.2322 35.4845C12.1982 35.5186 12.1574 35.5527 12.1233 35.5868C11.4839 36.2886 10.8444 37.372 10.5383 38.435C10.3274 39.13 10.2186 39.9885 10.2186 40.813C10.2322 41.6784 10.409 42.4075 10.722 43.1502Z" fill="#FF6700"/>
<path fill-rule="evenodd" clip-rule="evenodd" d="M5.76954 46.7275C5.72192 46.8025 5.66069 47.1432 5.59267 47.4021C5.57226 47.4634 5.53144 47.5588 5.62668 47.5929C5.6743 47.6133 5.73552 47.5725 5.74913 47.5316C5.83756 47.3135 5.83756 47.0819 5.94641 46.8638C6.45662 46.9865 7.34098 46.3391 7.91922 45.4942C8.72195 44.036 8.81038 42.3257 9.12331 40.5882C9.13012 40.5064 9.15733 40.4315 9.17093 40.3497C9.13011 40.3565 9.0893 40.3838 9.04848 40.3974C8.27977 40.7858 7.40221 41.474 6.83757 42.3189C6.44982 42.864 6.08927 43.6204 5.88518 44.3767C5.6743 45.174 5.66749 45.9303 5.76954 46.7275Z" fill="#FF6700"/>
<path fill-rule="evenodd" clip-rule="evenodd" d="M8.55188 49.971C7.64711 49.8483 6.47703 49.4327 5.96002 48.2743C5.77634 48.2198 5.45661 48.1857 5.26613 48.1312C5.21171 48.1244 5.1845 48.0631 5.17769 47.9881C5.17769 47.9472 5.20491 47.8859 5.30014 47.8723C5.52464 47.9063 5.74913 47.9745 6.00083 48.0017C7.31377 47.2249 8.37501 46.8706 9.75597 47.0682C11.341 47.2931 12.4975 48.0903 13.1165 48.6014C13.205 48.6763 13.2934 48.7444 13.3751 48.8194C12.9941 49.2896 12.1369 49.603 11.6267 49.7393C10.6267 50.0187 9.64713 50.1277 8.55188 49.971Z" fill="#FF6700"/>
</svg>
