<svg width="21" height="20" viewBox="0 0 21 20" fill="none" xmlns="http://www.w3.org/2000/svg">
<g clip-path="url(#clip0_555_8536)">
<path d="M16.3463 2.92383H4.65374C2.35969 2.92383 0.5 4.78352 0.5 7.07757V12.9226C0.5 15.2166 2.35969 17.0763 4.65374 17.0763H16.3463C18.6403 17.0763 20.5 15.2166 20.5 12.9226V7.07757C20.5 4.78352 18.6403 2.92383 16.3463 2.92383ZM13.5371 10.2845L8.06814 12.8928C7.92241 12.9623 7.75408 12.8561 7.75408 12.6947V7.31488C7.75408 7.15115 7.92684 7.04503 8.07287 7.11905L13.5418 9.89045C13.7044 9.97284 13.7016 10.206 13.5371 10.2845Z" fill="#F61C0D"/>
</g>
<defs>
<clipPath id="clip0_555_8536">
<rect width="20" height="20" fill="white" transform="translate(0.5)"/>
</clipPath>
</defs>
</svg>
