<svg width="24" height="25" viewBox="0 0 24 25" fill="none" xmlns="http://www.w3.org/2000/svg">
<g clip-path="url(#clip0_1267_6212)">
<path d="M13.1297 9.00978V9.76288M16.1422 15.7879V16.541M16.1422 9.00978L13.1297 16.541M8.22145 2.69783C8.57543 2.77727 8.9434 2.76967 9.2938 2.67568C9.6442 2.5817 9.96657 2.40413 10.2333 2.1582C10.7011 1.73609 11.3207 1.47852 12 1.47852C12.6793 1.47852 13.2989 1.73609 13.7664 2.15858C14.0332 2.40439 14.3557 2.58183 14.7061 2.67568C15.0565 2.76953 15.4245 2.77698 15.7785 2.69741C16.3948 2.56564 17.0602 2.65222 17.6484 2.99187C18.2367 3.33153 18.6446 3.86436 18.8382 4.46422C18.9464 4.81047 19.137 5.12532 19.3935 5.38181C19.6501 5.63829 19.965 5.82878 20.3113 5.93694C20.911 6.13086 21.4438 6.53867 21.7834 7.12686C22.123 7.71505 22.2098 8.38044 22.0776 8.99689C21.9982 9.35082 22.0058 9.71873 22.0997 10.0691C22.1937 10.4194 22.3712 10.7418 22.617 11.0085C23.0394 11.4766 23.2969 12.0961 23.2969 12.7754C23.2969 13.4547 23.0394 14.0742 22.6167 14.5419C22.3709 14.8087 22.1935 15.1311 22.0997 15.4815C22.0058 15.832 21.9984 16.1999 22.0779 16.5538C22.2098 17.1702 22.123 17.8356 21.7834 18.4238C21.4437 19.012 20.9109 19.4198 20.3111 19.6134C19.9648 19.7216 19.65 19.9122 19.3935 20.1688C19.137 20.4253 18.9466 20.7402 18.8385 21.0865C18.6445 21.6864 18.2367 22.2192 17.6484 22.5589C17.0601 22.8985 16.3948 22.9851 15.7785 22.853C15.4245 22.7735 15.0566 22.7811 14.7062 22.875C14.3559 22.969 14.0335 23.1464 13.7667 23.3922C13.2989 23.8147 12.6793 24.0723 12 24.0723C11.3207 24.0723 10.7011 23.8147 10.2336 23.3922C9.96675 23.1464 9.64431 22.969 9.29389 22.8751C8.94346 22.7812 8.5755 22.7738 8.22155 22.8533C7.60519 22.9851 6.93984 22.8985 6.35156 22.5589C5.76328 22.2192 5.35542 21.6864 5.16183 21.0865C5.05364 20.7402 4.86309 20.4254 4.60653 20.1689C4.34997 19.9124 4.03504 19.7219 3.68873 19.6138C3.08902 19.4199 2.55623 19.0121 2.21658 18.4238C1.87697 17.8356 1.79016 17.1702 1.92239 16.5538C2.00184 16.1999 1.99426 15.832 1.9003 15.4816C1.80635 15.1313 1.62883 14.8089 1.38295 14.5422C0.960609 14.0742 0.703125 13.4547 0.703125 12.7754C0.703125 12.0961 0.960609 11.4766 1.38328 11.009C1.62907 10.7421 1.80649 10.4197 1.90033 10.0693C1.99417 9.71887 2.00162 9.35092 1.92206 8.99698C1.7902 8.38058 1.87697 7.71519 2.21662 7.12695C2.55628 6.53877 3.08906 6.13095 3.68892 5.93703C4.03515 5.82888 4.34999 5.6384 4.60646 5.3819C4.86293 5.12541 5.05339 4.81055 5.1615 4.46431C5.35547 3.86445 5.76333 3.33162 6.35161 2.99197C6.93984 2.65227 7.60519 2.56564 8.22145 2.69783Z" stroke="#181D27" stroke-width="1.125" stroke-miterlimit="10" stroke-linecap="round" stroke-linejoin="round"/>
<path d="M10.493 10.4594C10.493 9.62756 9.81859 8.95312 8.98675 8.95312C8.15491 8.95312 7.48047 9.62756 7.48047 10.4594V15.0911C7.48047 15.9229 8.15486 16.5973 8.9867 16.5973C9.81855 16.5973 10.4929 15.9229 10.4929 15.0911L10.493 10.4594Z" stroke="#181D27" stroke-width="1.125" stroke-miterlimit="10" stroke-linecap="round" stroke-linejoin="round"/>
</g>
<defs>
<clipPath id="clip0_1267_6212">
<rect width="24" height="24" fill="white" transform="translate(0 0.775391)"/>
</clipPath>
</defs>
</svg>
