<svg width="24" height="25" viewBox="0 0 24 25" fill="none" xmlns="http://www.w3.org/2000/svg">
<g clip-path="url(#clip0_1267_6219)">
<path d="M14.25 22.5254H9.75C9.55844 22.504 9.37984 22.4181 9.24354 22.2818C9.10725 22.1456 9.02136 21.967 9 21.7754V10.1504C9 8.88852 9.50437 8.04477 10.5 7.63602V3.40039C10.5 3.30093 10.5395 3.20555 10.6098 3.13523C10.6802 3.0649 10.7755 3.02539 10.875 3.02539H13.125C13.2245 3.02539 13.3198 3.0649 13.3902 3.13523C13.4605 3.20555 13.5 3.30093 13.5 3.40039V7.63602C14.4956 8.04289 15 8.88852 15 10.1504V21.7754C14.9786 21.967 14.8928 22.1456 14.7565 22.2818C14.6202 22.4181 14.4416 22.504 14.25 22.5254ZM9.79875 21.7754H14.1994C14.2181 21.7605 14.2351 21.7435 14.25 21.7248V10.1504C14.25 9.11914 13.8581 8.51914 13.0144 8.25852C12.9378 8.23489 12.8709 8.18737 12.8233 8.12292C12.7757 8.05848 12.75 7.98049 12.75 7.90039V3.77539H11.25V7.90039C11.25 7.98049 11.2243 8.05848 11.1767 8.12292C11.1291 8.18737 11.0622 8.23489 10.9856 8.25852C10.1419 8.51914 9.75 9.11914 9.75 10.1504V21.7248C9.76491 21.7435 9.78189 21.7605 9.80063 21.7754H9.79875Z" fill="#181D27"/>
<path d="M14.625 18.0254H9.375C9.27554 18.0254 9.18016 17.9859 9.10983 17.9156C9.03951 17.8452 9 17.7498 9 17.6504V12.4004C9 12.3009 9.03951 12.2056 9.10983 12.1352C9.18016 12.0649 9.27554 12.0254 9.375 12.0254H14.625C14.7245 12.0254 14.8198 12.0649 14.8902 12.1352C14.9605 12.2056 15 12.3009 15 12.4004V17.6504C15 17.7498 14.9605 17.8452 14.8902 17.9156C14.8198 17.9859 14.7245 18.0254 14.625 18.0254ZM9.75 17.2754H14.25V12.7754H9.75V17.2754ZM13.125 5.27539H10.875C10.7755 5.27539 10.6802 5.23588 10.6098 5.16556C10.5395 5.09523 10.5 4.99985 10.5 4.90039C10.5 4.80093 10.5395 4.70555 10.6098 4.63523C10.6802 4.5649 10.7755 4.52539 10.875 4.52539H13.125C13.2245 4.52539 13.3198 4.5649 13.3902 4.63523C13.4605 4.70555 13.5 4.80093 13.5 4.90039C13.5 4.99985 13.4605 5.09523 13.3902 5.16556C13.3198 5.23588 13.2245 5.27539 13.125 5.27539Z" fill="#181D27"/>
<path d="M12 24.7754C9.62663 24.7754 7.30655 24.0716 5.33316 22.753C3.35977 21.4345 1.8217 19.5603 0.913451 17.3676C0.00519937 15.1749 -0.232441 12.7621 0.230582 10.4343C0.693605 8.10654 1.83649 5.96834 3.51472 4.29011C5.19295 2.61188 7.33115 1.469 9.65892 1.00597C11.9867 0.54295 14.3995 0.78059 16.5922 1.68884C18.7849 2.59709 20.6591 4.13516 21.9776 6.10855C23.2962 8.08194 24 10.402 24 12.7754C23.9965 15.9569 22.7311 19.0072 20.4814 21.2568C18.2318 23.5065 15.1815 24.7719 12 24.7754ZM12 1.5254C9.77497 1.5254 7.59989 2.1852 5.74984 3.42136C3.89979 4.65753 2.45785 6.41454 1.60636 8.47021C0.754875 10.5259 0.532087 12.7879 0.966171 14.9702C1.40025 17.1524 2.47171 19.157 4.04505 20.7303C5.61839 22.3037 7.62295 23.3751 9.80524 23.8092C11.9875 24.2433 14.2495 24.0205 16.3052 23.169C18.3609 22.3176 20.1179 20.8756 21.354 19.0256C22.5902 17.1755 23.25 15.0004 23.25 12.7754C23.2465 9.79278 22.0602 6.93331 19.9511 4.82428C17.8421 2.71525 14.9826 1.52887 12 1.5254Z" fill="#181D27"/>
<path d="M3.77968 21.3704C3.70574 21.3701 3.63354 21.348 3.57216 21.3067C3.51078 21.2655 3.46296 21.207 3.43471 21.1387C3.40645 21.0704 3.39903 20.9952 3.41337 20.9227C3.42771 20.8502 3.46317 20.7835 3.5153 20.731L19.9553 4.29105C19.9901 4.25621 20.0315 4.22857 20.077 4.20971C20.1225 4.19086 20.1713 4.18115 20.2206 4.18115C20.2699 4.18115 20.3187 4.19086 20.3642 4.20971C20.4097 4.22857 20.4511 4.25621 20.4859 4.29105C20.5208 4.32589 20.5484 4.36725 20.5673 4.41278C20.5861 4.4583 20.5958 4.50709 20.5958 4.55636C20.5958 4.60563 20.5861 4.65442 20.5673 4.69995C20.5484 4.74547 20.5208 4.78683 20.4859 4.82167L4.04405 21.2598C3.97405 21.3302 3.87897 21.37 3.77968 21.3704Z" fill="#181D27"/>
</g>
<defs>
<clipPath id="clip0_1267_6219">
<rect width="24" height="24" fill="white" transform="translate(0 0.775391)"/>
</clipPath>
</defs>
</svg>
